<svg width="116" height="91" viewBox="0 0 116 91" fill="none" xmlns="http://www.w3.org/2000/svg">
<g clip-path="url(#clip0_0_812)">
<path d="M28.6741 6.44483C28.6741 6.44483 28.6741 6.42978 28.6741 6.44483C28.5522 6.32443 28.202 6.39968 27.9583 6.47493C27.8213 6.50503 27.6842 6.55018 27.5776 6.61038C22.933 8.46151 18.4712 11.0651 14.4357 13.9848C10.9636 16.4982 7.70479 19.4028 5.14644 22.8342C2.72515 26.0699 0.608429 30.1785 0.456146 34.2871C0.410462 35.3105 0.715025 36.4092 1.30893 37.252C2.46627 38.9074 4.53731 39.0579 6.39516 38.8021C5.92308 40.7435 5.74034 43.603 7.50682 44.8973C9.22761 46.1615 11.8621 45.3939 13.659 44.7167C15.5778 43.9943 17.1006 42.9408 18.4102 41.3756C21.3493 37.8389 22.9635 33.2186 24.2883 28.8993C25.735 24.1886 26.7705 19.3576 27.6081 14.5116C28.0649 11.8628 28.4913 9.19896 28.7807 6.52008C28.7807 6.48998 28.7502 6.45988 28.6741 6.44483Z" fill="#5B5B5D"/>
<path d="M98.9054 42.2785C97.8242 33.8807 92.8902 25.7086 85.6568 21.0883C79.2153 16.9797 71.5555 16.3476 64.1089 15.881C60.6216 15.6553 57.0734 15.4596 53.6927 14.5416C52.7638 14.2857 51.4999 13.9998 50.8146 13.4881C50.2816 13.0968 49.7943 12.6453 49.2613 12.254C44.3883 8.59688 38.4645 5.69226 32.2666 5.42136C28.4748 5.25581 24.7895 6.3695 21.8048 8.70223C18.3175 11.4263 15.8658 15.4446 14.1298 19.4328C10.7339 27.2738 10.5511 36.0479 12.7592 44.22C15.3937 53.9572 21.0891 62.6862 27.9266 70.0606C29.891 72.1827 31.9773 74.2144 34.1245 76.1408C34.0483 80.3698 33.9722 84.5838 33.8808 88.8128C33.8656 89.4298 33.8503 90.0469 33.8503 90.6489C33.8503 90.9047 34.7793 91.0101 34.962 91.0101C35.9671 91.0101 36.9569 91.0101 37.962 91.0101C37.9772 91.0101 38.1752 91.0101 38.1752 90.9499C38.6625 87.7443 39.1498 84.5236 39.6371 81.3179C39.835 83.7861 40.033 86.2543 40.231 88.7225C40.2767 89.3696 40.3376 90.0017 40.3833 90.6489C40.3985 90.9198 41.297 91.0101 41.4949 91.0101C42.6827 91.0101 43.8553 91.0101 45.0431 91.0101C45.0583 91.0101 45.2563 91.0101 45.2563 90.9499C45.3477 88.3462 45.439 85.7426 45.5152 83.139C51.1344 85.0955 57.378 85.0654 63.2256 84.5085C68.7535 83.9818 74.2356 82.8681 79.596 81.4233C80.2051 81.2578 80.8142 81.0922 81.4081 80.9116C80.9056 83.8012 80.4031 86.6757 79.9005 89.5653C79.8549 89.8061 80.8599 89.9265 81.0122 89.9265C81.6366 89.9265 82.2609 89.9265 82.9005 89.9265C83.1746 89.9265 83.7228 90.0318 83.9665 89.8663C84.1644 89.7308 84.332 89.3094 84.4538 89.1288C85.4436 87.5637 86.3878 85.9834 87.2862 84.3731C90.6212 78.4284 93.5146 72.1977 95.6922 65.7263C98.2049 58.2766 99.9104 50.1948 98.9054 42.2785Z" fill="#B5C0C6"/>
<path d="M63.5448 34.4828C62.1895 32.4812 60.6362 30.5398 58.9306 28.7789C60.6058 29.6217 62.4179 30.314 64.2149 30.4796C65.5245 30.6 66.8037 30.1786 66.8798 28.7037C66.9864 26.9729 66.1641 25.0917 65.3265 23.6018C63.2859 19.9898 59.9357 17.1905 56.5246 14.9029C53.1287 12.6304 49.4739 10.7642 45.7125 9.13882C43.7024 8.26592 41.6618 7.43818 39.5603 6.77599C39.3167 6.65559 39.0578 6.65558 38.9664 6.88133C37.2304 11.6672 35.8751 16.6186 34.7178 21.57C33.667 26.0549 32.8142 30.615 32.3117 35.2052C31.8396 39.66 31.6569 44.2051 32.2812 48.6448C32.8142 52.4374 33.9868 56.3052 36.5147 59.285C38.9207 62.1295 42.7278 63.9806 46.4892 64.1161C54.0119 64.387 53.7226 54.9055 53.1287 49.7886C52.7632 46.7184 52.1693 43.6482 51.4079 40.6382C52.9003 43.5429 54.7581 46.4926 57.4535 48.3137C58.7936 49.2317 60.423 49.8036 62.0677 49.4274C63.8951 49.006 65.5397 47.5612 66.3316 45.9057C68.1133 42.0981 65.6615 37.6132 63.5448 34.4828Z" fill="#5B5B5D"/>
<path d="M13.7922 22.1416C13.7922 22.1416 6.98517 51.7748 13.7922 81.1372H16.7922C16.7922 81.1372 15.4368 52.8584 22.518 44.5057L13.7922 22.1416Z" fill="#B5C0C6"/>
<path d="M16.6576 21.8707C17.3388 21.8707 17.891 21.0891 17.891 20.1249C17.891 19.1608 17.3388 18.3792 16.6576 18.3792C15.9763 18.3792 15.4241 19.1608 15.4241 20.1249C15.4241 21.0891 15.9763 21.8707 16.6576 21.8707Z" fill="white"/>
<path d="M25.9341 23.7519C27.2125 23.7519 28.2488 22.7277 28.2488 21.4643C28.2488 20.2009 27.2125 19.1768 25.9341 19.1768C24.6558 19.1768 23.6194 20.2009 23.6194 21.4643C23.6194 22.7277 24.6558 23.7519 25.9341 23.7519Z" fill="white"/>
<path d="M26.118 22.3075C26.0571 21.9915 25.8896 21.8861 25.783 21.8711C25.6764 21.841 25.4784 21.841 25.2805 22.0968C25.1586 22.2473 25.0673 22.443 25.0063 22.6687C24.8541 23.2105 24.9759 23.662 25.2957 23.7373C25.3261 23.7523 25.3566 23.7523 25.3871 23.7523C25.6612 23.7523 25.9505 23.4363 26.0723 22.9396C26.1332 22.7139 26.1485 22.4881 26.118 22.3075Z" fill="#5B5B5D"/>
<path d="M16.7964 20.2455C16.4918 20.1702 16.1568 20.5013 16.0197 21.0431C15.9588 21.2689 15.9436 21.4946 15.974 21.6752C16.0349 21.9913 16.2025 22.0966 16.3091 22.1117C16.3395 22.1117 16.37 22.1267 16.4004 22.1267C16.507 22.1267 16.6593 22.0816 16.8116 21.8859C16.9334 21.7354 17.0248 21.5398 17.0857 21.314C17.2227 20.7722 17.1009 20.3207 16.7964 20.2455Z" fill="#5B5B5D"/>
<path d="M95.0362 33.9707C95.7824 37.3118 96.8483 40.6378 98.1732 43.7832C99.4371 46.7631 102.087 52.8583 106.381 51.549C107.554 51.1878 108.513 50.345 109.29 49.442C110.63 47.8618 111.589 45.9956 112.427 44.1294C112.594 43.7682 111.802 43.8284 111.681 44.0842C110.95 45.7096 110.127 47.335 109.046 48.7798C108.391 49.6527 107.584 50.5707 106.549 51.0072C104.919 51.7145 103.381 50.5858 102.33 49.4119C100.838 47.7263 99.8331 45.6344 98.9651 43.5876C98.0971 41.5258 97.3813 39.4037 96.7417 37.2516C96.4067 36.0927 96.0869 34.9339 95.8128 33.76C95.7671 33.459 94.9753 33.6547 95.0362 33.9707Z" fill="#B5C0C6"/>
<path d="M115.169 38.1846C115.002 38.1997 114.941 38.3502 114.88 38.4856C114.758 38.7264 114.652 38.9823 114.514 39.2231C114.301 39.6595 114.073 40.0809 113.844 40.5023C114.073 39.6294 114.286 38.7565 114.438 37.8836C114.484 37.6127 114.712 36.785 114.317 36.6646C114.103 36.6044 113.951 36.7699 113.814 36.9054C113.464 37.2816 113.22 37.7331 112.992 38.1846C112.87 38.4254 112.748 38.6813 112.641 38.9221C112.657 38.8167 112.687 38.7114 112.702 38.606C112.733 38.4104 112.992 36.9656 112.337 37.4622C112.154 37.5977 112.048 37.8686 111.941 38.0492C111.712 38.4706 111.515 38.907 111.317 39.3585C110.829 40.397 110.464 41.601 110.449 42.7447C110.449 43.422 110.601 44.1444 111.18 44.5658C111.652 44.9119 112.322 45.0474 112.87 44.8367C114.119 44.3701 114.621 42.5942 114.926 41.4504C115.093 40.8033 115.23 40.1261 115.337 39.4639C115.382 39.1779 115.443 38.892 115.443 38.606C115.474 38.4254 115.428 38.1395 115.169 38.1846Z" fill="#5B5B5D"/>
<path d="M35.5422 1.98995C35.0245 2.4866 34.522 2.98324 34.0042 3.47989C34.0499 2.75749 34.0803 2.0351 34.126 1.31271C34.126 1.20736 33.8062 1.08696 33.7453 1.17726C33.3342 1.74915 32.923 2.32105 32.5118 2.89294C32.3595 2.62205 32.2225 2.35115 32.0702 2.0652C32.0398 2.005 31.6743 1.8545 31.6743 1.9749C31.659 2.41135 31.659 2.86285 31.6438 3.29929C31.6134 4.11199 31.4002 4.96983 32.1159 5.57183C32.4509 5.85778 32.923 5.93302 33.3342 5.76747C33.8367 5.55678 34.2174 5.07518 34.5372 4.65378C34.8874 4.17219 35.192 3.64544 35.4661 3.11869C35.6336 2.80265 35.7859 2.4866 35.923 2.1555C35.9686 2.02005 35.6032 1.92975 35.5422 1.98995Z" fill="#5B5B5D"/>
<path d="M75.8198 79.3913C75.8198 79.6622 74.7233 89.3543 74.7233 89.3543H77.1751L82.3527 76.9683L75.8198 79.3913Z" fill="#92A0A8"/>
<path d="M12.0292 31.9839C13.6738 32.5558 17.7702 35.4454 20.755 33.8651L12.0292 31.9839Z" fill="white"/>
<path d="M17.4799 37.8989L11.7541 36.2886C11.7541 36.2886 13.9317 38.7116 17.4799 37.8989Z" fill="white"/>
<path d="M15.8522 40.8636L11.2229 40.3218C11.2076 40.3218 13.4005 41.9472 15.8522 40.8636Z" fill="white"/>
<path d="M15.03 44.0994H11.2077C11.2077 44.0994 12.5782 45.1846 15.03 44.0994Z" fill="white"/>
<path d="M15.0297 48.1326H10.6744C11.2074 48.1326 13.1261 49.2178 15.0297 48.1326Z" fill="white"/>
<path d="M13.127 52.1817L10.6753 51.9104C10.6753 51.9104 11.2083 52.9956 13.127 52.1817Z" fill="white"/>
<path d="M12.8529 55.417H10.6752C10.6752 55.417 11.2082 56.2158 12.8529 55.417Z" fill="white"/>
<path d="M12.8526 58.3816H10.6749C11.482 58.3816 11.7561 58.9091 12.8526 58.3816Z" fill="white"/>
<path d="M13.4002 60.8047H10.6744C10.6744 60.8047 12.852 61.6035 13.4002 60.8047Z" fill="white"/>
<path d="M13.3998 64.2961H11.2221C11.2069 64.2961 12.0292 65.11 13.3998 64.2961Z" fill="white"/>
<path d="M13.9318 67.2612H11.7542C11.7542 67.2612 13.1247 68.0751 13.9318 67.2612Z" fill="white"/>
<path d="M13.9314 70.2258H11.7538C11.7538 70.2258 12.8502 71.0397 13.9314 70.2258Z" fill="white"/>
<path d="M13.9325 73.1912L12.303 72.9199C12.303 72.9199 12.8513 74.0051 13.9325 73.1912Z" fill="white"/>
<path d="M14.48 76.1555H12.8506C12.8506 76.1555 13.9318 76.9694 14.48 76.1555Z" fill="white"/>
<path d="M23.3405 48.3735C23.2491 47.8167 22.8989 47.3501 22.305 47.2749C21.3761 47.1545 20.7212 47.7264 20.2187 48.4187C19.0614 49.9989 17.7517 51.3384 16.1375 52.437C15.8482 52.6326 14.0056 53.7313 14.6756 54.1527C15.1172 54.4236 16.1375 54.1075 16.5792 54.0172C17.9497 53.7313 19.2898 53.3851 20.508 52.6627C21.909 51.8049 23.6451 50.1946 23.3405 48.3735Z" fill="white"/>
<path d="M36.7907 89.0386C36.5166 89.1891 36.3034 89.475 36.1358 89.776C36.014 89.159 35.7399 88.5419 35.0699 89.0837C34.5673 89.4901 34.278 90.2877 34.0496 90.8747C34.0344 90.9048 34.0496 90.9198 34.0648 90.9198C34.08 90.9349 34.1105 90.9499 34.1714 90.9499C35.4049 90.9951 36.6232 91.0402 37.8566 91.0854C37.9328 91.0854 38.146 91.0402 38.1307 90.9198C38.0394 90.3479 37.8414 88.4516 36.7907 89.0386Z" fill="#5B5B5D"/>
<path d="M43.5666 88.7074C43.1554 88.903 42.8965 89.3846 42.7138 89.8512C42.6224 89.0385 42.3788 87.6388 41.526 88.4064C40.8864 88.9933 40.5514 90.0619 40.2773 90.8445C40.2773 90.8445 40.2773 90.8445 40.2925 90.8595C40.2925 90.8595 40.2925 90.8746 40.323 90.8746C41.9524 90.9649 43.597 91.0552 45.2265 91.1455C45.2569 91.1455 45.394 91.1154 45.394 91.0853C45.2112 90.4532 44.7087 88.1656 43.5666 88.7074Z" fill="#5B5B5D"/>
<path d="M76.6736 87.7742C76.3691 87.9849 76.1407 88.3461 75.9579 88.7073C75.9427 88.3913 75.8818 88.0602 75.7143 87.8946C75.5467 87.7441 75.3488 87.7742 75.2117 87.9398C74.8767 88.3311 74.7397 88.9782 74.6026 89.4598C74.5874 89.52 74.7549 89.5802 74.831 89.5652C75.6381 89.5652 76.4452 89.5652 77.2523 89.5652C77.2675 89.5652 77.3285 89.5652 77.3285 89.5351C77.3285 89.2642 77.5873 87.1421 76.6736 87.7742Z" fill="#5B5B5D"/>
<path d="M83.224 87.8197C82.752 88.0605 82.3713 88.512 82.0515 88.9485C81.9753 88.5873 81.884 88.2261 81.7317 87.895C81.6555 87.7294 81.5489 87.5187 81.3814 87.4284C81.0921 87.2779 80.8028 87.4736 80.6352 87.6993C80.1784 88.2712 79.9652 89.0839 79.7825 89.7762C79.7825 89.7913 79.7825 89.7913 79.7825 89.8063C79.7825 89.8214 79.7977 89.8214 79.8434 89.8364C79.8434 89.8364 79.8434 89.8364 79.8586 89.8364C81.1226 89.9267 82.4017 90.017 83.6657 90.1073C83.6961 90.1073 83.8484 90.1073 83.8636 90.0471C83.955 89.5354 84.5032 87.1575 83.224 87.8197Z" fill="#5B5B5D"/>
<path d="M25.3835 11.5015C25.3835 11.7724 28.3835 14.4663 34.1093 13.3827L25.3835 11.5015Z" fill="white"/>
</g>
<defs>
<clipPath id="clip0_0_812">
<rect width="115" height="90" fill="white" transform="translate(0.977356 0.88916)"/>
</clipPath>
</defs>
</svg>
