<svg width="170" height="140" viewBox="0 0 170 140" fill="none" xmlns="http://www.w3.org/2000/svg">
<g clip-path="url(#clip0_0_439)">
<path d="M138.059 46.9326C131.698 42.5185 130.108 33.458 134.424 26.953L147.828 7.20581L171 23.4682L157.369 43.2154C153.053 49.7204 144.42 51.3466 138.059 46.9326Z" fill="#E075AD"/>
<path d="M148 7.42791L170.098 0L171 23.6765L148 7.42791Z" fill="#FCEDCD"/>
<path d="M164 2.05881L170 6.17647L169.786 0L164 2.05881Z" fill="#E075AD"/>
<path d="M140.516 48.3824C139.386 43.0324 140.29 39.0781 142.551 35.8216C144.585 33.0303 158.375 13.9565 158.375 13.9565L169 0L163.575 1.86083L147.75 7.21081L134.412 26.9825C130.117 33.4955 131.7 42.3346 138.029 46.9867C138.708 47.6846 139.612 48.1497 140.516 48.3824Z" fill="#EDA9D0"/>
<path d="M132.933 49.4119C119.316 50.3382 112.508 67.4758 106.153 77.4341C100.933 85.7712 95.2598 94.34 87.0896 100.361C80.5081 105.225 70.2953 109.856 61.8982 107.077C51.0047 103.835 52.5933 95.4979 51.6855 87.3923C51.4586 86.0028 49.416 85.7712 49.1891 87.1607C42.8345 107.772 63.26 115.414 79.3733 108.93C89.3591 104.993 96.8484 97.119 103.203 88.5503C110.919 77.8972 119.316 53.812 133.16 51.2645C134.522 51.2645 134.068 49.4119 132.933 49.4119Z" fill="white"/>
<path d="M138.052 53.0058C124.469 80.3788 107.717 102.648 81.2315 117.959C69.0072 125.15 54.972 131.413 41.1631 134.661C32.7872 136.517 22.8267 137.444 14.9036 133.501C3.35844 128.165 -3.43284 115.175 5.39579 103.808C6.07492 102.88 4.49033 102.184 3.81121 102.648C-6.82842 112.391 -1.6218 127.934 9.47059 134.893C24.185 144.172 42.2949 139.068 57.4621 133.269C75.3457 126.31 92.3239 116.335 106.359 103.344C121.753 89.4258 131.487 72.2597 139.863 53.4697C140.542 52.5418 138.504 52.0779 138.052 53.0058Z" fill="white"/>
<path d="M132.61 22.7721C130.138 20.4165 127.666 18.2964 124.97 16.6474C124.52 16.4118 123.621 16.4118 122.947 16.6474C113.509 22.7721 104.52 30.0747 97.3292 38.7907C96.2056 40.2041 98.2281 41.382 99.3517 41.1464C103.846 40.2041 108.116 39.2619 112.61 37.8485C114.633 37.1418 123.621 32.9016 125.419 34.0794C127.217 35.4928 129.689 33.1371 127.442 31.7237C124.296 29.6036 120.7 31.7237 117.554 32.9016C113.06 34.5505 108.565 35.9639 104.071 36.9062C107.666 33.3727 111.262 30.0747 115.082 26.7768C117.329 24.8922 120.026 22.301 122.498 21.1232C125.869 19.7098 128.116 21.5943 131.262 23.95C132.161 24.8923 133.734 23.7144 132.61 22.7721Z" fill="white"/>
<path d="M161.97 42.4377C164.98 44.0573 167.758 45.677 170.305 47.9908C170.768 48.4535 171 49.1476 171 49.8418C168.453 60.9479 164.748 72.054 158.96 81.7719C158.034 83.1601 156.413 81.7719 156.182 80.615C155.487 75.9874 155.024 71.3599 154.792 66.7323C154.792 64.6499 155.719 54.4693 153.866 53.0811C152.014 51.6928 153.403 48.6849 155.487 50.3045C158.497 52.8497 157.571 56.7831 157.571 60.4851C157.571 65.3441 157.802 70.203 158.266 75.0619C160.349 70.4344 162.202 65.8068 163.822 61.1793C164.749 58.4027 166.369 54.9321 166.601 52.1556C166.832 48.2221 164.285 46.8339 161.044 44.5201C160.118 43.5946 160.581 41.5122 161.97 42.4377Z" fill="white"/>
</g>
<defs>
<clipPath id="clip0_0_439">
<rect width="170" height="140" fill="white"/>
</clipPath>
</defs>
</svg>
