<svg width="881" height="693" viewBox="0 0 881 693" fill="none" xmlns="http://www.w3.org/2000/svg">
<path d="M882 321.14V0H0C0 0 52.1973 53.8439 32.5038 128.6C12.8103 203.357 71.8907 356.956 136.134 377.869C200.376 398.781 163.284 471.134 222.364 554.063C281.636 636.993 306.492 575.457 338.039 593.004C351.232 600.215 356.777 641.56 398.458 633.147C428.859 626.897 459.26 610.311 470.158 615.84C481.056 621.368 487.557 693 487.557 693C487.557 693 551.035 671.607 564.419 649.973C577.803 628.339 652.37 562.236 651.032 465.365C650.649 433.155 667.475 399.503 746.249 427.146C825.023 454.548 882 414.887 882 321.14Z" fill="url(#paint0_linear_0_415)"/>
<defs>
<linearGradient id="paint0_linear_0_415" x1="552.5" y1="658.936" x2="209.096" y2="8.04762" gradientUnits="userSpaceOnUse">
<stop stop-color="#5D77FF"/>
<stop offset="1" stop-color="#6539C1"/>
</linearGradient>
</defs>
</svg>
