<svg width="1920" height="453" viewBox="0 0 1920 453" fill="none" xmlns="http://www.w3.org/2000/svg">
<path d="M7.75916 386.906C-8.13948 374.366 52.9177 320.362 132.97 313.805C306.833 299.239 438.732 293.002 563.018 242.625C678.396 195.662 720.479 42.1409 1114.28 122.272C1392.9 177.808 1598.22 166.603 1646.71 140.208C1770.69 74.7887 1788.46 12.2734 1921.3 1.00007" stroke="#92D0FD" stroke-opacity="0.15" stroke-width="2"/>
<path d="M7.245 390.332C-7.85871 377.37 53.6476 324.165 132.464 317.379C306.411 301.775 432.751 296.185 551.803 245.078C662.395 197.214 709.406 48.8814 1104.07 125.238C1389.31 178.23 1589.05 168.075 1639.42 139.377C1761.51 73.6054 1788.42 13.1587 1921.11 2.97759" stroke="#92D0FD" stroke-opacity="0.15" stroke-width="2"/>
<path d="M6.73267 393.759C-7.57611 380.374 54.3793 327.969 131.96 320.954C305.991 304.312 426.772 299.369 540.591 247.532C646.395 198.767 698.334 55.6222 1093.86 128.204C1385.72 178.651 1579.88 169.546 1632.14 138.545C1752.33 72.4223 1788.39 14.0443 1920.92 4.95541" stroke="#92D0FD" stroke-opacity="0.15" stroke-width="2"/>
<path d="M6.21838 397.185C-7.29546 383.377 55.1092 331.772 131.455 324.528C305.569 306.848 420.79 302.552 529.377 249.985C630.393 200.32 687.26 62.3627 1083.65 131.17C1382.13 179.072 1570.71 171.018 1624.85 137.714C1743.16 71.239 1788.35 14.9295 1920.73 6.9329" stroke="#92D0FD" stroke-opacity="0.15" stroke-width="2"/>
<path d="M5.70605 400.611C-7.01286 386.381 55.841 335.576 130.951 328.103C305.149 309.385 414.811 305.736 518.165 252.439C614.393 201.873 676.189 69.1034 1073.44 134.137C1378.54 179.494 1561.55 172.489 1617.57 136.882C1733.98 70.0559 1788.32 15.815 1920.54 8.91064" stroke="#92D0FD" stroke-opacity="0.15" stroke-width="2"/>
<path d="M5.19189 404.037C-6.73209 389.385 56.5708 339.379 130.445 331.677C304.727 311.921 408.83 308.919 506.951 254.892C598.391 203.426 665.115 75.8439 1063.23 137.103C1374.95 179.915 1552.38 173.961 1610.28 136.051C1724.8 68.8726 1788.28 16.7002 1920.35 10.8881" stroke="#92D0FD" stroke-opacity="0.15" stroke-width="2"/>
<path d="M4.67957 407.462C-6.44948 392.389 57.3027 343.182 129.942 335.251C304.308 314.457 402.851 312.103 495.739 257.345C582.391 204.978 654.044 82.5844 1053.02 140.069C1371.36 180.336 1543.21 175.432 1603 135.219C1715.62 67.6891 1788.24 17.5854 1920.16 12.8656" stroke="#92D0FD" stroke-opacity="0.15" stroke-width="2"/>
<path d="M4.16528 410.888C-6.16883 395.392 58.0325 346.985 129.436 338.825C303.886 316.993 396.87 315.286 484.524 259.799C566.389 206.531 642.97 89.3246 1042.81 143.034C1367.77 180.757 1534.05 176.903 1595.71 134.387C1706.45 66.5056 1788.21 18.4705 1919.97 14.8429" stroke="#92D0FD" stroke-opacity="0.15" stroke-width="2"/>
<path d="M3.65308 414.314C-5.88611 398.396 58.7643 350.789 128.933 342.4C303.466 319.53 390.891 318.47 473.312 262.252C550.39 208.084 631.898 96.0655 1032.6 146.001C1364.18 181.179 1524.88 178.375 1588.43 133.556C1697.27 65.3227 1788.17 19.3561 1919.78 16.8208" stroke="#92D0FD" stroke-opacity="0.15" stroke-width="2"/>
<path d="M3.13879 417.74C-5.60546 401.4 59.4941 354.592 128.427 345.974C303.044 322.066 384.91 321.653 462.098 264.706C534.388 209.636 620.825 102.806 1022.38 148.967C1360.59 181.6 1515.71 179.847 1581.14 132.725C1688.09 64.1392 1788.14 20.2412 1919.59 18.7982" stroke="#92D0FD" stroke-opacity="0.15" stroke-width="2"/>
<path d="M2.62451 421.166C-5.32481 404.404 60.224 358.396 127.921 349.549C302.622 324.603 378.929 324.837 450.884 267.159C518.386 211.189 609.751 109.547 1012.17 151.933C1357 182.022 1506.54 181.318 1573.85 131.893C1678.91 62.9562 1788.1 21.1268 1919.4 20.776" stroke="#92D0FD" stroke-opacity="0.15" stroke-width="2"/>
<path d="M2.11218 424.593C-5.04221 407.408 60.9557 362.199 127.418 353.123C302.202 327.14 372.949 328.02 439.672 269.613C502.386 212.742 598.68 116.288 1001.96 154.899C1353.41 182.443 1497.38 182.79 1566.57 131.062C1669.73 61.7732 1788.07 22.0125 1919.21 22.7539" stroke="#92D0FD" stroke-opacity="0.15" stroke-width="2"/>
<path d="M1.59802 428.019C-4.76143 410.412 61.6856 366.003 126.912 356.697C301.78 329.676 366.968 331.204 428.458 272.066C486.384 214.295 587.606 123.028 991.751 157.865C1349.82 182.864 1488.21 184.261 1559.28 130.23C1660.56 60.5898 1788.03 22.8976 1919.02 24.7313" stroke="#92D0FD" stroke-opacity="0.15" stroke-width="2"/>
<path d="M1.08569 431.444C-4.47883 413.415 62.4173 369.806 126.408 360.271C301.36 332.212 360.989 334.387 417.245 274.52C470.384 215.847 576.534 129.768 981.541 160.831C1346.23 183.285 1479.04 185.732 1552 129.399C1651.38 59.4062 1788 23.7826 1918.83 26.7085" stroke="#92D0FD" stroke-opacity="0.15" stroke-width="2"/>
<path d="M0.571411 434.87C-4.19818 416.419 63.1472 373.609 125.903 363.846C300.938 334.748 355.008 337.57 406.031 276.973C454.383 217.4 565.461 136.509 971.329 163.797C1342.64 183.707 1469.87 187.204 1544.71 128.567C1642.2 58.2228 1787.96 24.6678 1918.63 28.686" stroke="#92D0FD" stroke-opacity="0.15" stroke-width="2"/>
<path d="M0.0592041 438.296C-3.91546 419.423 63.879 377.412 125.399 367.42C300.518 337.285 349.029 340.754 394.819 279.426C438.383 218.953 554.389 143.249 961.119 166.763C1339.05 184.128 1460.71 188.675 1537.43 127.735C1633.02 57.0395 1787.93 25.5531 1918.44 30.6635" stroke="#92D0FD" stroke-opacity="0.15" stroke-width="2"/>
<path d="M-0.455078 441.722C-3.63481 422.427 64.6088 381.216 124.894 370.995C300.096 339.821 343.048 343.937 383.605 281.88C422.381 220.506 543.315 149.99 950.907 169.729C1335.46 184.549 1451.54 190.147 1530.14 126.904C1623.84 55.8564 1787.89 26.4386 1918.25 32.6413" stroke="#92D0FD" stroke-opacity="0.15" stroke-width="2"/>
<path d="M-0.967407 445.148C-3.3522 425.43 65.3406 385.019 124.39 374.569C299.676 342.358 337.069 347.121 372.393 284.333C406.381 222.058 532.244 156.73 940.698 172.695C1331.87 184.971 1442.37 191.618 1522.86 126.072C1614.67 54.673 1787.85 27.3238 1918.06 34.6187" stroke="#92D0FD" stroke-opacity="0.15" stroke-width="2"/>
<path d="M-1.48169 448.574C-3.07155 428.434 66.0704 388.823 123.884 378.143C299.254 344.894 331.087 350.304 361.179 286.787C390.379 223.611 521.17 163.471 930.486 175.661C1328.28 185.392 1433.2 193.09 1515.57 125.241C1605.49 53.49 1787.82 28.2094 1917.87 36.5966" stroke="#92D0FD" stroke-opacity="0.15" stroke-width="2"/>
<path d="M-1.9939 452C-2.78883 431.438 66.8022 392.626 123.381 381.718C298.834 347.431 325.108 353.488 349.967 289.24C374.379 225.164 510.099 170.212 920.276 178.627C1324.69 185.813 1424.04 194.561 1508.29 124.41C1596.31 52.3067 1787.78 29.0947 1917.68 38.5741" stroke="#92D0FD" stroke-opacity="0.15" stroke-width="2"/>
</svg>
