<svg width="24" height="24" viewBox="0 0 24 24" fill="none" xmlns="http://www.w3.org/2000/svg">
<path d="M12 5C12.3956 5 12.7822 5.1173 13.1111 5.33706C13.44 5.55682 13.6964 5.86918 13.8478 6.23463C13.9991 6.60009 14.0387 7.00222 13.9616 7.39018C13.8844 7.77814 13.6939 8.13451 13.4142 8.41421C13.1345 8.69392 12.7781 8.8844 12.3902 8.96157C12.0022 9.03874 11.6001 8.99913 11.2346 8.84776C10.8692 8.69638 10.5568 8.44004 10.3371 8.11114C10.1173 7.78224 10 7.39556 10 7C10.0006 6.46975 10.2115 5.96139 10.5865 5.58645C10.9614 5.21151 11.4698 5.0006 12 5ZM12 2C11.0111 2 10.0444 2.29324 9.22215 2.84265C8.39991 3.39206 7.75904 4.17295 7.3806 5.08658C7.00217 6.00021 6.90315 7.00555 7.09608 7.97545C7.289 8.94536 7.76521 9.83627 8.46447 10.5355C9.16373 11.2348 10.0546 11.711 11.0246 11.9039C11.9945 12.0969 12.9998 11.9978 13.9134 11.6194C14.827 11.241 15.6079 10.6001 16.1574 9.77785C16.7068 8.95561 17 7.98891 17 7C17 5.67392 16.4732 4.40215 15.5355 3.46447C14.5979 2.52678 13.3261 2 12 2Z" fill="white"/>
<path d="M12 16.25C10.2989 16.2509 8.62941 15.7899 7.16991 14.916C6.85204 14.7246 6.62313 14.4148 6.53346 14.0547C6.44378 13.6947 6.50068 13.3138 6.69164 12.9956C6.88261 12.6775 7.19203 12.4481 7.55196 12.3579C7.91189 12.2677 8.29291 12.3241 8.61132 12.5146C9.65762 13.1259 10.8498 13.4427 12.0616 13.4314C13.2733 13.4202 14.4594 13.0813 15.4941 12.4506C15.65 12.3525 15.8237 12.2861 16.0053 12.2553C16.1869 12.2244 16.3728 12.2297 16.5523 12.2708C16.7319 12.3119 16.9015 12.3881 17.0516 12.4949C17.2017 12.6017 17.3292 12.737 17.4268 12.8932C17.5245 13.0494 17.5903 13.2233 17.6207 13.405C17.651 13.5867 17.6452 13.7725 17.6035 13.952C17.5619 14.1314 17.4852 14.3008 17.378 14.4506C17.2707 14.6003 17.135 14.7274 16.9785 14.8246C15.4857 15.7576 13.7604 16.2516 12 16.25Z" fill="white"/>
<path d="M15.9997 21.6001C15.8157 21.6003 15.6335 21.5642 15.4636 21.4938C15.2937 21.4235 15.1393 21.3202 15.0094 21.1899L11.9997 18.1802L8.98988 21.1899C8.86 21.3204 8.70567 21.424 8.53571 21.4947C8.36576 21.5654 8.18352 21.602 7.99943 21.6022C7.81534 21.6024 7.63302 21.5663 7.46289 21.496C7.29276 21.4257 7.13817 21.3225 7.00797 21.1924C6.87777 21.0622 6.77451 20.9077 6.7041 20.7376C6.63369 20.5675 6.59752 20.3852 6.59766 20.2011C6.59779 20.017 6.63423 19.8348 6.70488 19.6648C6.77554 19.4948 6.87902 19.3404 7.00942 19.2105L11.9997 14.2202L16.9899 19.2104C17.1856 19.4063 17.3189 19.6557 17.3729 19.9273C17.4269 20.1988 17.3991 20.4803 17.2931 20.7361C17.1872 20.9919 17.0077 21.2105 16.7775 21.3643C16.5472 21.5181 16.2765 21.6002 15.9997 21.6001Z" fill="white"/>
</svg>
