<svg width="127" height="90" viewBox="0 0 127 90" fill="none" xmlns="http://www.w3.org/2000/svg">
<path d="M66.4761 66.3818C96.8518 66.3818 121.476 60.3377 121.476 52.8818C121.476 45.426 96.8518 39.3818 66.4761 39.3818C36.1005 39.3818 11.4761 45.426 11.4761 52.8819C11.4761 60.3377 36.1005 66.3818 66.4761 66.3818Z" fill="#EBEBEB"/>
<path fill-rule="evenodd" clip-rule="evenodd" d="M108.576 28.2053L22.698 34.9435L102.972 39.1601L112.982 53.4373L108.576 28.2053Z" fill="#BEB58E"/>
<path d="M112.982 53.4373L97.3677 50.1147L102.972 39.1601L112.982 53.4373Z" fill="#716B44"/>
<path d="M116.202 12.8404L28.9148 33.9545L108.264 27.7282L116.202 12.8404Z" fill="#EEECDB" stroke="#BEB58E"/>
<path d="M25.6314 35.5987L90.7093 62.0972L102.176 39.6187L25.6314 35.5987Z" fill="#EEECDB" stroke="#BEB58E"/>
<path d="M99.6695 28.8213C95.4124 24.3915 90.9638 24.0501 84.2973 24.581C78.9349 25.0082 73.679 27.3351 71.6915 31.1046L99.6695 28.8213Z" fill="#FFD84E"/>
<path d="M101.987 39.0994C102.374 36.9389 102.266 35.8126 101.905 33.5112C101.65 31.8891 100.26 29.4355 99.6695 28.8213L71.6915 31.1046C71.3306 33.1181 71.6441 36.2742 72.4322 37.5516L101.987 39.0994Z" fill="#C5992A"/>
<path d="M96.2389 23.7755L100.923 17.4542" stroke="#FFCD4E" stroke-linecap="round"/>
<path d="M102.493 26.876L107.487 24.9268" stroke="#FFCD4E" stroke-linecap="round"/>
<path d="M66.7737 26.5985L71.7811 28.5138" stroke="#FFCD4E" stroke-linecap="round"/>
<path d="M77.413 22.8592L78.6172 24.6416" stroke="#FFCD4E" stroke-linecap="round"/>
<path d="M87.1839 20.9526L87.1648 23.17" stroke="#FFCD4E" stroke-linecap="round"/>
<path d="M85.2481 54.6096C84.5534 54.4501 84.3405 55.3772 85.0352 55.5367C85.7832 55.4644 85.9428 54.7691 85.2481 54.6096Z" fill="#E0CAEF"/>
<path d="M93.289 47.812C92.5943 47.6525 92.3283 48.8113 93.023 48.9708C93.7709 48.8985 93.9837 47.9715 93.289 47.812Z" fill="#E0CAEF"/>
<path d="M108.505 21.2813C107.779 21.3672 108.206 22.1296 108.932 22.0437C109.572 21.8053 109.231 21.1954 108.505 21.2813Z" fill="#E0CAEF"/>
<path d="M83.6013 46.8708C83.3697 46.8176 83.3697 46.8176 83.6013 46.8708C82.5154 47.3534 83.5137 48.3145 84.1364 47.7256C84.1364 47.7256 84.1896 47.4938 84.4212 47.5469C84.9907 47.1897 83.9393 46.4604 83.6013 46.8708Z" fill="#E0CAEF"/>
<path d="M101.262 23.9218C101.02 23.9504 101.02 23.9504 101.262 23.9218C100.55 24.4938 102.016 24.808 102.244 24.2933C102.244 24.2933 102.159 24.1408 102.401 24.1122C102.714 23.7499 101.333 23.5882 101.262 23.9218Z" fill="#E0CAEF"/>
<path d="M75.0702 41.6713C74.8387 41.6182 74.8387 41.6182 75.0702 41.6713C73.9843 42.154 74.9826 43.115 75.6054 42.5261C75.6054 42.5261 75.6585 42.2943 75.8901 42.3475C76.4597 41.9903 75.4082 41.261 75.0702 41.6713Z" fill="#E0CAEF"/>
<path d="M90.849 20.6383C90.6071 20.667 90.6071 20.667 90.849 20.6383C90.1373 21.2103 91.6032 21.5246 91.831 21.0099C91.831 21.0099 91.7456 20.8574 91.9875 20.8287C92.3007 20.4665 90.9202 20.3047 90.849 20.6383Z" fill="#E0CAEF"/>
<path d="M58.9657 41.2158C58.7342 41.1626 58.7342 41.1626 58.9657 41.2158C57.8798 41.6984 58.8781 42.6595 59.5009 42.0705C59.5009 42.0705 59.554 41.8387 59.7856 41.8919C60.3552 41.5347 59.3037 40.8054 58.9657 41.2158Z" fill="#E0CAEF"/>
<path d="M93.4628 41.5708C93.2312 41.5176 93.2312 41.5176 93.4628 41.5708C92.3769 42.0534 93.3752 43.0145 93.998 42.4255C93.998 42.4255 94.0511 42.1937 94.2827 42.2469C94.8522 41.8897 93.8008 41.1604 93.4628 41.5708Z" fill="#E0CAEF"/>
<path d="M105.057 17.5048C104.815 17.5334 104.815 17.5334 105.057 17.5048C104.345 18.0768 105.811 18.391 106.039 17.8763C106.039 17.8763 105.954 17.7238 106.196 17.6952C106.509 17.3329 105.128 17.1712 105.057 17.5048Z" fill="#E0CAEF"/>
<path d="M71.699 47.7278C71.0043 47.5683 70.7915 48.4953 71.4862 48.6548C72.1809 48.8143 72.3937 47.8873 71.699 47.7278Z" fill="#E0CAEF"/>
<path d="M46.6281 39.262C45.9334 39.1025 45.7206 40.0295 46.4153 40.189C47.11 40.3485 47.3228 39.4214 46.6281 39.262Z" fill="#E0CAEF"/>
<path d="M56.5505 29.5647C55.8246 29.6506 56.1661 30.2606 56.892 30.1747C57.6178 30.0887 57.2764 29.4788 56.5505 29.5647Z" fill="#E0CAEF"/>
</svg>
