<svg width="144" height="90" viewBox="0 0 144 90" fill="none" xmlns="http://www.w3.org/2000/svg">
<path d="M62.2309 80.8646C92.6066 80.8646 117.231 74.8205 117.231 67.3646C117.231 59.9088 92.6066 53.8646 62.2309 53.8646C31.8553 53.8646 7.23093 59.9088 7.23093 67.3646C7.23093 74.8205 31.8553 80.8646 62.2309 80.8646Z" fill="#EBEBEB"/>
<path fill-rule="evenodd" clip-rule="evenodd" d="M97.5352 37.2804L5.23162 61.4043L93.5661 50.3177L107.269 63.9262L97.5352 37.2804Z" fill="#BEB58E"/>
<path d="M107.269 63.9262L89.5972 63.3548L93.5661 50.3177L107.269 63.9262Z" fill="#716B44"/>
<path d="M104.859 13.377L9.97301 59.6486L97.1451 36.8654L104.859 13.377Z" fill="#EEECDB" stroke="#BEB58E"/>
<path d="M8.23503 61.5319L84.7172 77.7814L92.8647 50.9094L8.23503 61.5319Z" fill="#EEECDB" stroke="#BEB58E"/>
<path d="M45.0737 56.4083C45.7028 62.5263 53.3785 67.7941 62.7635 68.1362C77.1349 68.66 83.6767 60.0226 83.6767 51.5529L45.0737 56.4083Z" fill="#FFD84E"/>
<path d="M78.4068 67.1559L83.8001 73.9995" stroke="#FFCD4E" stroke-width="2" stroke-linecap="round"/>
<path d="M85.1486 55.8632L89.9769 56.0846" stroke="#FFCD4E" stroke-width="2" stroke-linecap="round"/>
<path d="M32.534 61.0988L41.3312 59.1006" stroke="#FFCD4E" stroke-width="2" stroke-linecap="round"/>
<path d="M61.4135 69.3888L61.2711 71.7669" stroke="#FFCD4E" stroke-width="2" stroke-linecap="round"/>
<path d="M46.8942 64.719L43.7743 67.9312" stroke="#FFCD4E" stroke-width="2" stroke-linecap="round"/>
<path d="M85.4482 40.4406C80.3764 35.8742 72.8106 37.1849 65.6468 39.0662C59.8844 40.5795 48.4779 45.9813 47.0477 50.4789L85.4482 40.4406Z" fill="#FFD84E"/>
<path d="M85.4482 51.3277C86.2601 49.4455 86.3893 43.7251 85.4482 40.4406L47.0477 50.4789C46.5993 52.4391 46.6904 54.9771 47.0474 56.1501L85.4482 51.3277Z" fill="#C5992A"/>
<path d="M81.6433 35.2392L87.2221 27.0553" stroke="#FFCD4E" stroke-width="2" stroke-linecap="round"/>
<path d="M43.3057 44.5522L47.7772 46.2079" stroke="#FFCD4E" stroke-width="2" stroke-linecap="round"/>
<path d="M55.2362 38.7245L56.3662 40.3601" stroke="#FFCD4E" stroke-width="2" stroke-linecap="round"/>
<path d="M68.4915 33.2475L68.4671 35.7033" stroke="#FFCD4E" stroke-width="2" stroke-linecap="round"/>
<path d="M96.1046 29.7459C95.3301 29.9814 95.9443 30.7291 96.7189 30.4937C97.3705 30.1086 96.8791 29.5104 96.1046 29.7459Z" fill="#E0CAEF"/>
<path d="M80.6887 28.0806C80.3349 28.1881 80.6155 28.5297 80.9693 28.4222C81.267 28.2463 81.0425 27.973 80.6887 28.0806Z" fill="#E0CAEF"/>
<path d="M85.7983 61.4341C85.0238 61.6696 85.6381 62.4174 86.4126 62.1819C87.0642 61.7969 86.5728 61.1986 85.7983 61.4341Z" fill="#E0CAEF"/>
<path d="M90.0658 34.9498C89.8076 35.0283 89.8076 35.0283 90.0658 34.9498C89.4017 35.7124 91.0611 35.7686 91.2089 35.1629C91.2089 35.1629 91.086 35.0134 91.3441 34.9349C91.6148 34.4788 90.0782 34.5722 90.0658 34.9498Z" fill="#E0CAEF"/>
<path d="M28.7444 51.9886C28.4862 52.0671 28.4862 52.0671 28.7444 51.9886C28.0803 52.7512 29.7398 52.8074 29.8875 52.2017C29.8875 52.2017 29.7646 52.0522 30.0228 51.9737C30.2934 51.5176 28.7569 51.611 28.7444 51.9886Z" fill="#E0CAEF"/>
<path d="M24.1245 60.7897C23.8616 60.777 23.8616 60.777 24.1245 60.7897C23.035 61.528 24.311 62.3807 24.8748 61.617C24.8748 61.617 24.8875 61.3539 25.1503 61.3666C25.7014 60.8659 24.4127 60.2763 24.1245 60.7897Z" fill="#E0CAEF"/>
<path d="M93.85 22.219C93.5918 22.2975 93.5918 22.2975 93.85 22.219C93.1859 22.9817 94.8453 23.0379 94.9931 22.4322C94.9931 22.4322 94.8702 22.2827 95.1283 22.2042C95.3989 21.7481 93.8624 21.8414 93.85 22.219Z" fill="#E0CAEF"/>
<path d="M34.7666 64.4465C33.9781 64.4083 33.9272 65.4605 34.7157 65.4986C35.5042 65.5368 35.5551 64.4846 34.7666 64.4465Z" fill="#E0CAEF"/>
<path d="M75.7681 30.0249C74.7832 29.9772 74.7196 31.2916 75.7046 31.3392C76.6895 31.3869 76.7531 30.0725 75.7681 30.0249Z" fill="#E0CAEF"/>
<path d="M74.4325 71.2406C73.644 71.2025 73.5931 72.2547 74.3816 72.2928C75.1701 72.331 75.221 71.2788 74.4325 71.2406Z" fill="#E0CAEF"/>
<path d="M41.0852 48.9263C40.3107 49.1618 40.8021 49.76 41.5766 49.5245C42.3511 49.289 41.8597 48.6908 41.0852 48.9263Z" fill="#E0CAEF"/>
</svg>
