<svg width="54" height="51" viewBox="0 0 54 51" fill="none" xmlns="http://www.w3.org/2000/svg">
<path d="M6.46909 31.2142C6.47708 31.3397 6.47707 31.4656 6.46908 31.5911C5.62225 35.3683 0.487091 36.0432 0.487091 36.0432C1.94765 35.3272 2.29904 34.7978 2.63356 32.7991C2.96808 30.8004 5.47427 30.571 5.47427 30.571C5.58093 30.4986 5.69799 30.4429 5.82141 30.4057C5.97689 30.7185 6.19777 30.9943 6.46909 31.2142V31.2142Z" fill="url(#paint0_linear_0_999)"/>
<path d="M6.89212 29.2534C7.1043 29.6895 7.4436 30.0509 7.86529 30.2901C7.5945 30.5231 7.31204 30.7422 7.01899 30.9465L6.15583 29.9859C6.3928 29.7361 6.64246 29.499 6.89212 29.2534Z" fill="#4CD0C0"/>
<path d="M7.45312 28.6932L7.50062 28.7354L7.57234 28.731C10.7582 28.6476 14.0385 28.9424 17.1777 28.9817C20.3169 29.021 23.5611 29.063 26.747 28.9795C26.9417 28.9768 48.7929 28.4976 48.9789 28.4984C49.5491 28.5183 50.1201 28.5011 50.6881 28.4467C50.8522 28.3852 50.9889 28.2668 51.0733 28.1132C51.1576 27.9595 51.1841 27.7807 51.1479 27.6092L51.1454 27.5164C51.2279 27.2519 51.2415 26.9708 51.1849 26.6997C51.1283 26.4285 51.0034 26.1764 50.822 25.9671L50.7745 25.925L50.7056 25.9262C47.8635 25.941 23.2959 26.4785 20.4725 26.5042C16.2502 26.5569 11.9128 26.7906 7.61879 26.7967L7.53793 26.7985L7.49297 26.8492C7.22896 27.1151 7.07368 27.4699 7.05756 27.8442C7.05125 28.007 7.08384 28.1689 7.15263 28.3166C7.22142 28.4643 7.32444 28.5934 7.45312 28.6932ZM20.4734 26.7201C23.2634 26.6874 47.8022 26.1696 50.6439 26.1488C50.7847 26.3376 50.879 26.557 50.9189 26.7892C50.9588 27.0213 50.9433 27.2597 50.8736 27.4847L50.8769 27.5895C50.8859 27.8919 50.8706 28.0878 50.6376 28.2038C50.0906 28.2557 49.5409 28.2747 48.9917 28.2607L34.8523 28.5674L26.7664 28.7534C23.6031 28.8422 20.3818 28.8014 17.2688 28.762C17.247 28.7617 17.2253 28.7614 17.2035 28.7612C14.0703 28.7215 10.8086 28.4376 7.63473 28.5203C7.1927 27.998 7.26655 27.6277 7.69773 27.0139C11.9647 27.0064 16.2698 26.7837 20.4734 26.7201Z" fill="url(#paint1_linear_0_999)"/>
<path d="M20.4734 26.7201C23.2634 26.6874 47.8022 26.1696 50.6439 26.1488C50.7847 26.3376 50.879 26.557 50.9189 26.7892C50.9588 27.0213 50.9433 27.2597 50.8736 27.4847L50.8769 27.5895C50.8859 27.8919 50.8706 28.0878 50.6376 28.2038C50.0906 28.2557 49.5409 28.2747 48.9917 28.2607L34.8523 28.5674L26.7664 28.7534C23.6031 28.8422 20.3818 28.8014 17.2688 28.762L17.2035 28.7612C14.0703 28.7215 10.8086 28.4376 7.63473 28.5203C7.1927 27.998 7.26655 27.6277 7.69773 27.0139C11.9647 27.0064 16.2698 26.7837 20.4734 26.7201Z" fill="url(#paint2_linear_0_999)"/>
<path d="M7.45312 28.6932L8.67874 27.1131L8.73073 27.1534L8.77995 27.1971L7.45312 28.6932ZM7.50062 28.7354L7.62115 30.7319L6.79389 30.7816L6.17379 30.2315L7.50062 28.7354ZM7.57234 28.731L7.45181 26.7345L7.48556 26.7325L7.51937 26.7316L7.57234 28.731ZM26.747 28.9795L26.694 26.9801L26.7063 26.9798L26.7186 26.9796L26.747 28.9795ZM48.9789 28.4984L48.9871 26.4983L49.0176 26.4984L49.0481 26.4995L48.9789 28.4984ZM50.6881 28.4467L51.3905 30.3196L51.1427 30.4125L50.8793 30.4377L50.6881 28.4467ZM51.1479 27.6092L49.1912 28.0217L49.1537 27.8444L49.1488 27.6633L51.1479 27.6092ZM51.1454 27.5164L49.1463 27.5705L49.1371 27.2378L49.2363 26.9201L51.1454 27.5164ZM50.822 25.9671L52.1488 24.471L52.2469 24.5581L52.3329 24.6572L50.822 25.9671ZM50.7745 25.925L50.7408 23.9252L51.519 23.9123L52.1013 24.4289L50.7745 25.925ZM50.7056 25.9262L50.7393 27.926L50.7279 27.9262L50.7166 27.9262L50.7056 25.9262ZM20.4725 26.5042L20.4469 24.5042L20.4537 24.5041L20.4725 26.5042ZM7.61879 26.7967L7.57221 24.7971L7.59378 24.7966L7.61535 24.7965L7.61879 26.7967ZM7.53793 26.7985L6.04157 25.4711L6.6199 24.819L7.49135 24.7989L7.53793 26.7985ZM7.49297 26.8492L8.98933 28.1766L8.95188 28.2189L8.91212 28.2589L7.49297 26.8492ZM7.05756 27.8442L5.05916 27.766L5.05952 27.7575L7.05756 27.8442ZM20.4734 26.7201L20.4425 24.7202L20.4493 24.7201L20.4734 26.7201ZM50.6439 26.1488L50.6287 24.1488L51.6411 24.1413L52.2466 24.953L50.6439 26.1488ZM50.8736 27.4847L48.8747 27.5463L48.8643 27.212L48.9632 26.8925L50.8736 27.4847ZM50.8769 27.5895L52.8758 27.528L52.8758 27.5302L50.8769 27.5895ZM50.6376 28.2038L51.5292 29.9944L51.1969 30.1598L50.8272 30.1949L50.6376 28.2038ZM48.9917 28.2607L48.9477 26.261L48.9949 26.26L49.0421 26.2612L48.9917 28.2607ZM34.8523 28.5674L34.8057 26.5679L34.8083 26.5678L34.8523 28.5674ZM26.7664 28.7534L26.7097 26.7541L26.7199 26.7538L26.7664 28.7534ZM17.2035 28.7612L17.2282 26.7612L17.2282 26.7612L17.2035 28.7612ZM7.63473 28.5203L7.68744 30.5198L6.72831 30.5448L6.10837 29.8122L7.63473 28.5203ZM7.69773 27.0139L6.06122 25.8637L6.65704 25.0156L7.69363 25.0138L7.69773 27.0139ZM17.2688 28.762L17.2935 26.762L17.2935 26.762L17.2688 28.762ZM8.77995 27.1971L8.82745 27.2392L6.17379 30.2315L6.12629 30.1893L8.77995 27.1971ZM7.38009 26.7388L7.45181 26.7345L7.69287 30.7276L7.62115 30.7319L7.38009 26.7388ZM7.51937 26.7316C9.18511 26.688 10.8594 26.7436 12.4765 26.812C14.1144 26.8813 15.6717 26.9626 17.2021 26.9817L17.1532 30.9816C15.5445 30.9615 13.892 30.8757 12.3085 30.8086C10.7042 30.7407 9.14538 30.6907 7.62531 30.7305L7.51937 26.7316ZM17.2021 26.9817C20.3488 27.0211 23.5537 27.0624 26.694 26.9801L26.7999 30.979C23.5686 31.0636 20.2849 31.0209 17.1532 30.9816L17.2021 26.9817ZM26.7186 26.9796C26.7155 26.9797 26.7323 26.9793 26.7849 26.9782C26.8314 26.9773 26.898 26.9758 26.9833 26.974C27.1538 26.9704 27.3984 26.9651 27.7066 26.9584C28.323 26.945 29.1931 26.9261 30.2325 26.9035C32.3111 26.8582 35.067 26.798 37.822 26.738C43.2986 26.6187 48.8592 26.4977 48.9871 26.4983L48.9706 30.4985C48.9814 30.4985 48.6666 30.5047 48.0211 30.5184C47.4059 30.5314 46.5366 30.5501 45.4978 30.5725C43.4203 30.6173 40.6655 30.6773 37.9104 30.7373C32.4105 30.8571 26.8832 30.9779 26.7753 30.9794L26.7186 26.9796ZM49.0481 26.4995C49.5315 26.5164 50.0155 26.5018 50.4969 26.4557L50.8793 30.4377C50.2247 30.5004 49.5667 30.5203 48.9096 30.4973L49.0481 26.4995ZM49.9858 26.5738C49.7021 26.6801 49.466 26.8846 49.3202 27.1501L52.8263 29.0763C52.5118 29.6491 52.0024 30.0902 51.3905 30.3196L49.9858 26.5738ZM49.3202 27.1501C49.1744 27.4156 49.1285 27.7248 49.1912 28.0217L53.1047 27.1967C53.2397 27.8366 53.1408 28.5034 52.8263 29.0763L49.3202 27.1501ZM49.1488 27.6633L49.1463 27.5705L53.1445 27.4623L53.1471 27.5551L49.1488 27.6633ZM49.2363 26.9201C49.2173 26.9807 49.2142 27.0454 49.2272 27.1079L53.1426 26.2915C53.2688 26.8962 53.2385 27.5231 53.0545 28.1127L49.2363 26.9201ZM49.2272 27.1079C49.2403 27.1704 49.2691 27.2287 49.3111 27.2771L52.3329 24.6572C52.7376 25.1241 53.0163 25.6867 53.1426 26.2915L49.2272 27.1079ZM49.4952 27.4633L49.4477 27.4211L52.1013 24.4289L52.1488 24.471L49.4952 27.4633ZM50.8082 27.9248L50.7393 27.926L50.6719 23.9263L50.7408 23.9252L50.8082 27.9248ZM50.7166 27.9262C47.7929 27.9415 23.4667 28.4771 20.4913 28.5042L20.4537 24.5041C23.125 24.4798 47.9342 23.9405 50.6946 23.9261L50.7166 27.9262ZM20.4981 28.5041C16.4659 28.5545 11.8522 28.7908 7.62222 28.7968L7.61535 24.7965C11.9734 24.7904 16.0345 24.5593 20.4469 24.5042L20.4981 28.5041ZM7.66536 28.7962L7.5845 28.7981L7.49135 24.7989L7.57221 24.7971L7.66536 28.7962ZM9.03428 28.1259L8.98933 28.1766L5.99662 25.5218L6.04157 25.4711L9.03428 28.1259ZM8.91212 28.2589C8.99902 28.1714 9.05027 28.0545 9.0556 27.9308L5.05952 27.7575C5.09709 26.8853 5.4589 26.0587 6.07382 25.4395L8.91212 28.2589ZM9.05595 27.9223C9.06196 27.7674 9.03095 27.6131 8.96536 27.4723L5.33991 29.1609C5.13673 28.7248 5.04054 28.2466 5.05917 27.766L9.05595 27.9223ZM8.96536 27.4723C8.89976 27.3315 8.80151 27.2084 8.67874 27.1131L6.22751 30.2734C5.84736 29.9784 5.54308 29.597 5.33991 29.1609L8.96536 27.4723ZM20.4493 24.7201C23.1492 24.6885 47.8218 24.1693 50.6287 24.1488L50.6591 28.1489C47.7826 28.1699 23.3776 28.6863 20.4974 28.72L20.4493 24.7201ZM52.2466 24.953C52.5761 25.3946 52.7965 25.9079 52.8898 26.4508L48.9479 27.1276C48.9614 27.2061 48.9934 27.2806 49.0412 27.3447L52.2466 24.953ZM52.8898 26.4508C52.9832 26.9937 52.9469 27.5509 52.784 28.0769L48.9632 26.8925C48.9397 26.9685 48.9344 27.049 48.9479 27.1276L52.8898 26.4508ZM52.8725 27.4232L52.8758 27.528L48.8779 27.6511L48.8747 27.5463L52.8725 27.4232ZM52.8758 27.5302C52.8795 27.6506 52.9027 28.0995 52.7559 28.5666C52.5559 29.2033 52.1161 29.7022 51.5292 29.9944L49.7461 26.4131C49.6072 26.4823 49.4276 26.6009 49.2615 26.7931C49.093 26.988 48.9943 27.1938 48.9401 27.3665C48.8904 27.5245 48.8818 27.6427 48.8798 27.6751C48.878 27.7062 48.8797 27.7111 48.8779 27.6488L52.8758 27.5302ZM50.8272 30.1949C50.2004 30.2544 49.5706 30.2762 48.9412 30.2601L49.0421 26.2612C49.5113 26.2732 49.9808 26.257 50.448 26.2126L50.8272 30.1949ZM49.0356 30.2603L34.8963 30.5671L34.8083 26.5678L48.9477 26.261L49.0356 30.2603ZM34.8989 30.567L26.813 30.753L26.7199 26.7538L34.8057 26.5679L34.8989 30.567ZM17.1788 30.7611C13.7888 30.7182 10.8645 30.4369 7.68744 30.5198L7.58201 26.5209C10.7527 26.4382 14.3518 26.7248 17.2282 26.7612L17.1788 30.7611ZM6.10837 29.8122C5.70339 29.3337 5.2746 28.6096 5.34418 27.6553C5.40359 26.8406 5.81723 26.2111 6.06122 25.8637L9.33424 28.164C9.25886 28.2713 9.24562 28.3034 9.25416 28.2852C9.26562 28.2608 9.31938 28.1394 9.33337 27.9475C9.34864 27.738 9.30958 27.5426 9.2466 27.3897C9.192 27.2571 9.13778 27.2009 9.16109 27.2285L6.10837 29.8122ZM7.69363 25.0138C11.9881 25.0063 16.0952 24.786 20.4425 24.7202L20.5042 28.7199C16.4443 28.7814 11.9413 29.0066 7.70183 29.014L7.69363 25.0138ZM26.8232 30.7527C23.6123 30.8429 20.35 30.8013 17.2441 30.7619L17.2935 26.762C20.4135 26.8016 23.594 26.8416 26.7097 26.7541L26.8232 30.7527ZM17.2441 30.7619L17.1788 30.7611L17.2282 26.7612L17.2935 26.762L17.2441 30.7619ZM17.2441 30.7619C17.2223 30.7617 17.2006 30.7614 17.1788 30.7611L17.2282 26.7612C17.25 26.7615 17.2718 26.7618 17.2935 26.762L17.2441 30.7619Z" fill="url(#paint3_linear_0_999)"/>
<mask id="path-5-inside-1_0_999" fill="white">
<path d="M39.2072 1.01428L39.4144 0.828032C39.4979 0.95271 39.6071 1.058 39.7347 1.1368C39.8624 1.21559 40.0054 1.26605 40.1542 1.28478L40.0866 1.53023C39.911 1.51466 39.741 1.46031 39.589 1.3711C39.4369 1.28188 39.3066 1.16001 39.2072 1.01428Z"/>
</mask>
<path d="M39.2072 1.01428L39.4144 0.828032C39.4979 0.95271 39.6071 1.058 39.7347 1.1368C39.8624 1.21559 40.0054 1.26605 40.1542 1.28478L40.0866 1.53023C39.911 1.51466 39.741 1.46031 39.589 1.3711C39.4369 1.28188 39.3066 1.16001 39.2072 1.01428Z" fill="#4CD0C0"/>
<path d="M39.2072 1.01428L38.3808 1.57765L37.8886 0.855345L38.5388 0.270744L39.2072 1.01428ZM39.4144 0.828032L38.746 0.084495L39.6038 -0.686738L40.2454 0.271447L39.4144 0.828032ZM40.1542 1.28478L40.2795 0.292612L41.4251 0.436822L41.1183 1.55018L40.1542 1.28478ZM40.0866 1.53023L41.0506 1.79563L40.8289 2.60001L39.9979 2.52632L40.0866 1.53023ZM38.5388 0.270744L38.746 0.084495L40.0828 1.57157L39.8757 1.75782L38.5388 0.270744ZM40.2454 0.271447C40.2493 0.277325 40.2544 0.282218 40.2603 0.285846L39.2092 1.98774C38.9598 1.83378 38.7464 1.6281 38.5834 1.38462L40.2454 0.271447ZM40.2603 0.285846C40.2662 0.289468 40.2727 0.291762 40.2795 0.292612L40.029 2.27696C39.7381 2.24035 39.4586 2.14171 39.2092 1.98774L40.2603 0.285846ZM41.1183 1.55018L41.0506 1.79563L39.1225 1.26483L39.1902 1.01939L41.1183 1.55018ZM39.9979 2.52632C39.6749 2.49768 39.3623 2.39771 39.0827 2.23364L40.0953 0.508558C40.1198 0.522915 40.1471 0.531639 40.1752 0.534138L39.9979 2.52632ZM39.0827 2.23364C38.803 2.06956 38.5634 1.84549 38.3808 1.57765L40.0336 0.450913C40.0497 0.474535 40.0708 0.494201 40.0953 0.508558L39.0827 2.23364Z" fill="white" mask="url(#path-5-inside-1_0_999)"/>
<path d="M6.68044 31.4969L6.74814 31.4969L7.38287 30.9211L7.28132 30.8491C6.88323 30.5262 6.53903 30.142 6.2616 29.7108L6.18967 29.6177L5.56341 30.1978L5.5634 30.2656C5.59802 30.5604 5.72374 30.8371 5.92304 31.057C6.12215 31.2807 6.38752 31.4348 6.68044 31.4969V31.4969ZM6.10926 29.9945C6.35912 30.3672 6.65799 30.7045 6.99781 30.9974L6.72699 31.243C6.49842 31.1791 6.29291 31.0511 6.13471 30.8742C5.97652 30.6972 5.87225 30.4787 5.83421 30.2443L6.10926 29.9945Z" fill="#4CD0C0"/>
<path d="M15.9396 20.5964C15.9885 20.9971 16.1455 21.377 16.3937 21.6953C16.6419 22.0136 16.972 22.2583 17.3486 22.4033" stroke="white" stroke-width="1.8" stroke-linecap="round" stroke-linejoin="round"/>
<defs>
<linearGradient id="paint0_linear_0_999" x1="7.14878" y1="29.2401" x2="6.35626" y2="38.3575" gradientUnits="userSpaceOnUse">
<stop stop-color="#C01919"/>
<stop offset="0.289287" stop-color="#C82BB8"/>
<stop offset="0.476798" stop-color="#37A0CD"/>
<stop offset="0.711187" stop-color="#98FF74"/>
<stop offset="1" stop-color="#DA8E57"/>
</linearGradient>
<linearGradient id="paint1_linear_0_999" x1="12.3164" y1="24.9809" x2="33.1362" y2="8.7128" gradientUnits="userSpaceOnUse">
<stop stop-color="#925AED"/>
<stop offset="1" stop-color="#A473F4"/>
</linearGradient>
<linearGradient id="paint2_linear_0_999" x1="12.3164" y1="24.9809" x2="33.1362" y2="8.7128" gradientUnits="userSpaceOnUse">
<stop stop-color="#925AED"/>
<stop offset="1" stop-color="#A473F4"/>
</linearGradient>
<linearGradient id="paint3_linear_0_999" x1="12.3164" y1="24.9809" x2="33.1362" y2="8.7128" gradientUnits="userSpaceOnUse">
<stop stop-color="#925AED"/>
<stop offset="1" stop-color="#A473F4"/>
</linearGradient>
</defs>
</svg>
