<svg width="127" height="90" viewBox="0 0 127 90" fill="none" xmlns="http://www.w3.org/2000/svg">
<path fill-rule="evenodd" clip-rule="evenodd" d="M34.0403 30.7412L126.344 54.8651L38.0094 43.7785L24.3067 57.387L34.0403 30.7412Z" fill="#BEB58E"/>
<path d="M24.3067 57.387L41.9783 56.8156L38.0094 43.7785L24.3067 57.387Z" fill="#716B44"/>
<path d="M26.7168 6.83779L121.602 53.1094L34.4304 30.3263L26.7168 6.83779Z" fill="#EEECDB" stroke="#BEB58E"/>
<path d="M123.34 54.9928L46.8583 71.2422L38.7108 44.3703L123.34 54.9928Z" fill="#EEECDB" stroke="#BEB58E"/>
<path d="M86.5018 49.8691C85.8727 55.9871 78.197 61.2549 68.812 61.597C54.4406 62.1208 47.8988 53.4834 47.8988 45.0137L86.5018 49.8691Z" fill="#FFD84E"/>
<path d="M53.1687 60.6167L47.7754 67.4603" stroke="#FFCD4E" stroke-width="2" stroke-linecap="round"/>
<path d="M46.4269 49.324L41.5986 49.5454" stroke="#FFCD4E" stroke-width="2" stroke-linecap="round"/>
<path d="M99.0415 54.5596L90.2443 52.5614" stroke="#FFCD4E" stroke-width="2" stroke-linecap="round"/>
<path d="M70.162 62.8496L70.3044 65.2277" stroke="#FFCD4E" stroke-width="2" stroke-linecap="round"/>
<path d="M84.6813 58.1798L87.8012 61.392" stroke="#FFCD4E" stroke-width="2" stroke-linecap="round"/>
<path d="M46.1273 33.9014C51.199 29.335 58.7649 30.6457 65.9286 32.527C71.6911 34.0403 83.0975 39.4421 84.5278 43.9397L46.1273 33.9014Z" fill="#FFD84E"/>
<path d="M46.1273 44.7885C45.3154 42.9063 45.1862 37.186 46.1273 33.9014L84.5278 43.9397C84.9761 45.8999 84.885 48.4379 84.528 49.6109L46.1273 44.7885Z" fill="#C5992A"/>
<path d="M49.9322 28.7L44.3535 20.5161" stroke="#FFCD4E" stroke-width="2" stroke-linecap="round"/>
<path d="M88.2698 38.013L83.7983 39.6687" stroke="#FFCD4E" stroke-width="2" stroke-linecap="round"/>
<path d="M76.3393 32.1853L75.2093 33.8209" stroke="#FFCD4E" stroke-width="2" stroke-linecap="round"/>
<path d="M63.084 26.7083L63.1084 29.1641" stroke="#FFCD4E" stroke-width="2" stroke-linecap="round"/>
<path d="M35.4709 23.2067C36.2454 23.4422 35.6312 24.1899 34.8566 23.9545C34.205 23.5695 34.6964 22.9712 35.4709 23.2067Z" fill="#E0CAEF"/>
<path d="M50.8868 21.5414C51.2406 21.649 50.96 21.9905 50.6062 21.883C50.3085 21.7071 50.533 21.4338 50.8868 21.5414Z" fill="#E0CAEF"/>
<path d="M45.7772 54.8949C46.5517 55.1304 45.9374 55.8782 45.1629 55.6427C44.5113 55.2577 45.0027 54.6595 45.7772 54.8949Z" fill="#E0CAEF"/>
<path d="M41.5097 28.4106C41.7679 28.4891 41.7679 28.4891 41.5097 28.4106C42.1738 29.1732 40.5144 29.2294 40.3666 28.6237C40.3666 28.6237 40.4895 28.4742 40.2314 28.3957C39.9607 27.9396 41.4973 28.033 41.5097 28.4106Z" fill="#E0CAEF"/>
<path d="M102.831 45.4494C103.089 45.5279 103.089 45.5279 102.831 45.4494C103.495 46.212 101.836 46.2682 101.688 45.6626C101.688 45.6626 101.811 45.513 101.553 45.4345C101.282 44.9784 102.819 45.0718 102.831 45.4494Z" fill="#E0CAEF"/>
<path d="M107.451 54.2505C107.714 54.2378 107.714 54.2378 107.451 54.2505C108.541 54.9888 107.264 55.8415 106.701 55.0778C106.701 55.0778 106.688 54.8147 106.425 54.8274C105.874 54.3268 107.163 53.7371 107.451 54.2505Z" fill="#E0CAEF"/>
<path d="M37.7256 15.6799C37.9837 15.7584 37.9837 15.7584 37.7256 15.6799C38.3897 16.4425 36.7302 16.4987 36.5825 15.893C36.5825 15.893 36.7054 15.7435 36.4472 15.665C36.1766 15.2089 37.7131 15.3023 37.7256 15.6799Z" fill="#E0CAEF"/>
<path d="M96.8088 57.9073C97.5973 57.8691 97.6482 58.9213 96.8597 58.9594C96.0712 58.9976 96.0203 57.9454 96.8088 57.9073Z" fill="#E0CAEF"/>
<path d="M55.8074 23.4857C56.7923 23.438 56.8559 24.7524 55.8709 24.8C54.886 24.8477 54.8224 23.5333 55.8074 23.4857Z" fill="#E0CAEF"/>
<path d="M57.143 64.7015C57.9315 64.6633 57.9824 65.7155 57.1939 65.7536C56.4054 65.7918 56.3545 64.7396 57.143 64.7015Z" fill="#E0CAEF"/>
<path d="M90.4903 42.3871C91.2648 42.6226 90.7734 43.2208 89.9989 42.9853C89.2243 42.7499 89.7158 42.1517 90.4903 42.3871Z" fill="#E0CAEF"/>
</svg>
