<svg width="23" height="23" viewBox="0 0 23 23" fill="none" xmlns="http://www.w3.org/2000/svg">
<path d="M11.2243 22.0446C10.6333 22.045 10.1539 21.5668 10.1535 20.9766L10.1409 1.73825C10.1405 1.14801 10.6193 0.66921 11.2104 0.668823C11.8014 0.668437 12.2808 1.14661 12.2812 1.73685L12.2938 20.9752C12.2942 21.5654 11.8154 22.0442 11.2243 22.0446Z" fill="white"/>
<path d="M0.623657 11.4715C0.623271 10.8813 1.1021 10.4024 1.69315 10.4021L20.9564 10.3895C21.5475 10.3891 22.027 10.8673 22.0273 11.4575C22.0277 12.0478 21.5489 12.5266 20.9578 12.527L1.69455 12.5396C1.1035 12.54 0.624044 12.0618 0.623657 11.4715Z" fill="white"/>
</svg>
