<svg width="24" height="15" viewBox="0 0 24 15" fill="none" xmlns="http://www.w3.org/2000/svg">
<path fill-rule="evenodd" clip-rule="evenodd" d="M3.91007 0.0621014C3.91056 0.0962159 3.96483 0.632361 4.03067 1.25338C4.31994 3.98204 4.95672 5.95903 6.04051 7.49361C6.85902 8.65268 8.2779 9.83799 9.02602 9.98778C9.49462 10.0816 9.49024 10.1276 9.51771 4.82323L9.54268 0H11.4349H13.3272L13.3569 2.71178C13.3732 4.20321 13.4171 5.4888 13.4544 5.56845C13.6623 6.01211 14.9819 5.37279 16.1339 4.27036C17.0733 3.37138 17.8339 2.26249 18.4259 0.928793L18.8382 0H20.6455H22.4529L22.3967 0.35191C22.0841 2.3096 20.3865 5.00821 18.5213 6.5124C18.1506 6.81132 17.8193 7.10485 17.7849 7.16464C17.7418 7.2399 17.9964 7.48491 18.6121 7.96028C20.4371 9.36933 21.6502 10.7341 22.4381 12.2648C22.7705 12.9105 23.3482 14.3005 23.3482 14.4546C23.3482 14.4743 22.4366 14.4904 21.3223 14.4904H19.2965L18.8726 13.6417C18.3182 12.5315 17.889 11.9378 17.0845 11.1688C16.0851 10.2133 14.8661 9.58039 13.6907 9.40667L13.3392 9.35467V11.9619V14.5691L13.1117 14.5336C12.9865 14.5141 12.4189 14.4771 11.8502 14.4512C10.5429 14.392 9.44508 14.2119 8.51862 13.9047C7.66669 13.6223 6.33673 12.9725 5.63659 12.4966C2.3829 10.2849 0.471172 6.26499 0.0575752 0.765921L0 0H1.95458C3.0296 0 3.90957 0.0279868 3.91007 0.0621014Z" fill="#4478E5"/>
<path d="M3.91007 0.0621014C3.91056 0.0962159 3.96483 0.632361 4.03067 1.25338C4.31994 3.98204 4.95672 5.95903 6.04051 7.49361C6.85902 8.65268 8.2779 9.83799 9.02602 9.98778C9.49462 10.0816 9.49024 10.1276 9.51771 4.82323L9.54268 0H11.4349H13.3272L13.3569 2.71178C13.3732 4.20321 13.4171 5.4888 13.4544 5.56845C13.6623 6.01211 14.9819 5.37279 16.1339 4.27036C17.0733 3.37138 17.8339 2.26249 18.4259 0.928793L18.8382 0H20.6455H22.4529L22.3967 0.35191C22.0841 2.3096 20.3865 5.00821 18.5213 6.5124C18.1506 6.81132 17.8193 7.10485 17.7849 7.16464C17.7418 7.2399 17.9964 7.48491 18.6121 7.96028C20.4371 9.36933 21.6502 10.7341 22.4381 12.2648C22.7705 12.9105 23.3482 14.3005 23.3482 14.4546C23.3482 14.4743 22.4366 14.4904 21.3223 14.4904H19.2965L18.8726 13.6417C18.3182 12.5315 17.889 11.9378 17.0845 11.1688C16.0851 10.2133 14.8661 9.58039 13.6907 9.40667L13.3392 9.35467V11.9619V14.5691L13.1117 14.5336C12.9865 14.5141 12.4189 14.4771 11.8502 14.4512C10.5429 14.392 9.44508 14.2119 8.51862 13.9047C7.66669 13.6223 6.33673 12.9725 5.63659 12.4966C2.3829 10.2849 0.471172 6.26499 0.0575752 0.765921L0 0H1.95458C3.0296 0 3.90957 0.0279868 3.91007 0.0621014Z" fill="white"/>
</svg>
