<svg width="66" height="91" viewBox="0 0 66 91" fill="none" xmlns="http://www.w3.org/2000/svg">
<path d="M57.782 19.6312L56.8826 20.9927L49.6751 17.5171L48.785 17.0872C48.7707 15.9658 48.6899 14.8463 48.543 13.7344V13.7344C48.2659 11.7432 47.8514 11.0932 47.8514 11.0932C47.8514 11.0932 41.8185 4.3365 33.5285 4.3365C25.2384 4.3365 19.2121 11.0932 19.2121 11.0932C19.2121 11.0932 18.7981 11.7432 18.5229 13.7344C18.3745 14.846 18.2948 15.9657 18.2842 17.0872L10.1852 20.9927L9.28445 19.6312L16.2943 16.0481C16.2927 12.7875 16.8032 10.8935 17.0688 10.2025C17.103 10.0993 17.144 9.99838 17.1914 9.90052C18.3873 8.10898 20.8156 6.1997 23.7709 4.73576C26.6623 3.26459 29.8321 2.42205 33.0723 2.26343L33.5019 2.26343C40.0992 2.26343 47.4246 6.32255 49.8197 9.90564C49.8197 9.90564 50.7463 11.8303 50.7228 16.0481L57.7309 19.6312H57.782Z" fill="white"/>
<path d="M56.883 21.2485C56.8476 21.2555 56.8111 21.2555 56.7756 21.2485L48.6729 17.3378C48.6321 17.3167 48.5974 17.2853 48.5723 17.2467C48.5472 17.2081 48.5325 17.1637 48.5296 17.1177C48.5195 16.0066 48.4404 14.8971 48.2928 13.7957V13.7957C48.2184 12.9263 48.0002 12.0752 47.6472 11.2773C47.289 10.8883 41.3996 4.62298 33.5494 4.62298C25.6992 4.62298 19.8107 10.8934 19.458 11.2773C19.1066 12.0755 18.8893 12.9264 18.8148 13.7957V13.7957C18.6734 14.8976 18.5954 16.0068 18.5811 17.1177C18.5805 17.1642 18.5668 17.2096 18.5414 17.2485C18.5161 17.2875 18.4803 17.3184 18.438 17.3378L10.3442 21.2485C10.2888 21.274 10.2262 21.2792 10.1674 21.2633C10.1085 21.2474 10.057 21.2114 10.0219 21.1615L9.12121 19.7948C9.09713 19.7564 9.08434 19.7121 9.08432 19.6668C9.0843 19.6215 9.09704 19.5772 9.12108 19.5389C9.14726 19.4879 9.19077 19.4479 9.24377 19.4262L16.1053 15.8943C16.0402 13.9374 16.3055 11.9836 16.8901 10.1153C16.9667 9.90547 17.0178 9.79798 17.0229 9.78775C17.0215 9.77756 17.0214 9.76722 17.0229 9.75703C18.2545 7.9143 20.688 5.99991 23.6995 4.51037C26.6235 3.02048 29.8305 2.16907 33.1084 2.01245H33.5379C40.2273 2.01245 47.6141 6.10741 50.0706 9.76215L50.0706 9.79286C50.1116 9.87476 51.0023 11.7738 50.9992 15.8995L57.8641 19.4314C57.9162 19.4545 57.9593 19.494 57.9869 19.544C58.0093 19.5829 58.0212 19.627 58.0212 19.6719C58.0212 19.7169 58.0094 19.761 57.987 19.7999L57.0876 21.1666C57.062 21.1949 57.0302 21.2171 56.9948 21.2313C56.9593 21.2455 56.9211 21.2513 56.883 21.2485ZM9.69395 19.7129L10.3183 20.6547L18.0696 16.9437C18.0886 15.8668 18.1684 14.7919 18.3085 13.724V13.724C18.5888 11.6765 19.018 11.006 19.0385 10.9753L19.0384 10.9446C19.0998 10.8729 25.2335 4.106 33.5236 4.106C41.8136 4.106 47.9488 10.878 48.0102 10.9446L48.0357 10.9753C48.0358 11.006 48.4861 11.697 48.7684 13.724C48.9104 14.79 48.9894 15.8633 49.0052 16.9386L56.7702 20.6803L57.3937 19.7385L50.626 16.2578C50.5857 16.2357 50.552 16.2031 50.5286 16.1635C50.5052 16.1238 50.4928 16.0786 50.4929 16.0326C50.5166 12.1014 49.7026 10.1921 49.6207 10.0078C47.2255 6.42476 40.0383 2.49873 33.5228 2.49361H33.1035C29.8966 2.64349 26.7587 3.47586 23.8992 4.93523C21.0154 6.36334 18.5974 8.25214 17.4219 9.99761C17.4219 10.0283 17.3708 10.1153 17.3198 10.2638C17.0848 10.9139 16.5385 12.7822 16.5605 16.0223C16.5613 16.0691 16.5488 16.1152 16.5244 16.1551C16.4999 16.195 16.4646 16.2271 16.4225 16.2475L9.69395 19.7129Z" fill="#5A5A5C"/>
<path d="M12.414 17.4198C13.524 17.4198 14.4234 16.5191 14.4229 15.4081C14.4224 14.2971 13.5221 13.3965 12.4121 13.3965C11.3021 13.3965 10.4027 14.2971 10.4032 15.4081C10.4037 16.5191 11.304 17.4198 12.414 17.4198Z" fill="white"/>
<path d="M12.4139 17.7578C11.9496 17.7578 11.4957 17.62 11.1095 17.3618C10.7234 17.1037 10.4223 16.7367 10.2445 16.3074C10.0666 15.8781 10.0199 15.4057 10.1102 14.95C10.2006 14.4942 10.424 14.0756 10.7521 13.747C11.0802 13.4184 11.4984 13.1946 11.9537 13.104C12.409 13.0133 12.881 13.0599 13.31 13.2377C13.739 13.4155 14.1058 13.7166 14.3639 14.103C14.622 14.4894 14.7599 14.9436 14.7601 15.4083C14.7591 16.031 14.5116 16.6278 14.0719 17.0682C13.6322 17.5085 13.036 17.7564 12.4139 17.7578V17.7578ZM12.4119 13.7294C12.0802 13.7294 11.7559 13.8279 11.4801 14.0123C11.2044 14.1968 10.9895 14.459 10.8627 14.7658C10.7359 15.0726 10.7028 15.4102 10.7677 15.7359C10.8326 16.0615 10.9925 16.3607 11.2272 16.5955C11.4619 16.8303 11.7609 16.9902 12.0863 17.055C12.4117 17.1198 12.749 17.0865 13.0554 16.9594C13.3619 16.8324 13.6237 16.6172 13.8079 16.3411C13.9921 16.065 14.0903 15.7404 14.0902 15.4083C14.09 14.963 13.913 14.536 13.5983 14.2211C13.2836 13.9063 12.8568 13.7294 12.4119 13.7294V13.7294Z" fill="#5A5A5C"/>
<path d="M11.3581 14.0925C11.4674 14.0189 11.5918 13.9707 11.7222 13.9514C11.8525 13.9321 11.9856 13.9422 12.1115 13.981C12.2375 14.0198 12.3533 14.0862 12.4504 14.1754C12.5474 14.2647 12.6234 14.3745 12.6726 14.4969C13.0156 15.147 11.4972 16.2628 11.4972 16.2628C11.4972 16.2628 12.8323 16.9129 13.6194 15.8329C14.4064 14.7528 13.2705 13.5858 13.2705 13.5858C13.2705 13.5858 12.2015 13.0995 11.4499 13.6369C10.6984 14.1744 11.3581 14.0925 11.3581 14.0925Z" fill="#5A5A5C"/>
<path d="M55.1729 17.9369C56.2829 17.9369 57.1823 17.0362 57.1818 15.9252C57.1812 14.8142 56.2809 13.9136 55.1709 13.9136C54.0609 13.9136 53.1615 14.8142 53.162 15.9252C53.1626 17.0362 54.0628 17.9369 55.1729 17.9369Z" fill="white"/>
<path d="M55.1737 18.2746C54.7096 18.2746 54.2559 18.137 53.8699 17.879C53.4839 17.6211 53.1828 17.2545 53.0048 16.8254C52.8268 16.3964 52.7798 15.9243 52.8697 15.4687C52.9596 15.0131 53.1825 14.5944 53.5101 14.2656C53.8378 13.9369 54.2554 13.7127 54.7104 13.6215C55.1654 13.5302 55.6372 13.576 56.0663 13.7531C56.4954 13.9301 56.8625 14.2304 57.1213 14.6161C57.38 15.0018 57.5187 15.4556 57.52 15.92C57.5203 16.5436 57.2734 17.1418 56.8335 17.5832C56.3937 18.0246 55.7967 18.2733 55.1737 18.2746V18.2746ZM55.1718 14.2462C54.8398 14.2462 54.5153 14.3448 54.2394 14.5295C53.9636 14.7143 53.7487 14.9768 53.622 15.2839C53.4954 15.5909 53.4626 15.9288 53.5279 16.2546C53.5932 16.5804 53.7536 16.8796 53.9888 17.1142C54.2241 17.3488 54.5235 17.5083 54.8493 17.5725C55.175 17.6367 55.5124 17.6027 55.8188 17.4748C56.1252 17.347 56.3867 17.131 56.5702 16.8542C56.7538 16.5774 56.8512 16.2523 56.85 15.92C56.8471 15.4761 56.6692 15.0511 56.3549 14.7377C56.0406 14.4242 55.6154 14.2476 55.1718 14.2462V14.2462Z" fill="#5A5A5C"/>
<path d="M54.1181 14.6099C54.2278 14.5364 54.3525 14.4885 54.4831 14.4695C54.6137 14.4506 54.7469 14.4611 54.8729 14.5004C54.999 14.5396 55.1147 14.6066 55.2115 14.6964C55.3084 14.7862 55.3839 14.8966 55.4326 15.0194C55.7756 15.6694 54.2572 16.7802 54.2572 16.7802C54.2572 16.7802 55.5923 17.4303 56.3845 16.3553C57.1767 15.2804 56.0357 14.1082 56.0357 14.1082C56.0357 14.1082 54.9615 13.5964 54.2099 14.1543C53.4584 14.7122 54.1181 14.6099 54.1181 14.6099Z" fill="#5A5A5C"/>
<path d="M18.5175 11.0468C18.4968 10.9983 18.4633 10.9564 18.4207 10.9254C18.3781 10.8944 18.3279 10.8755 18.2754 10.8708C18.223 10.8661 18.1703 10.8757 18.1228 10.8985C18.0754 10.9214 18.035 10.9567 18.0061 11.0007C17.4184 12.0705 17.819 15.6434 17.2824 16.4573C16.6794 17.3786 9.57689 19.5592 9.3519 19.6308L10.2526 20.9924L18.3516 17.0869C18.3623 15.9654 18.442 14.8457 18.5904 13.7341C18.7035 12.84 18.6789 11.9336 18.5175 11.0468V11.0468ZM18.3103 16.3702C18.2339 16.8463 18.0397 17.2148 17.8709 17.1841C17.7021 17.1534 17.6252 16.749 17.6966 16.273C17.768 15.7969 17.9673 15.4284 18.136 15.454C18.3048 15.4796 18.3817 15.8891 18.3103 16.3702V16.3702Z" fill="#5A5A5C"/>
<path d="M18.3322 10.2589C18.3325 10.7707 20.6537 9.48083 21.8756 8.72326C22.8654 7.96012 23.9133 7.27555 25.0096 6.67578C26.6313 5.84635 28.3368 5.19257 30.0973 4.72556C30.0973 4.72556 30.5778 4.37237 30.1841 4.44915C28.4773 4.79369 26.8001 5.27118 25.1678 5.87727C22.6674 6.86006 18.3268 9.64974 18.3322 10.2589Z" fill="#5A5A5C"/>
<path d="M49.8704 9.87513C48.6728 8.08358 46.2376 6.17431 43.286 4.71036C40.3917 3.2385 37.2192 2.39595 33.9771 2.23804L33.1179 2.23804C29.8776 2.39666 26.7078 3.2392 23.8164 4.71036C20.8611 6.17431 18.4328 8.08358 17.237 9.87513C17.1895 9.97299 17.1486 10.0739 17.1144 10.1771L17.3088 10.3768C17.7278 9.5117 25.309 3.15428 33.1183 3.15428L33.9775 3.15428C41.7868 3.15428 49.3793 9.5117 49.799 10.3768L49.9933 10.1771C49.9165 9.97238 49.8704 9.87513 49.8704 9.87513Z" fill="#5A5A5C"/>
<path d="M53.7932 18.9453C52.4954 18.4027 51.2548 17.7322 50.0896 16.9438C50.0135 16.8815 49.9518 16.8035 49.9085 16.7152C49.8652 16.6269 49.8414 16.5303 49.8387 16.432C49.7701 14.7465 49.5675 13.0691 49.2329 11.4157C49.1982 11.2627 49.13 11.1193 49.0332 10.9959C47.0735 8.51856 44.4592 6.64056 41.4873 5.57523C36.5973 3.93725 33.5494 4.08057 33.5494 4.08057L33.5495 4.33139C41.8191 4.33139 47.8724 11.0881 47.8724 11.0881C47.8724 11.0881 48.2869 11.7381 48.564 13.7293C48.7109 14.8411 48.7917 15.9607 48.806 17.0821L48.9901 17.1639C48.8849 16.8019 48.8195 16.4294 48.7953 16.0532C48.7335 15.2342 48.7943 13.9494 48.9733 13.9341C49.1522 13.9187 49.3931 14.9015 49.4447 15.9815C49.4841 16.4248 49.4585 16.8715 49.3687 17.3073L49.6858 17.4455L49.6858 17.4915L56.8933 20.9671C56.8933 20.9671 57.0977 20.4962 53.7932 18.9453Z" fill="#5A5A5C"/>
<path d="M27.9514 22.3595C25.989 25.4307 23.3511 27.5396 19.8132 29.7919C19.3019 30.1246 18.7344 30.4675 18.1618 30.8156C17.7937 31.0408 17.4205 31.2507 17.0472 31.4503C13.6675 33.2698 9.91031 34.2758 6.07365 34.3884C5.99035 34.3904 5.90895 34.3633 5.84347 34.3117C5.78041 34.2684 5.73358 34.2054 5.71042 34.1325V34.1325C4.65552 31.22 5.1241 27.2172 7.35233 23.9668C8.38372 22.4591 9.73909 21.2017 11.3192 20.2864C13.2487 19.1543 15.4057 18.4654 17.6342 18.2697C17.9564 18.239 18.2734 18.2236 18.5905 18.2185C22.3698 18.1315 25.8686 19.5084 27.9154 21.9142C27.9661 21.975 27.9966 22.0502 28.0024 22.1292C28.0111 22.2095 27.9932 22.2904 27.9514 22.3595V22.3595Z" fill="#5A5A5C"/>
<path d="M6.11534 34.9769L6.07442 34.9769C5.86645 34.9776 5.66375 34.9112 5.49643 34.7875C5.38391 34.7035 5.28986 34.5972 5.22012 34.4752V34.4752L5.17403 34.3473L5.14331 34.2654C4.01154 31.0252 4.68463 26.8893 6.86684 23.685L6.86682 23.639L6.90772 23.598C7.98294 22.0407 9.39017 20.7417 11.0279 19.7948C13.0344 18.6224 15.2741 17.906 17.5884 17.6962C17.9412 17.6706 18.2685 17.6501 18.5805 17.645C22.549 17.5528 26.2064 19.0117 28.3658 21.5505C28.4998 21.7013 28.5808 21.8919 28.5961 22.0931C28.6117 22.3067 28.5599 22.5197 28.4481 22.7023C26.404 25.9322 23.6434 28.0769 20.131 30.3086C19.6198 30.6362 19.0727 30.9741 18.4694 31.3324C18.0962 31.5627 17.7076 31.7828 17.319 31.9876C13.8667 33.8394 10.0313 34.8627 6.11534 34.9769ZM7.79794 24.3505C5.84059 27.2323 5.244 30.9178 6.21195 33.7996C9.90353 33.6672 13.5148 32.6864 16.7662 30.9331C17.1343 30.7386 17.5024 30.5287 17.8603 30.3138C18.4534 29.9503 18.9902 29.6176 19.5015 29.29C22.8298 27.1709 25.4524 25.1439 27.3739 22.1648C25.4346 19.9689 22.166 18.7097 18.6117 18.7865C18.3151 18.7865 18.0185 18.7865 17.6912 18.8376C15.5501 19.0306 13.4778 19.6929 11.6216 20.7776C10.1194 21.6445 8.82898 22.8352 7.84393 24.2635L7.81838 24.3198L7.79794 24.3505Z" fill="#5A5A5C"/>
<path d="M5.70705 34.1273C5.70705 34.1273 13.7778 24.7805 26.6131 22.0625C26.6131 22.0625 19.8591 15.1932 10.6665 20.7009C10.6665 20.6856 3.39659 25.7992 5.70705 34.1273Z" fill="#5A5A5C"/>
<path d="M26.0384 22.2881C26.0384 22.2881 23.5553 27.2327 20.5492 29.316C17.543 31.3994 9.89319 33.324 6.87562 32.8582C8.77111 30.8358 10.9597 29.1103 13.3682 27.7395C17.259 25.5692 22.6738 23.2197 22.6738 23.2197C22.2575 24.7252 21.6168 26.1592 20.7733 27.4733C20.7733 27.4733 23.6462 24.7246 24.351 22.6822L26.0384 22.2881Z" fill="#5A5A5C"/>
<path d="M6.31533 34.6493L5.26668 34.1374C6.46226 31.7623 10.3424 28.6348 15.6495 25.7632C19.6836 23.5878 25.0779 21.3304 28.1261 21.5505L28.0448 22.7227C25.7382 22.5589 21.0902 24.1611 16.2075 26.8177C11.1969 29.4999 7.40362 32.5148 6.31533 34.6493Z" fill="#5A5A5C"/>
<path d="M19.8297 29.8174L17.4292 25.5688C16.9895 25.7941 14.8727 26.8588 14.433 27.1301L17.1303 31.5987L19.8297 29.8174Z" fill="white"/>
<path d="M16.947 32.4227L13.6304 26.9406L14.1161 26.6335C14.4586 26.4134 15.6499 25.8043 16.7594 25.2463L17.1634 25.0467L17.6747 24.7856L20.6331 30.0067L16.947 32.4227ZM15.2467 27.345L17.3195 30.7643L19.0527 29.6228L17.1947 26.3417C16.6629 26.613 15.8091 27.0481 15.2467 27.345Z" fill="#5A5A5C"/>
<path d="M17.3881 26.0091C17.2898 26.2342 17.2162 26.4693 17.1686 26.7104C17.1153 26.9644 17.0931 27.2239 17.1024 27.4833C17.1042 27.7534 17.1335 28.0227 17.1898 28.2869C17.2427 28.5606 17.3233 28.8281 17.4305 29.0854C17.2379 28.8723 17.0665 28.6408 16.9188 28.3944C16.7658 28.142 16.6356 27.8765 16.5297 27.601C16.4196 27.3134 16.3405 27.0148 16.294 26.7104C16.245 26.3921 16.2294 26.0695 16.2476 25.748L17.3881 26.0091Z" fill="#5A5A5C"/>
<path d="M18.581 18.2085C18.264 18.2085 17.9469 18.2085 17.6247 18.2597C15.7808 18.8522 14.0719 19.8028 12.5957 21.057C11.1194 22.3112 9.90471 23.8445 9.02107 25.5691L7.52782 25.7483C7.61399 24.8404 7.96983 23.9793 8.54948 23.276C9.48483 22.1499 7.45021 23.8697 7.35308 23.9568C5.4367 26.9461 6.36968 31.558 6.45673 31.7884C7.15179 30.8158 9.07392 29.142 11.6353 27.4375C11.2668 26.813 10.5859 25.39 11.7108 24.8781C12.3141 24.6171 12.4939 26.3114 12.305 26.9819C14.563 25.5232 16.9609 24.2937 19.4631 23.3118C19.0537 22.7334 17.4927 20.3583 18.1573 19.7287C18.8985 19.0479 20.3664 19.3653 21.2259 19.9539C21.937 20.4658 22.761 21.7813 23.0323 22.2113C24.6301 21.8289 26.28 21.7114 27.9161 21.8632C25.8744 19.5035 22.3757 18.1215 18.581 18.2085ZM13.004 23.5319C12.8097 23.5319 12.651 23.2145 12.6508 22.8204C12.6506 22.4263 12.809 22.1089 13.0033 22.1089C13.1977 22.1089 13.3513 22.4263 13.3515 22.8204C13.3516 23.2145 13.2086 23.5319 13.0194 23.5319L13.004 23.5319Z" fill="#5A5A5C"/>
<path d="M14.6316 78.2659L11.3273 87.9556L13.2099 89.0868L19.3842 81.6596L14.6316 78.2659Z" fill="#5A5A5C"/>
<path d="M13.3385 89.8492L10.617 88.2112L14.3298 77.3442L20.2387 81.5672L13.3385 89.8492ZM12.0385 87.6942L13.0616 88.3238L18.5102 81.7719L14.929 79.2126L12.0385 87.6942Z" fill="#5A5A5C"/>
<path d="M12.5091 88.6667C12.5091 88.6667 15.2313 80.9272 16.3873 81.3675C17.5433 81.8077 12.7342 88.7998 12.7342 88.7998L12.5091 88.6667Z" fill="white"/>
<path d="M14.0796 79.9038C14.9594 80.2263 15.0214 81.5725 13.79 83.8759C12.5586 86.1793 11.3269 87.9709 11.3269 87.9709L14.0796 79.9038Z" fill="white"/>
<path d="M13.3385 89.8492L10.617 88.2112L14.3298 77.3442L20.2387 81.5672L13.3385 89.8492ZM12.0385 87.6942L13.0616 88.3238L18.5102 81.7719L14.929 79.2126L12.0385 87.6942Z" fill="#5A5A5C"/>
<path d="M13.6548 81.5425L13.0305 82.5393L16.7869 84.8971L17.4112 83.9003L13.6548 81.5425Z" fill="#5A5A5C"/>
<path d="M52.5382 78.2656L55.8517 87.9553L53.9753 89.0865L47.7939 81.6593L52.5382 78.2656Z" fill="#5A5A5C"/>
<path d="M53.8475 89.8494L46.9343 81.552L52.8392 77.3445L56.5624 88.2268L53.8475 89.8494ZM48.6477 81.7721L54.1025 88.3241L55.125 87.6945L52.2212 79.2026L48.6477 81.7721Z" fill="#5A5A5C"/>
<path d="M54.6698 88.667C54.6698 88.667 51.9403 80.9275 50.7898 81.3677C49.6393 81.8079 54.45 88.8 54.45 88.8L54.6698 88.667Z" fill="white"/>
<path d="M53.0961 79.9036C52.2116 80.226 52.1508 81.5723 53.3896 83.8757C54.6283 86.1791 55.8514 87.9706 55.8514 87.9706L53.0961 79.9036Z" fill="white"/>
<path d="M53.8475 89.8494L46.9343 81.552L52.8392 77.3445L56.5624 88.2268L53.8475 89.8494ZM48.6477 81.7721L54.1025 88.3241L55.125 87.6945L52.2212 79.2026L48.6477 81.7721Z" fill="#5A5A5C"/>
<path d="M53.5181 81.5395L49.7643 83.8979L50.3897 84.8947L54.1435 82.5362L53.5181 81.5395Z" fill="#5A5A5C"/>
<path d="M34.7336 22.6511L32.3862 22.6511L32.388 26.485L34.7354 26.485L34.7336 22.6511Z" fill="#5A5A5C"/>
<path d="M35.3185 27.0739L31.7999 27.0739L31.7975 22.0627L35.3161 22.0627L35.3185 27.0739ZM32.9705 25.8966L34.1468 25.8966L34.1455 23.24L32.9693 23.24L32.9705 25.8966Z" fill="#5A5A5C"/>
<path d="M37.5724 20.8338C37.5737 21.1145 37.509 21.3915 37.3836 21.6426C37.2968 21.8193 37.181 21.9802 37.0412 22.1186C36.8718 22.2848 36.6712 22.4156 36.4509 22.5035C36.2305 22.5914 35.9949 22.6345 35.7578 22.6305L31.3698 22.6305C30.9636 22.6309 30.569 22.4949 30.249 22.2443C29.929 21.9938 29.7022 21.6431 29.6048 21.2484C29.5695 21.1061 29.5522 20.9599 29.5534 20.8133C29.5527 20.6185 29.5837 20.4249 29.6452 20.2401V20.2401C29.7319 19.9719 29.8807 19.7281 30.0796 19.5286C30.4256 19.1959 30.8882 19.0122 31.3681 19.0167L35.7611 19.0167C35.9346 19.0156 36.1071 19.0415 36.2726 19.0935C36.648 19.2041 36.9775 19.4335 37.2119 19.7472C37.4462 20.0609 37.5727 20.4422 37.5724 20.8338V20.8338Z" fill="#5A5A5C"/>
<path d="M37.0845 19.5902C36.9764 19.4729 36.8438 19.3809 36.6962 19.3208C36.5485 19.2606 36.3895 19.2338 36.2303 19.2421L36.266 19.0937C36.1005 19.0417 35.928 19.0158 35.7546 19.0169L31.3666 19.0169C30.8867 19.0124 30.4242 19.1961 30.0781 19.5288C29.8792 19.7283 29.7304 19.9721 29.6437 20.2403C30.1576 19.9423 30.7488 19.805 31.3414 19.8462L35.6885 19.8462C35.7035 20.1394 35.8299 20.4159 36.0417 20.6191C36.0951 20.7294 36.1738 20.8255 36.2715 20.8994C36.3693 20.9732 36.4831 21.0228 36.6037 21.044C36.7243 21.0652 36.8482 21.0574 36.9652 21.0212C37.0821 20.985 37.1888 20.9215 37.2764 20.836C37.364 20.7504 37.43 20.6452 37.4689 20.529C37.5079 20.4129 37.5187 20.2891 37.5005 20.1679C37.4822 20.0467 37.4355 19.9316 37.364 19.8321C37.2926 19.7325 37.1986 19.6514 37.0896 19.5953L37.0845 19.5902Z" fill="white"/>
<path d="M37.3823 21.6428C37.2955 21.8195 37.1798 21.9804 37.0399 22.1189C36.8706 22.2851 36.6699 22.4159 36.4496 22.5038C36.2293 22.5916 35.9937 22.6348 35.7565 22.6307L31.3686 22.6307C30.9624 22.6311 30.5678 22.4951 30.2478 22.2446C29.9278 21.9941 29.701 21.6434 29.6035 21.2487L30.0689 21.2487C30.1454 20.7931 31.0607 20.573 32.1143 20.7368C33.0196 20.8904 33.7256 21.2947 33.8587 21.6889C35.0323 21.7807 36.2117 21.7652 37.3823 21.6428Z" fill="white"/>
<path d="M35.7578 23.2398L31.3698 23.2398C30.8315 23.2404 30.3085 23.0602 29.8846 22.7279C29.4606 22.3956 29.1603 21.9306 29.0318 21.4073C28.9869 21.2195 28.9645 21.0271 28.965 20.834C28.9641 20.5765 29.0054 20.3205 29.0874 20.0764L29.1385 19.9382C29.3158 19.4917 29.6231 19.109 30.0206 18.8397C30.4181 18.5704 30.8874 18.4271 31.3675 18.4282L35.7606 18.4282C35.9929 18.4281 36.2238 18.4626 36.446 18.5306C36.9412 18.6797 37.3755 18.984 37.6851 19.3987C37.9946 19.8134 38.163 20.3165 38.1654 20.834C38.166 21.2075 38.0785 21.5757 37.9102 21.9089C37.7946 22.1414 37.6428 22.3539 37.4605 22.5385C37.2367 22.7617 36.9711 22.9385 36.679 23.0589C36.3868 23.1792 36.0738 23.2407 35.7578 23.2398ZM30.1718 20.5269C30.1454 20.6306 30.1317 20.7372 30.1311 20.8443C30.1329 20.9442 30.145 21.0436 30.167 21.1411C30.2373 21.4062 30.3935 21.6404 30.6111 21.8072C30.8287 21.9739 31.0953 22.0637 31.3693 22.0625L35.7623 22.0625C35.9913 22.0622 36.2156 21.9978 36.4098 21.8766C36.6041 21.7554 36.7605 21.5822 36.8616 21.3766C36.9485 21.209 36.994 21.0229 36.9943 20.834C36.9931 20.5693 36.907 20.3119 36.7485 20.0999C36.59 19.8879 36.3675 19.7325 36.1141 19.6567C36.0015 19.6218 35.8842 19.6046 35.7663 19.6055L31.3681 19.6055C31.2067 19.6046 31.0467 19.6358 30.8975 19.6973C30.7483 19.7588 30.6128 19.8494 30.4989 19.9638C30.3629 20.096 30.2611 20.2594 30.2025 20.4399L30.1718 20.5269Z" fill="#5A5A5C"/>
<path d="M53.1995 41.6297L52.1251 42.4119L52.2243 42.5484L53.2987 41.7662L53.1995 41.6297Z" fill="#5A5A5C"/>
<path d="M33.5867 82.5961C48.2486 82.5961 60.1287 70.6998 60.1217 56.025C60.1147 41.3502 48.2232 29.4539 33.5614 29.4539C18.8995 29.4539 7.01945 41.3502 7.02646 56.025C7.03346 70.6998 18.9249 82.5961 33.5867 82.5961Z" fill="white"/>
<path d="M50.1149 58.7354C51.6084 49.5906 45.4117 40.962 36.2744 39.4629C27.137 37.9637 18.519 44.1617 17.0255 53.3065C15.5321 62.4512 21.7287 71.0798 30.8661 72.579C40.0034 74.0781 48.6214 67.8801 50.1149 58.7354Z" fill="#FF946E"/>
<path d="M33.5864 83.185C28.218 83.1861 22.9692 81.5936 18.5037 78.6091C14.0382 75.6245 10.5566 71.382 8.49942 66.4181C6.44219 61.4541 5.90168 55.9917 6.94623 50.7218C7.99079 45.4518 10.5735 40.611 14.3677 36.8117C18.1619 33.0123 22.9972 30.425 28.262 29.377C33.5268 28.329 38.9846 28.8673 43.9451 30.924C48.9056 32.9807 53.1461 36.4633 56.1301 40.9313C59.1141 45.3993 60.7076 50.6521 60.7092 56.0253C60.7045 63.226 57.8463 70.1295 52.7615 75.2211C47.6768 80.3128 40.7808 83.1769 33.5864 83.185V83.185ZM33.5611 30.0377C28.4258 30.0377 23.4065 31.5618 19.138 34.4174C14.8695 37.2729 11.5435 41.3316 9.58057 46.0802C7.61764 50.8288 7.10595 56.0541 8.1102 61.0952C9.11446 66.1363 11.5896 70.7668 15.2225 74.4013C18.8554 78.0357 23.4831 80.5108 28.5202 81.5135C33.5573 82.5163 38.7777 82.0016 43.5211 80.0347C48.2646 78.0677 52.3181 74.7368 55.1691 70.4632C58.0201 66.1896 59.5405 61.1651 59.538 56.0253C59.5266 49.1354 56.7853 42.5301 51.9155 37.6582C47.0456 32.7864 40.4448 30.0458 33.5611 30.0377V30.0377Z" fill="#5A5A5C"/>
<path d="M33.5597 26.4851C27.7226 26.4861 22.0178 28.2195 17.1665 31.466C12.3152 34.7125 8.53532 39.3264 6.30485 44.7242C4.07438 50.122 3.49347 56.0613 4.63557 61.7912C5.77768 67.521 8.59152 72.7841 12.7213 76.9148C16.851 81.0455 22.1112 83.8584 27.8368 84.9978C33.5623 86.1372 39.496 85.5519 44.8876 83.316C50.2791 81.08 54.8865 77.2938 58.1269 72.4361C61.3674 67.5784 63.0955 61.8673 63.0927 56.0251C63.0909 52.1454 62.3255 48.3037 60.8402 44.7194C59.355 41.1352 57.179 37.8785 54.4366 35.1354C51.6941 32.3922 48.4389 30.2165 44.8568 28.7322C41.2747 27.248 37.4359 26.4844 33.5597 26.4851V26.4851ZM33.5865 82.5962C28.3346 82.5962 23.2 81.0374 18.8319 78.1169C14.4638 75.1965 11.0585 71.0455 9.04665 66.1891C7.03477 61.3326 6.50669 55.9887 7.52919 50.8333C8.55169 45.6779 11.0788 40.9425 14.791 37.2259C18.5032 33.5094 23.2337 30.9786 28.3843 29.9537C33.5349 28.9289 38.8742 29.4559 43.7269 31.4682C48.5797 33.4805 52.7279 36.8876 55.647 41.2587C58.5661 45.6298 60.125 50.7686 60.1265 56.0251C60.1282 59.5149 59.443 62.9705 58.11 66.1946C56.7771 69.4187 54.8226 72.3481 52.358 74.8155C49.8935 77.2829 46.9673 79.2401 43.7464 80.5751C40.5255 81.9101 37.0732 82.5969 33.5865 82.5962V82.5962Z" fill="#5A5A5C"/>
<path d="M12.5724 73.1316L12.9767 73.6435C13.1199 73.8124 13.2632 73.9711 13.4065 74.1553C13.5498 74.3396 13.6982 74.4778 13.8465 74.6365L14.0666 74.8719L14.3019 75.0972C14.9113 75.7052 15.5535 76.2794 16.2257 76.817L16.7373 77.2163C16.901 77.3494 17.08 77.4722 17.2489 77.6002C17.5916 77.8613 17.9498 78.1121 18.3027 78.3373C18.4767 78.4601 18.6608 78.5728 18.8399 78.6854L19.3822 79.0283C19.7505 79.2433 20.1239 79.4583 20.4922 79.663C23.4772 81.3013 26.7394 82.3721 30.1135 82.8213C30.5329 82.8725 30.9523 82.9339 31.3716 82.9544C31.791 82.9748 32.2155 83.0311 32.64 83.026L33.2741 83.026C33.4889 83.026 33.6986 83.026 33.9134 83.026L35.1817 82.9851C36.8807 82.8771 38.5674 82.6254 40.2239 82.2326L40.8477 82.0842C41.0574 82.033 41.2619 81.9869 41.4665 81.9204L42.6988 81.5621C43.113 81.4392 43.5118 81.2857 43.9209 81.1475L44.5294 80.9376L45.1276 80.697C45.5316 80.5383 45.9355 80.3848 46.3343 80.221C46.7332 80.0572 47.1218 79.8575 47.5155 79.7091L48.1137 79.4429L48.6915 79.1512L49.8674 78.5779C49.5147 78.8338 49.1517 79.0897 48.7938 79.3252L48.2519 79.6938L47.6946 80.0367L46.5647 80.7073C46.1761 80.9171 45.7876 81.1116 45.399 81.3164L44.811 81.6184L44.2077 81.8845C43.8037 82.0586 43.4049 82.248 42.9958 82.3964L41.7584 82.8571C41.5539 82.939 41.3391 83.0004 41.1295 83.067L40.4954 83.2564C38.7938 83.7718 37.0447 84.1148 35.2744 84.2801C34.8294 84.3159 34.3845 84.3313 33.9396 84.3569C33.7197 84.3569 33.4947 84.3569 33.2748 84.3569L32.6048 84.3569C32.1599 84.3569 31.7149 84.3159 31.27 84.2903C30.825 84.2647 30.3801 84.2084 29.9402 84.1573C24.6118 83.4602 19.6505 81.0578 15.7963 77.3084C15.1562 76.6776 14.558 76.0057 14.0054 75.2968C13.4633 74.6199 12.9837 73.8952 12.5724 73.1316V73.1316Z" fill="#5A5A5C"/>
<path d="M39.4315 28.5837C41.8861 29.2031 44.2822 30.0354 46.5925 31.0714C47.7535 31.6055 48.878 32.216 49.9585 32.8988C53.2303 34.9778 55.9389 37.8333 57.8434 41.2116C59.0932 43.4586 60.0695 45.8473 60.7516 48.3265L60.9975 49.253C61.0795 49.5653 61.141 49.8775 61.2179 50.1897C61.3614 50.8091 61.4947 51.4438 61.5972 52.0785C61.6536 52.3959 61.6896 52.7184 61.7358 53.0357C61.782 53.3531 61.8128 53.6756 61.8334 53.998C61.89 54.6379 61.921 55.2828 61.9213 55.9278C61.9334 58.5081 61.5288 61.0732 60.7231 63.5239C60.3198 64.7406 59.8246 65.9247 59.2417 67.0661C58.6597 68.2052 58.0007 69.3032 57.2692 70.3523C56.5393 71.3945 55.7401 72.3863 54.8772 73.3211C54.0205 74.2496 53.0887 75.1056 52.0912 75.8805C52.5615 75.4607 53.0011 75.0052 53.4304 74.5394C53.8598 74.0736 54.2687 73.6026 54.6674 73.1112C55.4607 72.1337 56.1929 71.108 56.8599 70.04C58.2019 67.9281 59.2504 65.6429 59.9763 63.2475C60.155 62.6538 60.3081 62.0497 60.4357 61.4406C60.5632 60.8315 60.6857 60.2224 60.7672 59.6081C60.9387 58.3789 61.0133 57.1381 60.9905 55.8971C60.9678 54.6567 60.8527 53.4196 60.6461 52.1963C60.5435 51.5871 60.4154 50.9831 60.2668 50.374C60.195 50.0669 60.1284 49.7598 60.0464 49.4629L59.8005 48.5569C59.1518 46.1492 58.2256 43.8251 57.0407 41.6313C56.4365 40.5445 55.7522 39.5042 54.9935 38.5191C54.2359 37.5343 53.4045 36.6086 52.5067 35.7499C50.6705 34.043 48.604 32.6025 46.3677 31.4707C44.1251 30.3489 41.8075 29.3843 39.4315 28.5837V28.5837Z" fill="#5A5A5C"/>
<path d="M5.62854 63.5497C5.33652 62.4799 5.08029 61.3948 4.88032 60.2994C4.66414 59.1997 4.52518 58.0862 4.46448 56.9671C4.36285 54.7195 4.5335 52.4679 4.9727 50.2616C5.8722 45.8097 7.8107 41.6343 10.63 38.076C13.4493 34.5177 17.0695 31.6774 21.1953 29.7868C22.2189 29.3199 23.2689 28.9132 24.3399 28.5686C25.4112 28.2334 26.5004 27.9582 27.6023 27.7445C29.7927 27.332 32.0257 27.1928 34.2505 27.3299C32.0508 27.4693 29.8702 27.8259 27.7407 28.3946C26.6838 28.6755 25.6441 29.0173 24.6267 29.4183C23.6134 29.7949 22.6216 30.2273 21.656 30.7133C17.7809 32.6939 14.3756 35.4833 11.6698 38.8935C8.96386 42.3036 7.02027 46.2552 5.97006 50.4817C5.44588 52.6044 5.14524 54.7764 5.07307 56.962C5.05343 58.0609 5.10006 59.16 5.21272 60.2533C5.3053 61.3538 5.46947 62.4492 5.62854 63.5497Z" fill="#5A5A5C"/>
<path d="M6.62783 48.7791L4.42116 50.9048L5.23703 51.7532L7.44371 49.6276L6.62783 48.7791Z" fill="#5A5A5C"/>
<path d="M6.91046 49.8418L5.46932 52.0377L4.74789 51.3365L6.91046 49.8418Z" fill="#5A5A5C"/>
<path d="M33.5877 86.1486C27.6339 86.1486 21.8129 84.3815 16.861 81.0707C11.9091 77.7599 8.04858 73.0541 5.76776 67.5485C3.48693 62.043 2.88823 55.9848 4.04734 50.1403C5.20646 44.2958 8.07134 38.9274 12.2797 34.714C16.488 30.5007 21.8508 27.6316 27.6897 26.4697C33.5287 25.3077 39.5817 25.9051 45.0831 28.1862C50.5845 30.4674 55.2873 34.3299 58.5967 39.2851C61.906 44.2404 63.6734 50.066 63.6753 56.0251C63.6696 64.0123 60.4986 71.6696 54.858 77.317C49.2174 82.9643 41.5678 86.1405 33.5877 86.1486V86.1486ZM33.5595 27.0738C27.8385 27.0738 22.2469 28.7718 17.4916 31.953C12.7363 35.1342 9.03098 39.6558 6.84418 44.9459C4.65739 50.2361 4.08734 56.0572 5.20612 61.6732C6.3249 67.2892 9.08227 72.4479 13.1295 76.4968C17.1768 80.5457 22.3322 83.303 27.9437 84.4201C33.5553 85.5372 39.371 84.9639 44.6555 82.7726C49.9399 80.5814 54.4557 76.8706 57.6318 72.1096C60.8079 67.3486 62.5017 61.7511 62.499 56.0251C62.4872 48.3492 59.4336 40.9901 54.0081 35.5624C48.5827 30.1347 41.2286 27.0819 33.5595 27.0738V27.0738Z" fill="#5A5A5C"/>
<path d="M35.8807 56.0251C35.8809 56.4817 35.7458 56.928 35.4926 57.3076C35.2393 57.6873 34.8792 57.9832 34.4579 58.1579C34.0365 58.3326 33.5728 58.3783 33.1253 58.2893C32.6779 58.2002 32.2668 57.9803 31.944 57.6575C31.6213 57.3346 31.4015 56.9233 31.3123 56.4755C31.223 56.0277 31.2685 55.5635 31.4429 55.1417C31.6172 54.7198 31.9127 54.3593 32.2919 54.1056C32.6711 53.852 33.1169 53.7166 33.5731 53.7166C33.8762 53.7159 34.1764 53.7751 34.4566 53.8909C34.7368 54.0067 34.9914 54.1767 35.2059 54.3912C35.4203 54.6057 35.5903 54.8605 35.7061 55.1409C35.8219 55.4212 35.8812 55.7217 35.8807 56.0251Z" fill="#5A5A5C"/>
<path d="M33.5657 39.4663L31.6155 46.4584L33.4049 56.0253L33.5736 56.0253L33.7424 56.0253L35.5278 46.4584L33.5657 39.4663Z" fill="#5A5A5C"/>
<path d="M32.2948 57.4944L22.5967 64.7322L20.1028 68.4433L23.9782 66.0528L32.5251 57.7657L32.2948 57.4944Z" fill="#5A5A5C"/>
<path d="M33.7222 54.5764C33.9791 54.5648 34.2327 54.6386 34.4434 54.7862C34.6685 54.9363 34.8461 55.1476 34.9551 55.3954C35.0552 55.6363 35.0923 55.8988 35.0629 56.158C35.0394 56.4144 34.9316 56.6556 34.7563 56.8439C34.7428 56.617 34.7136 56.3912 34.6691 56.1683C34.6263 55.9706 34.5663 55.7771 34.4898 55.5899C34.4153 55.4073 34.3172 55.2352 34.1981 55.078C34.0518 54.8995 33.8927 54.7318 33.7222 54.5764V54.5764Z" fill="white"/>
<path d="M33.5631 32.7339C33.8002 32.7339 33.9924 32.5416 33.9923 32.3045C33.9922 32.0673 33.7998 31.875 33.5627 31.875C33.3255 31.875 33.1333 32.0673 33.1334 32.3045C33.1335 32.5416 33.3259 32.7339 33.5631 32.7339Z" fill="#5A5A5C"/>
<path d="M45.6952 35.5035C45.6962 35.5896 45.6716 35.6741 45.6245 35.7463C45.5774 35.8184 45.5099 35.8749 45.4307 35.9086C45.3514 35.9423 45.2638 35.9516 45.1792 35.9354C45.0945 35.9192 45.0166 35.8782 44.9553 35.8177C44.894 35.7571 44.852 35.6797 44.8348 35.5953C44.8176 35.5108 44.8258 35.4232 44.8585 35.3435C44.8912 35.2638 44.9469 35.1956 45.0185 35.1476C45.09 35.0996 45.1742 35.074 45.2604 35.074C45.3172 35.0733 45.3736 35.0839 45.4263 35.1052C45.479 35.1265 45.527 35.158 45.5674 35.198C45.6079 35.2379 45.64 35.2855 45.6619 35.3379C45.6838 35.3904 45.6951 35.4466 45.6952 35.5035Z" fill="#5A5A5C"/>
<path d="M22.1078 35.2888C22.1362 35.3377 22.1546 35.3918 22.162 35.4479C22.1694 35.5041 22.1656 35.5611 22.1509 35.6157C22.1362 35.6703 22.1109 35.7215 22.0763 35.7663C22.0418 35.8111 21.9987 35.8486 21.9496 35.8767C21.876 35.9188 21.7915 35.9382 21.7069 35.9324C21.6222 35.9265 21.5412 35.8957 21.474 35.8439C21.4068 35.7921 21.3565 35.7215 21.3293 35.6411C21.3022 35.5607 21.2995 35.4741 21.3215 35.3921C21.3436 35.3102 21.3894 35.2367 21.4532 35.1808C21.517 35.1249 21.5959 35.0892 21.6801 35.0781C21.7642 35.0671 21.8497 35.0812 21.9258 35.1187C22.0019 35.1562 22.0653 35.2153 22.1078 35.2888Z" fill="#5A5A5C"/>
<path d="M13.3107 43.827C13.3637 43.8529 13.4108 43.8894 13.4491 43.9343C13.4874 43.9791 13.5161 44.0314 13.5333 44.0878C13.5505 44.1442 13.5559 44.2035 13.5492 44.2621C13.5425 44.3207 13.5238 44.3773 13.4943 44.4283C13.4647 44.4793 13.425 44.5237 13.3776 44.5587C13.3301 44.5937 13.2759 44.6186 13.2185 44.6317C13.161 44.6448 13.1014 44.646 13.0434 44.6351C12.9855 44.6242 12.9304 44.6015 12.8816 44.5684C12.8285 44.5425 12.7814 44.506 12.7431 44.4612C12.7048 44.4163 12.6761 44.364 12.6589 44.3076C12.6417 44.2512 12.6363 44.1919 12.643 44.1333C12.6497 44.0747 12.6684 44.0181 12.6979 43.9671C12.7275 43.9161 12.7672 43.8717 12.8147 43.8367C12.8621 43.8017 12.9163 43.7769 12.9738 43.7637C13.0312 43.7506 13.0908 43.7494 13.1488 43.7603C13.2067 43.7712 13.2618 43.7939 13.3107 43.827V43.827Z" fill="#5A5A5C"/>
<path d="M9.95539 55.6208C10.0693 55.6208 10.1785 55.6661 10.2591 55.7466C10.3397 55.8272 10.385 55.9364 10.3851 56.0503C10.3851 56.1642 10.3399 56.2734 10.2594 56.354C10.1789 56.4345 10.0697 56.4798 9.9558 56.4798C9.8419 56.4798 9.73264 56.4345 9.65206 56.354C9.57148 56.2734 9.52618 56.1642 9.52613 56.0503C9.52608 55.9364 9.57127 55.8272 9.65177 55.7466C9.73227 55.6661 9.84149 55.6208 9.95539 55.6208Z" fill="#5A5A5C"/>
<path d="M12.9481 67.5166C13.0218 67.4745 13.1062 67.4551 13.1909 67.461C13.2755 67.4668 13.3565 67.4976 13.4237 67.5494C13.4909 67.6013 13.5413 67.6719 13.5684 67.7523C13.5955 67.8327 13.5982 67.9193 13.5762 68.0012C13.5542 68.0831 13.5083 68.1567 13.4445 68.2125C13.3807 68.2684 13.3018 68.3042 13.2177 68.3152C13.1336 68.3263 13.048 68.3122 12.9719 68.2747C12.8958 68.2372 12.8325 68.178 12.7899 68.1046C12.734 68.0053 12.7192 67.8881 12.7488 67.7782C12.7784 67.6682 12.85 67.5743 12.9481 67.5166V67.5166Z" fill="#5A5A5C"/>
<path d="M21.4773 76.3206C21.535 76.2224 21.6289 76.1508 21.7388 76.1212C21.8487 76.0915 21.9659 76.1062 22.0652 76.1621C22.1386 76.2046 22.1979 76.2679 22.2354 76.3441C22.2729 76.4202 22.2871 76.5057 22.276 76.5898C22.265 76.6739 22.2293 76.7529 22.1735 76.8167C22.1176 76.8805 22.0441 76.9264 21.9622 76.9485C21.8803 76.9706 21.7937 76.9679 21.7133 76.9408C21.6328 76.9137 21.5622 76.8634 21.5104 76.7962C21.4585 76.729 21.4277 76.648 21.4218 76.5634C21.4159 76.4787 21.4352 76.3943 21.4773 76.3206V76.3206Z" fill="#5A5A5C"/>
<path d="M33.6976 80.1179C33.9348 80.1179 34.1269 79.9257 34.1268 79.6885C34.1267 79.4513 33.9343 79.259 33.6972 79.259C33.46 79.259 33.2678 79.4513 33.2679 79.6885C33.268 79.9257 33.4604 80.1179 33.6976 80.1179Z" fill="#5A5A5C"/>
<path d="M45.1514 76.6988C45.1093 76.6252 45.0899 76.5407 45.0957 76.456C45.1015 76.3714 45.1322 76.2904 45.184 76.2232C45.2359 76.156 45.3064 76.1057 45.3868 76.0786C45.4672 76.0515 45.5538 76.0489 45.6357 76.071C45.7177 76.093 45.7912 76.1389 45.8471 76.2027C45.9031 76.2666 45.9388 76.3455 45.9499 76.4296C45.961 76.5138 45.9469 76.5993 45.9095 76.6754C45.872 76.7515 45.8129 76.8148 45.7395 76.8573C45.6905 76.8856 45.6364 76.904 45.5803 76.9114C45.5242 76.9188 45.4672 76.915 45.4126 76.9003C45.3579 76.8855 45.3067 76.8602 45.2619 76.8256C45.2171 76.791 45.1796 76.7479 45.1514 76.6988V76.6988Z" fill="#5A5A5C"/>
<path d="M53.9493 68.1657C53.8758 68.1231 53.8166 68.0598 53.7791 67.9837C53.7416 67.9076 53.7274 67.8221 53.7384 67.738C53.7494 67.6539 53.7851 67.5749 53.841 67.5111C53.8969 67.4472 53.9704 67.4014 54.0523 67.3793C54.1342 67.3572 54.2208 67.3599 54.3012 67.387C54.3816 67.4141 54.4522 67.4644 54.5041 67.5316C54.556 67.5987 54.5868 67.6797 54.5927 67.7644C54.5986 67.849 54.5793 67.9335 54.5372 68.0072C54.4795 68.1053 54.3856 68.177 54.2757 68.2066C54.1657 68.2362 54.0485 68.2215 53.9493 68.1657V68.1657Z" fill="#5A5A5C"/>
<path d="M57.303 56.357C57.1891 56.357 57.0799 56.3117 56.9993 56.2312C56.9187 56.1506 56.8734 56.0414 56.8734 55.9275C56.8733 55.8136 56.9185 55.7044 56.999 55.6238C57.0795 55.5433 57.1887 55.498 57.3026 55.498C57.4165 55.498 57.5258 55.5433 57.6064 55.6238C57.6869 55.7044 57.7322 55.8136 57.7323 55.9275C57.7323 56.0414 57.6871 56.1506 57.6066 56.2312C57.5261 56.3117 57.4169 56.357 57.303 56.357Z" fill="#5A5A5C"/>
<path d="M54.311 44.4712C54.2374 44.5133 54.1529 44.5327 54.0682 44.5268C53.9836 44.521 53.9026 44.4902 53.8354 44.4384C53.7682 44.3865 53.7179 44.316 53.6907 44.2356C53.6636 44.1552 53.6609 44.0685 53.6829 43.9866C53.705 43.9047 53.7508 43.8312 53.8146 43.7753C53.8784 43.7194 53.9573 43.6837 54.0415 43.6726C54.1256 43.6616 54.2111 43.6757 54.2872 43.7131C54.3633 43.7506 54.4267 43.8098 54.4692 43.8833C54.4976 43.9322 54.516 43.9863 54.5234 44.0424C54.5308 44.0985 54.527 44.1555 54.5123 44.2102C54.4976 44.2648 54.4723 44.316 54.4377 44.3608C54.4032 44.4056 54.3601 44.4431 54.311 44.4712Z" fill="#5A5A5C"/>
<path d="M31.1911 31.7857L30.8555 31.821L30.995 33.1431L31.3305 33.1077L31.1911 31.7857Z" fill="#5A5A5C"/>
<path d="M28.6702 32.1644L28.3402 32.2346L28.6169 33.5349L28.9469 33.4647L28.6702 32.1644Z" fill="#5A5A5C"/>
<path d="M26.204 32.8107L25.8832 32.915L26.2942 34.1794L26.6151 34.075L26.204 32.8107Z" fill="#5A5A5C"/>
<path d="M23.8249 33.7054L23.5167 33.8428L24.0576 35.0573L24.3657 34.92L23.8249 33.7054Z" fill="#5A5A5C"/>
<path d="M19.4008 36.2132L19.128 36.4116L19.9094 37.4874L20.1822 37.2889L19.4008 36.2132Z" fill="#5A5A5C"/>
<path d="M17.411 37.808L17.1605 38.0339L18.05 39.0222L18.3005 38.7963L17.411 37.808Z" fill="#5A5A5C"/>
<path d="M15.6057 39.6086L15.3801 39.8594L16.3678 40.7494L16.5934 40.4986L15.6057 39.6086Z" fill="#5A5A5C"/>
<path d="M13.9833 41.5721L13.7852 41.8452L14.8607 42.627L15.0588 42.3539L13.9833 41.5721Z" fill="#5A5A5C"/>
<path d="M11.4176 45.9725L11.2806 46.2808L12.4949 46.822L12.632 46.5138L11.4176 45.9725Z" fill="#5A5A5C"/>
<path d="M10.4889 48.3373L10.3848 48.6582L11.6491 49.0693L11.7532 48.7484L10.4889 48.3373Z" fill="#5A5A5C"/>
<path d="M9.80605 50.7908L9.73611 51.1208L11.0364 51.3975L11.1064 51.0674L9.80605 50.7908Z" fill="#5A5A5C"/>
<path d="M9.39249 53.2999L9.35741 53.6355L10.6795 53.7746L10.7145 53.439L9.39249 53.2999Z" fill="#5A5A5C"/>
<path d="M10.6908 58.2643L9.36891 58.4033L9.40431 58.7389L10.7262 58.5998L10.6908 58.2643Z" fill="#5A5A5C"/>
<path d="M11.3741 60.5856L10.0716 60.865L10.1426 61.1957L11.4451 60.9163L11.3741 60.5856Z" fill="#5A5A5C"/>
<path d="M11.6566 62.9719L10.3926 63.3826L10.4968 63.7035L11.7609 63.2929L11.6566 62.9719Z" fill="#5A5A5C"/>
<path d="M12.5012 65.2345L11.2876 65.7764L11.4252 66.0846L12.6387 65.5427L12.5012 65.2345Z" fill="#5A5A5C"/>
<path d="M14.8764 69.4185L13.8019 70.2007L14.0004 70.4737L15.0748 69.6915L14.8764 69.4185Z" fill="#5A5A5C"/>
<path d="M16.3777 71.3075L15.3903 72.197L15.616 72.448L16.6034 71.5584L16.3777 71.3075Z" fill="#5A5A5C"/>
<path d="M18.0713 73.0127L17.1831 74.0012L17.4339 74.227L18.3221 73.2385L18.0713 73.0127Z" fill="#5A5A5C"/>
<path d="M19.9268 74.5422L19.146 75.6177L19.4189 75.8162L20.1997 74.7408L19.9268 74.5422Z" fill="#5A5A5C"/>
<path d="M24.0717 76.9747L23.5325 78.1895L23.8408 78.3267L24.3801 77.112L24.0717 76.9747Z" fill="#5A5A5C"/>
<path d="M26.3223 77.8769L25.9129 79.1414L26.2339 79.2456L26.6433 77.9811L26.3223 77.8769Z" fill="#5A5A5C"/>
<path d="M28.6403 78.5054L28.3647 79.8057L28.6948 79.8759L28.9703 78.5756L28.6403 78.5054Z" fill="#5A5A5C"/>
<path d="M31.0178 78.8987L30.8797 80.2207L31.2153 80.256L31.3534 78.934L31.0178 78.8987Z" fill="#5A5A5C"/>
<path d="M36.1551 78.911L35.8195 78.9463L35.959 80.2683L36.2945 80.233L36.1551 78.911Z" fill="#5A5A5C"/>
<path d="M38.527 78.515L38.197 78.5852L38.4738 79.8855L38.8038 79.8153L38.527 78.515Z" fill="#5A5A5C"/>
<path d="M40.8535 77.8622L40.5326 77.9666L40.9437 79.2309L41.2645 79.1265L40.8535 77.8622Z" fill="#5A5A5C"/>
<path d="M43.0898 76.995L42.7817 77.1323L43.3225 78.3469L43.6306 78.2095L43.0898 76.995Z" fill="#5A5A5C"/>
<path d="M47.2407 74.5525L46.9679 74.751L47.7493 75.8267L48.0221 75.6283L47.2407 74.5525Z" fill="#5A5A5C"/>
<path d="M49.0979 73.0045L48.8474 73.2305L49.737 74.2185L49.9875 73.9926L49.0979 73.0045Z" fill="#5A5A5C"/>
<path d="M50.7908 71.3141L50.5653 71.5649L51.5532 72.4548L51.7787 72.204L50.7908 71.3141Z" fill="#5A5A5C"/>
<path d="M52.2956 69.4252L52.0976 69.6982L53.173 70.48L53.3711 70.207L52.2956 69.4252Z" fill="#5A5A5C"/>
<path d="M54.6644 65.233L54.5274 65.5413L55.7419 66.0823L55.8789 65.774L54.6644 65.233Z" fill="#5A5A5C"/>
<path d="M55.5095 62.9798L55.4054 63.3008L56.6697 63.7119L56.7738 63.3909L55.5095 62.9798Z" fill="#5A5A5C"/>
<path d="M56.1144 60.6533L56.0445 60.9834L57.3448 61.26L57.4147 60.9299L56.1144 60.6533Z" fill="#5A5A5C"/>
<path d="M56.4742 58.2682L56.4391 58.6038L57.7612 58.7428L57.7963 58.4072L56.4742 58.2682Z" fill="#5A5A5C"/>
<path d="M57.7497 53.3062L56.4277 53.4453L56.4631 53.7809L57.7851 53.6418L57.7497 53.3062Z" fill="#5A5A5C"/>
<path d="M57.7274 50.6281L56.4249 50.9075L56.4959 51.2382L57.7984 50.9588L57.7274 50.6281Z" fill="#5A5A5C"/>
<path d="M56.6558 48.3376L55.3917 48.7483L55.4959 49.0693L56.76 48.6586L56.6558 48.3376Z" fill="#5A5A5C"/>
<path d="M55.7275 45.9532L54.514 46.4951L54.6515 46.8033L55.865 46.2614L55.7275 45.9532Z" fill="#5A5A5C"/>
<path d="M51.5367 39.6049L50.5495 40.4946L50.7753 40.7455L51.7625 39.8558L51.5367 39.6049Z" fill="#5A5A5C"/>
<path d="M49.7244 37.824L48.8359 38.8123L49.0866 39.0382L49.9752 38.0499L49.7244 37.824Z" fill="#5A5A5C"/>
<path d="M47.7291 36.2236L46.9484 37.2991L47.2213 37.4976L48.002 36.4222L47.7291 36.2236Z" fill="#5A5A5C"/>
<path d="M43.3166 33.7194L42.776 34.9336L43.0842 35.0712L43.6248 33.857L43.3166 33.7194Z" fill="#5A5A5C"/>
<path d="M40.9243 32.8155L40.5152 34.0801L40.8361 34.1843L41.2453 32.9197L40.9243 32.8155Z" fill="#5A5A5C"/>
<path d="M38.4566 32.1712L38.1811 33.4714L38.5112 33.5417L38.7867 32.2414L38.4566 32.1712Z" fill="#5A5A5C"/>
<path d="M35.944 31.7927L35.8058 33.1147L36.1414 33.15L36.2796 31.828L35.944 31.7927Z" fill="#5A5A5C"/>
<path d="M34.7076 74.7854L34.7079 75.4303C34.5305 75.3284 34.3293 75.2754 34.1248 75.2768C34.0041 75.274 33.8845 75.2993 33.7753 75.3509C33.6661 75.4024 33.5705 75.4787 33.4959 75.5736C33.3272 75.8048 33.2409 76.086 33.2508 76.3722V76.3722C33.3308 76.2518 33.4408 76.1545 33.5699 76.0898C33.6991 76.0252 33.8429 75.9955 33.9871 76.0036C34.1186 75.9978 34.2497 76.0215 34.3709 76.0728C34.4922 76.1242 34.6004 76.202 34.6879 76.3005C34.8658 76.5256 34.9567 76.8072 34.9439 77.0939C34.9492 77.2562 34.9216 77.4179 34.8628 77.5692C34.804 77.7205 34.7152 77.8583 34.6017 77.9743C34.4882 78.09 34.3518 78.1806 34.2012 78.2406C34.0507 78.3005 33.8893 78.3284 33.7274 78.3224C33.5505 78.3298 33.3744 78.2952 33.2134 78.2213C33.0525 78.1475 32.9113 78.0365 32.8015 77.8975C32.5608 77.5424 32.4437 77.1178 32.4685 76.6895C32.4415 76.1685 32.5928 75.6539 32.8974 75.2307C33.0346 75.054 33.2119 74.9126 33.4146 74.8182C33.6174 74.7238 33.8397 74.6792 34.0632 74.6881C34.2824 74.6757 34.5018 74.7088 34.7076 74.7854V74.7854ZM33.7368 76.5769C33.6729 76.5743 33.6093 76.5863 33.5508 76.612C33.4923 76.6377 33.4405 76.6765 33.3993 76.7253C33.3119 76.8337 33.2666 76.97 33.2716 77.1092C33.2687 77.2663 33.3153 77.4203 33.4048 77.5494C33.4409 77.6059 33.491 77.652 33.5501 77.6834C33.6093 77.7148 33.6755 77.7304 33.7424 77.7286C33.8073 77.7312 33.8718 77.7182 33.9305 77.6906C33.9893 77.663 34.0405 77.6216 34.0799 77.5699C34.1665 77.4439 34.2095 77.2928 34.2024 77.14C34.2022 76.7714 34.0487 76.582 33.7368 76.582L33.7368 76.5769Z" fill="#5A5A5C"/>
<path d="M53.0439 57.7603L53.0436 57.0846C53.2822 57.2595 53.5715 57.3512 53.8671 57.3457C54.0319 57.3539 54.195 57.309 54.3324 57.2177C54.3859 57.1751 54.4286 57.1204 54.457 57.0582C54.4854 56.9959 54.4987 56.9278 54.4959 56.8594C54.4974 56.786 54.4792 56.7136 54.4432 56.6497C54.4072 56.5857 54.3547 56.5327 54.2912 56.496C54.1185 56.4035 53.9241 56.3593 53.7285 56.368L53.4115 56.368L53.4112 55.7742L53.7027 55.7742C54.163 55.7742 54.3879 55.6258 54.3878 55.3187C54.3876 55.0116 54.2137 54.8887 53.8762 54.8887C53.6295 54.893 53.3902 54.9734 53.191 55.1191L53.1907 54.4843C53.4607 54.3571 53.7564 54.2941 54.0549 54.3001C54.3536 54.2827 54.6494 54.3676 54.8937 54.5406C54.99 54.6156 55.0674 54.712 55.1198 54.8222C55.1723 54.9324 55.1983 55.0534 55.1957 55.1754C55.2082 55.3806 55.1431 55.5829 55.0134 55.7422C54.8837 55.9015 54.6988 56.0061 54.4955 56.0353V56.0353C54.7179 56.0514 54.9269 56.1478 55.0838 56.3066C55.1541 56.3791 55.2093 56.4649 55.2462 56.5589C55.2831 56.6529 55.301 56.7533 55.2988 56.8543C55.3053 57.0031 55.2763 57.1514 55.2141 57.2867C55.1519 57.422 55.0583 57.5405 54.9412 57.6323C54.6529 57.8427 54.3003 57.9459 53.9441 57.9241C53.6353 57.9426 53.3265 57.8864 53.0439 57.7603V57.7603Z" fill="#5A5A5C"/>
<path d="M11.9109 57.8013L11.9106 57.1615C12.1086 57.2886 12.3404 57.3529 12.5755 57.3458C12.6947 57.3522 12.8137 57.3305 12.9229 57.2825C13.0321 57.2345 13.1286 57.1615 13.2044 57.0694C13.3669 56.8419 13.4463 56.5654 13.4291 56.2862V56.2862C13.3517 56.4001 13.2458 56.4917 13.122 56.5519C12.9982 56.6121 12.8608 56.6387 12.7235 56.6291C12.5894 56.6337 12.4559 56.6091 12.3323 56.557C12.2086 56.5048 12.0978 56.4264 12.0074 56.3271C11.8137 56.1136 11.7125 55.832 11.7257 55.544C11.7182 55.3784 11.7447 55.213 11.8036 55.058C11.8624 54.9031 11.9524 54.7618 12.0679 54.6431C12.1887 54.5296 12.3311 54.4416 12.4866 54.3845C12.6421 54.3273 12.8075 54.3021 12.973 54.3104C13.1459 54.305 13.3176 54.3406 13.4741 54.4145C13.6306 54.4883 13.7674 54.5983 13.8733 54.7352C14.1162 55.0951 14.2333 55.5253 14.2063 55.9586C14.2391 56.4781 14.0971 56.9935 13.803 57.4225C13.6703 57.592 13.4989 57.727 13.3031 57.8161C13.1073 57.9052 12.8929 57.9458 12.6781 57.9344C12.4158 57.9458 12.1541 57.9004 11.9109 57.8013V57.8013ZM12.9323 54.8888C12.868 54.8884 12.8045 54.903 12.7468 54.9314C12.6892 54.9598 12.6389 55.0013 12.6 55.0526C12.5101 55.1754 12.4651 55.3254 12.4724 55.4774C12.4638 55.6281 12.5092 55.7769 12.6004 55.8972C12.6427 55.9478 12.6961 55.9879 12.7564 56.0145C12.8168 56.0412 12.8824 56.0536 12.9482 56.0507C13.0104 56.0522 13.0721 56.0396 13.1288 56.0139C13.1854 55.9882 13.2356 55.95 13.2755 55.9023C13.3637 55.8024 13.4095 55.672 13.4032 55.5389C13.4091 55.3734 13.3624 55.2104 13.27 55.0731C13.2333 55.0156 13.1825 54.9685 13.1225 54.9363C13.0625 54.904 12.9953 54.8877 12.9272 54.8888L12.9323 54.8888Z" fill="#5A5A5C"/>
<path d="M33.3917 37.9307L31.1721 37.9307L31.1718 37.3165L31.8878 37.3165L31.8868 35.1257L31.1402 35.2844L31.1399 34.6599L32.674 34.3528L32.6754 37.3165L33.3965 37.3165L33.3917 37.9307Z" fill="#5A5A5C"/>
<path d="M34.7916 37.2701L36.2185 37.2701L36.2188 37.9304L33.9327 37.9304L33.9325 37.3264L34.9548 36.359C35.1158 36.2042 35.2598 36.0326 35.3842 35.8471C35.4633 35.7233 35.5058 35.5795 35.5067 35.4325C35.5066 35.1049 35.3326 34.9206 34.995 34.9206C34.6709 34.9282 34.3612 35.0559 34.1258 35.2789L34.1255 34.6493C34.4298 34.452 34.7855 34.3487 35.1482 34.3525C35.4534 34.3345 35.7544 34.4313 35.9922 34.6237C36.0929 34.7163 36.1721 34.8298 36.2243 34.9562C36.2765 35.0827 36.3003 35.2191 36.2942 35.3557C36.2679 35.608 36.1887 35.8519 36.062 36.0715C35.9352 36.2911 35.7636 36.4815 35.5584 36.6303L34.7916 37.2701Z" fill="#5A5A5C"/>
<path d="M37.5194 82.9597L38.0622 84.6377L36.3594 84.1722L37.5194 82.9597Z" fill="#5A5A5C"/>
<path d="M36.7439 82.142L36.1617 82.7456L38.2148 84.7291L38.7969 84.1254L36.7439 82.142Z" fill="#5A5A5C"/>
<path d="M37.2846 39.0719C37.2846 39.0719 44.4489 48.6234 40.5508 67.6495C40.5508 67.6495 40.7662 68.9394 41.6197 67.6495C42.4731 66.3596 46.4797 49.5242 42.3994 40.5614C38.3192 31.5986 35.7541 36.3129 37.2846 39.0719Z" fill="white"/>
<path d="M43.5141 41.9946C43.5141 41.9946 48.7028 48.0705 46.9343 60.8723C46.9343 60.8723 47.1341 61.722 47.6451 60.8314C48.1561 59.9407 50.0838 48.5926 46.9819 42.788C43.88 36.9834 42.3779 40.2184 43.5141 41.9946Z" fill="white"/>
<path d="M61.4141 34.1273C61.3882 34.2029 61.3392 34.2683 61.2741 34.3142C61.2089 34.3602 61.1308 34.3844 61.0511 34.3833C56.7786 34.2495 52.6123 33.0154 48.9544 30.8002C44.5652 28.1231 41.4189 25.8965 39.1619 22.3441C39.1167 22.2752 39.0953 22.1934 39.1008 22.1112C39.1063 22.029 39.1384 21.9508 39.1923 21.8886C41.2368 19.4828 44.7343 18.1058 48.5137 18.1929C51.0722 18.2461 53.5753 18.9508 55.787 20.2403C61.2811 23.4805 62.9259 29.9351 61.4141 34.1273Z" fill="#5A5A5C"/>
<path d="M61.0067 34.9771C56.6434 34.8328 52.3891 33.5729 48.6491 31.3173C43.8916 28.4201 40.8885 26.1986 38.6622 22.6769C38.5519 22.5014 38.4998 22.2955 38.5135 22.0886C38.5272 21.8817 38.6059 21.6845 38.7383 21.5252C40.9004 18.9659 44.5512 17.5275 48.5199 17.6196C51.1809 17.6825 53.7825 18.4224 56.0796 19.7695C58.7261 21.3166 60.7443 23.7468 61.78 26.6337C62.7107 29.0981 62.777 31.8055 61.9678 34.3117L61.9167 34.4499L61.8912 34.4499C61.8087 34.6025 61.687 34.7304 61.5388 34.8203C61.3905 34.9103 61.221 34.9591 61.0476 34.9618L61.0067 34.9771ZM39.7359 22.1804C41.8291 25.4257 44.7094 27.555 49.2572 30.3242C52.7832 32.4489 56.7872 33.6495 60.8987 33.8152V33.8152C62.247 29.8328 60.582 23.7774 55.4766 20.8035C53.3513 19.5591 50.9457 18.874 48.4846 18.8123C44.9456 18.7099 41.6782 19.9742 39.7359 22.1702L39.7359 22.1804Z" fill="#5A5A5C"/>
<path d="M47.5997 29.6484L49.9656 25.5227L52.3599 27.3142L50.1628 31.358L47.5997 29.6484Z" fill="white"/>
<path d="M60.6372 34.1273C60.6372 34.1273 52.5524 24.7805 39.7197 22.0625C39.7197 22.0625 46.4671 15.1932 55.6599 20.7009C55.6599 20.6856 62.9397 25.7992 60.6372 34.1273Z" fill="#5A5A5C"/>
<path d="M49.6843 25.569L44.8095 23.3629C42.6356 22.6565 40.6869 22.1548 39.4288 22.1088C38.1707 22.0627 42.5299 26.2959 42.5299 26.2959L47.3798 29.6486L47.6608 29.1367L47.5431 29.0446L48.1613 27.7956L49.6843 25.569ZM41.3519 22.6514C41.3519 22.6514 43.8069 22.9482 44.293 23.5215C44.6921 23.9873 46.5759 27.77 47.2413 28.8194C46.0288 27.8366 42.0736 23.9157 41.3519 22.6514V22.6514Z" fill="#5A5A5C"/>
<path d="M59.6909 31.0406C59.8649 31.2403 60.0235 31.4553 60.2026 31.6651C60.3817 31.875 60.5097 32.1002 60.653 32.3203C60.938 32.7664 61.1667 33.2461 61.3339 33.7484C61.3339 33.7484 61.3339 33.7484 61.3339 33.7484C61.3894 33.8477 61.439 33.9503 61.4823 34.0555C62.9379 29.8582 61.2778 23.4803 55.8195 20.2965C53.6078 19.0069 51.1047 18.3023 48.5462 18.249V18.249C48.4235 18.249 43.6422 19.2728 41.3879 21.438C42.117 21.5329 42.8396 21.673 43.5514 21.8577C43.9606 21.955 44.3442 22.0573 44.7124 22.1751C45.2682 21.5583 45.945 21.0627 46.7007 20.7192C47.4563 20.3758 48.2746 20.1918 49.1046 20.1788C51.2014 20.2044 51.4525 21.4175 50.3326 21.6376C49.2127 21.8577 47.4384 22.3593 47.5051 22.948C47.5052 23.0145 47.5052 23.0759 47.5308 23.1374C49.1641 23.7495 50.7506 24.48 52.2778 25.3231C52.861 25.6455 53.439 25.9885 54.0017 26.3468C54.036 26.3031 54.054 26.2488 54.0528 26.1932C54.0526 25.6814 52.8236 22.3645 53.744 22.1546C54.6645 21.9447 56.373 22.6665 57.5198 25.4101C58.2469 27.1709 58.0787 28.3073 57.5215 28.9266C58.2987 29.5735 59.0241 30.2803 59.6909 31.0406V31.0406Z" fill="#5A5A5C"/>
<path d="M60.7912 34.6494C59.7162 32.5149 55.92 29.5 50.8864 26.782C46.0011 24.1459 41.3516 22.5437 39.0503 22.6871L38.9679 21.5507C42.0363 21.3408 47.4124 23.5982 51.4434 25.7634C56.7584 28.635 60.6517 31.7625 61.8393 34.1376L60.7912 34.6494Z" fill="#5A5A5C"/>
<path d="M50.4899 31.9006L49.4668 31.2915L51.8532 27.345C51.2905 27.0481 50.4362 26.613 49.9042 26.3468L47.7785 30.1091L46.7554 29.5307L49.4278 24.7856L49.9394 25.0467L50.3435 25.2463C51.4433 25.8043 52.6454 26.4134 52.9882 26.6335L53.4742 26.9406L50.4899 31.9006Z" fill="#5A5A5C"/>
<path d="M52.9575 27.647C52.661 27.7545 52.3337 27.8978 52.0218 28.0463C51.7099 28.1947 51.4032 28.3585 51.1015 28.5274C50.4894 28.8736 49.9168 29.2855 49.394 29.7559C49.582 29.4505 49.7903 29.1581 50.0175 28.8806C50.2475 28.5991 50.4877 28.3227 50.7433 28.0667C50.9989 27.8108 51.2545 27.5549 51.5356 27.3143C51.8168 27.0737 52.0877 26.8434 52.4047 26.6079L52.9575 27.647Z" fill="#5A5A5C"/>
<path d="M57.1327 30.048C54.7231 28.3639 52.4671 26.946 52.4671 26.946L52.3599 27.3146L50.1627 31.3584C50.8286 31.8253 51.5482 32.2103 52.3061 32.5049C53.5388 32.9759 57.3188 34.2504 60.6584 34.3835L61.2362 34.2299C60.102 32.6242 58.7163 31.212 57.1327 30.048V30.048ZM58.9138 32.9349C58.5918 33.3393 55.7939 32.3872 53.9932 31.3584C55.4099 31.471 59.2358 32.5254 58.9138 32.9349Z" fill="#5A5A5C"/>
</svg>
