<svg width="111" height="111" viewBox="0 0 111 111" fill="none" xmlns="http://www.w3.org/2000/svg">
<path d="M82.3245 52.2202C82.317 37.452 70.35 25.4807 55.5947 25.4807C40.8393 25.4807 28.8306 37.5466 28.8921 52.3148C28.9228 59.6516 31.8961 66.2858 36.7045 71.0959C40.4459 74.8386 43.1752 79.4731 44.5548 84.5805L46.7189 92.5523H64.2282L66.2628 84.9993C67.6642 79.7839 70.4968 75.0683 74.3423 71.2715C79.2673 66.4344 82.3283 59.6786 82.3245 52.2202Z" fill="#FFF405"/>
<path d="M59.6844 101.902H51.1525C48.736 101.902 46.6561 100.119 46.52 97.8486L45.8 89.093L65.1318 88.9714L64.3128 97.8486C64.1655 100.105 62.1009 101.902 59.6844 101.902Z" fill="#59595B"/>
<path d="M63.3906 92.782C57.991 93.0116 52.5642 92.7415 47.1646 92.9711C46.6786 92.9981 46.7195 93.6867 47.192 93.7138C52.5917 93.8893 58.0183 93.5517 63.4181 93.7273C64.0255 93.7408 63.998 92.755 63.3906 92.782Z" fill="#808183"/>
<path d="M63.3909 95.1334C57.9914 95.3629 52.5645 95.0928 47.1649 95.3224C46.679 95.3494 46.7198 96.0381 47.1923 96.0651C52.5921 96.2406 58.0186 95.903 63.4184 96.0786C64.0259 96.0921 63.9984 95.1064 63.3909 95.1334Z" fill="#808183"/>
<path d="M57.7634 11.8739C57.7642 13.6034 56.8494 19.7917 55.7289 19.7917C54.5949 19.7917 53.6873 13.6034 53.6864 11.8739C53.6855 10.1444 54.6028 8.75269 55.7233 8.75269C56.8438 8.7662 57.7625 10.1579 57.7634 11.8739Z" fill="#FFF405"/>
<path d="M83.2404 21.4C81.9315 22.5215 77.8434 27.2505 78.5729 28.1153C79.3158 28.9665 84.5925 25.6291 85.9015 24.5077C87.2104 23.3862 87.6685 21.7783 86.9256 20.9271C86.2097 20.0623 84.5493 20.265 83.2404 21.4Z" fill="#FFF405"/>
<path d="M93.1912 49.0445C91.4768 49.2607 85.2263 49.1391 85.0907 48.0177C84.9417 46.8962 90.9752 45.2072 92.6761 44.9911C94.3905 44.7749 95.8894 45.5045 96.0249 46.626C96.1605 47.7339 94.8921 48.8148 93.1912 49.0445Z" fill="#FFF405"/>
<path d="M30.5363 19.3327C31.8868 20.4001 36.2091 24.94 35.5075 25.8317C34.806 26.7235 29.3775 23.6293 28.0134 22.5619C26.6629 21.4945 26.1221 19.9137 26.8236 19.0219C27.5252 18.1301 29.1857 18.2787 30.5363 19.3327Z" fill="#FFF405"/>
<path d="M17.6161 44.6129C19.3307 44.8291 25.5811 44.7075 25.7155 43.586C25.8635 42.4646 19.8282 40.7756 18.1271 40.5594C16.4125 40.3432 14.9144 41.0729 14.7799 42.1943C14.6455 43.3023 15.915 44.3967 17.6161 44.6129Z" fill="#FFF405"/>
<path d="M67.1479 65.8253C66.2836 65.1902 65.6217 64.3795 65.1352 63.4472C66.1066 62.2447 66.5243 60.6368 66.7125 59.137C66.8201 58.2182 66.8466 57.2995 66.8596 56.3807C66.8727 55.4889 66.7508 54.7458 66.008 54.1918C65.3328 53.7054 64.442 54.1377 63.9293 54.6242C63.3355 55.1781 63.0525 56.0834 62.8234 56.8266C62.3652 58.3399 62.366 59.9748 62.6638 61.5151C62.7586 62.0555 62.9208 62.5825 63.1101 63.0959C62.7322 63.3932 62.3004 63.6229 61.8279 63.785C60.3702 64.2579 59.2628 63.4067 58.5871 62.1636C58.479 61.961 58.3709 61.7448 58.2763 61.5151C58.3977 61.2043 58.5055 60.8935 58.5998 60.5963C59.0986 59.11 59.3678 57.5697 59.4885 56.0159C59.5959 54.7323 59.6221 53.1919 58.3932 52.4218C58.0016 52.1786 57.5427 52.3677 57.2998 52.7055C55.4921 55.2187 55.6018 58.5425 56.5753 61.3935C56.2652 62.1501 55.8875 62.8798 55.4829 63.5959C55.0243 64.3795 54.1609 65.5821 53.1079 65.4334C52.1358 65.2848 51.3522 64.0688 50.8658 63.2986C50.5145 62.7446 50.2307 62.1501 50.0144 61.5286C50.1357 61.2043 50.2571 60.8665 50.3649 60.5422C50.7827 59.2316 51.0115 57.8534 51.1188 56.4752C51.2127 55.3268 51.2389 53.7189 49.9967 53.1649C49.6321 53.0028 49.0921 53.0163 48.9033 53.4487C47.8111 55.8943 47.5964 58.5831 48.2862 61.1908C48.3133 61.2854 48.3403 61.3664 48.3674 61.4475C47.6124 63.3797 46.4523 65.1767 45.0491 66.7035C44.4149 67.3926 45.4144 68.3925 46.0756 67.7304C47.3304 66.4468 48.3692 65.0011 49.1784 63.4202C49.4216 63.8796 49.6918 64.312 49.989 64.7308C50.8131 65.8658 51.8396 66.9332 53.3112 67.0008C54.6882 67.0819 55.8081 65.9199 56.5501 64.9065C56.9008 64.4201 57.2245 63.8931 57.4943 63.3527C58.1698 64.4336 59.1422 65.2848 60.4653 65.4605C61.6804 65.6361 62.8682 65.2578 63.8668 64.5822C64.4478 65.5821 65.2043 66.4738 66.0956 67.217C67.0546 68.0952 68.2013 66.609 67.1479 65.8253ZM57.9353 54.6782C57.9897 55.3133 57.8416 56.1104 57.8148 56.5023C57.7476 57.2049 57.6265 57.921 57.4649 58.6101C57.3022 57.2319 57.4094 55.8402 57.9353 54.6782ZM64.1878 58.7047C64.2415 58.0426 64.4167 57.3805 64.6323 56.759C64.7267 56.4753 64.8616 56.205 65.0234 55.9483C65.0369 55.9348 65.0909 55.8537 65.1448 55.7862C65.1584 55.8267 65.1719 55.8942 65.1719 55.9753C65.2538 57.5967 65.1197 59.3532 64.6209 60.8935C64.5535 61.0827 64.4861 61.2719 64.4052 61.4475C64.1888 60.5693 64.1208 59.6235 64.1878 58.7047Z" fill="#ACAFBC"/>
<path d="M68.6719 61.8933C65.8413 70.5678 62.8488 79.2017 59.6401 87.7545C59.2627 88.7814 60.829 89.403 61.2199 88.3761C64.4151 79.8097 67.3806 71.1758 70.0492 62.4338C70.3052 61.542 68.9684 60.9881 68.6719 61.8933Z" fill="#ACAFBC"/>
<path d="M42.8342 61.3524C45.1067 70.2025 47.2307 79.0932 49.1117 88.0243C49.3417 89.0918 51.0021 88.781 50.772 87.7136C48.864 78.7689 46.7265 69.8918 44.2785 61.0822C44.0216 60.1634 42.5907 60.4201 42.8342 61.3524Z" fill="#ACAFBC"/>
</svg>
