<svg width="36" height="41" viewBox="0 0 36 41" fill="none" xmlns="http://www.w3.org/2000/svg">
<path d="M32.8094 22.1812L6.63202 29.6418C5.50369 30.094 4.14972 29.1896 3.69838 28.0593L2.11869 22.6334C1.66736 21.503 2.57005 20.1465 3.69838 19.6943L29.8757 12.2337C31.004 11.7815 32.3581 12.6859 32.8094 13.8163L34.389 19.2422C34.8403 20.5986 34.1634 21.9551 32.8094 22.1812Z" fill="#ADB7DD"/>
<path d="M19.4942 4.99915C20.3969 7.93818 18.5915 10.8772 15.6579 11.7815C12.7242 12.6859 9.79053 10.8772 8.88787 7.93819C7.9852 4.99916 9.79056 2.06012 12.7242 1.1558C15.6579 0.477564 18.5916 2.06011 19.4942 4.99915Z" fill="#ADB7DD"/>
<path d="M27.3946 32.807C28.2973 35.746 26.4919 38.685 23.5583 39.5894C20.6246 40.4937 17.6909 38.6851 16.7883 35.746C15.8856 32.807 17.691 29.8679 20.6246 28.9636C23.5583 28.2854 26.4919 29.8679 27.3946 32.807Z" fill="#ADB7DD"/>
</svg>
