<svg width="51" height="51" viewBox="0 0 51 51" fill="none" xmlns="http://www.w3.org/2000/svg">
<g clip-path="url(#clip0_0_523)">
<path d="M17.7971 44.1811C13.5094 43.5028 9.44742 41.6942 6.28809 38.9812C8.99608 43.0506 13.0581 46.2157 17.7971 48.0244C17.5714 46.894 17.5714 45.5376 17.7971 44.1811Z" fill="#152B75"/>
<path d="M41.7168 12.0778C42.1681 13.2082 42.6195 14.5647 43.0708 15.9211C44.8761 16.1472 46.9072 16.5994 49.1638 17.0515C48.0355 13.6603 46.0045 10.7213 43.5222 8.23438C43.7478 8.68653 43.7479 9.13871 43.7479 9.59087C43.7479 10.7213 42.8451 11.6256 41.7168 12.0778Z" fill="#152B75"/>
<path d="M42.3939 29.7121C41.0399 33.3294 38.7832 36.4945 36.0752 38.9814C39.2345 39.8857 42.1682 41.0161 43.9735 42.1465C47.1329 38.7553 49.3896 34.6859 50.2922 29.9382C48.0356 29.7122 45.3276 29.0339 42.3939 29.7121Z" fill="#152B75"/>
<path d="M30.885 42.3726C29.7567 42.8247 28.6284 43.2769 27.5 43.7291C26.3717 45.0855 25.6947 47.5724 24.792 49.8332C25.2433 49.8332 25.9204 49.8332 26.3717 49.8332C32.0134 49.8332 36.978 48.0246 41.04 44.8594C37.8807 43.7291 33.593 42.3726 30.885 42.3726Z" fill="#152B75"/>
<path d="M22.0843 38.3032C25.695 36.9467 31.1109 37.6249 36.0756 38.9814C39.0093 36.4945 41.0403 33.3294 42.3943 29.7121C40.589 30.1643 38.7836 30.8425 36.7526 32.6512C30.8853 37.851 34.2703 23.834 36.527 18.6342C37.6553 16.1473 39.9119 15.6952 42.8456 15.9213C42.3943 14.5648 41.943 13.4344 41.4917 12.0779C39.0093 12.9822 35.3986 12.5301 34.496 8.46063C33.5933 3.93904 30.434 2.13039 27.2746 1.45215C29.3056 4.1651 30.4339 7.55634 30.4339 11.1736C30.4339 17.956 26.372 23.834 20.5046 26.547C20.5046 26.547 20.2789 26.547 20.2789 26.7731C19.6019 29.9382 18.248 32.4251 13.2833 31.0686C8.77 29.9382 4.48233 27.2252 2 24.0601C2 24.5123 2 24.7383 2 25.1905C2 30.3903 3.57965 34.9119 6.28765 38.9814C9.44698 41.6943 13.509 43.503 17.7967 44.1812C18.248 41.6944 19.3763 39.4336 22.0843 38.3032Z" fill="#7A8AC4"/>
<path d="M27.9513 43.0499C27.7256 43.2757 27.7256 43.5015 27.5 43.7273C28.6281 43.2757 29.7561 43.0499 30.8842 42.3725C29.5305 42.1467 28.4025 42.3726 27.9513 43.0499Z" fill="#7A8AC4"/>
<path d="M12.6057 20.2167C19.6013 14.7908 23.889 7.33022 27.951 10.2693C32.013 13.2083 27.7253 15.6951 22.9863 18.4081C20.504 19.7645 20.7297 23.834 20.0527 26.9991C20.0527 26.9991 20.2783 26.9991 20.2783 26.773C26.1457 24.0601 30.2077 18.182 30.2077 11.3997C30.2077 7.78238 29.0793 4.39115 27.0483 1.67819C25.92 1.45211 24.7917 1.22607 23.889 1.22607C14.8623 1.90431 7.41535 7.55628 3.80469 15.4691C6.06135 18.6342 8.31801 23.6079 12.6057 20.2167Z" fill="#ADB7DD"/>
<path d="M43.7485 21.7992C43.7485 24.5121 43.2972 27.2251 42.3945 29.7119C45.3282 29.0337 48.0362 29.712 50.2929 29.938C50.5185 28.5816 50.7442 26.999 50.7442 25.4164C50.7442 22.4774 50.2929 19.7645 49.1645 17.0515C46.9079 16.5994 44.8768 16.1472 43.0715 15.9211C43.5228 17.7298 43.7485 19.7644 43.7485 21.7992Z" fill="#001559"/>
<path d="M43.0713 15.9213C40.1376 15.6952 37.881 16.1473 36.7526 18.6342C34.496 23.8341 31.111 37.851 36.9783 32.6512C38.7837 31.0686 40.8147 30.1643 42.62 29.7121C43.5227 27.2252 43.9739 24.5123 43.9739 21.7993C43.7483 19.7646 43.5226 17.7299 43.0713 15.9213Z" fill="#152B75"/>
<path d="M20.9565 44.4072C19.8282 44.4072 18.6998 44.4073 17.7972 44.1812C17.5715 45.5377 17.5715 46.668 17.7972 48.0245C20.0538 48.9288 22.3105 49.381 24.5672 49.6071C25.4698 47.3463 26.3725 45.0855 27.2751 43.5029C25.2441 44.1812 23.2132 44.4072 20.9565 44.4072Z" fill="#001559"/>
<path d="M30.8857 42.3724C33.8194 42.5985 37.8814 43.955 41.0407 44.6332C41.9434 43.955 42.8461 43.0506 43.7488 42.1463C41.9434 41.0159 39.0098 39.6594 35.8504 38.9812C34.4964 40.3377 32.6911 41.4681 30.8857 42.3724Z" fill="#001559"/>
<path d="M22.0845 38.3031C19.3765 39.2074 18.2482 41.6943 17.7969 44.1812C18.9252 44.4073 19.8279 44.4072 20.9562 44.4072C23.2129 44.4072 25.2438 44.1812 27.2748 43.5029C27.5005 43.2768 27.5005 43.0508 27.7262 42.8247C28.4032 42.1465 29.3058 42.1464 30.6598 42.1464C32.4652 41.2421 34.2705 40.1117 35.8502 38.7552C31.1112 37.6248 25.6952 36.9466 22.0845 38.3031Z" fill="#152B75"/>
<path d="M13.2833 31.2946C18.248 32.6511 19.6019 30.1642 20.2789 26.9991C18.2479 27.9034 15.9913 28.3556 13.5089 28.3556C8.99561 28.3556 5.15933 26.773 2 23.834C2 24.0601 2 24.06 2 24.2861C4.708 27.4512 8.77 29.9381 13.2833 31.2946Z" fill="#152B75"/>
<path d="M20.2779 26.9993C20.9549 23.8341 20.7293 19.7647 23.2116 18.4082C27.9506 15.6952 32.2383 13.4345 28.1763 10.2694C24.1143 7.33034 19.601 14.5649 12.831 20.2169C8.5433 23.6081 6.28666 18.8604 4.25566 15.4692C3.12733 18.1821 2.22461 20.8951 2.22461 24.0602C5.15827 26.7731 9.22029 28.5818 13.7336 28.5818C15.9903 28.3557 18.2469 27.9036 20.2779 26.9993Z" fill="#485094"/>
<path d="M41.7163 12.0779C42.8447 11.6257 43.7474 10.7214 43.7474 9.59101C43.7474 9.13885 43.7474 8.68668 43.5217 8.23452C40.3624 5.0694 36.526 2.80862 32.0127 1.67822C36.3004 4.1651 39.6853 7.78239 41.7163 12.0779Z" fill="#001559"/>
<path d="M34.496 8.4606C35.3986 12.53 39.235 12.9822 41.4916 12.0779C39.4606 7.78238 36.0756 4.16509 31.7879 1.67821C30.2083 1.22605 28.6286 1 26.8233 1C27.049 1.22608 27.0489 1.22604 27.0489 1.45212C30.4339 2.35644 33.5933 4.16509 34.496 8.4606Z" fill="#152B75"/>
<path d="M27.0482 1.22607C26.8225 1.22607 26.5969 1.22607 26.1457 1.22607C25.4689 1.22607 24.7921 1.22607 24.1152 1.22607C25.0177 1.22607 26.1457 1.45183 27.2738 1.67763C27.2738 1.45183 27.2738 1.22607 27.0482 1.22607Z" fill="#152B75"/>
</g>
<defs>
<clipPath id="clip0_0_523">
<rect width="50" height="50" fill="white" transform="translate(0.931641 0.81958)"/>
</clipPath>
</defs>
</svg>
