<svg width="276" height="331" viewBox="0 0 276 331" fill="none" xmlns="http://www.w3.org/2000/svg">
<g clip-path="url(#clip0_0_882)">
<path d="M132.107 318.438C201.413 318.438 257.596 304.361 257.596 286.996C257.596 269.631 201.413 255.554 132.107 255.554C62.8009 255.554 6.61725 269.631 6.61725 286.996C6.61725 304.361 62.8009 318.438 132.107 318.438Z" fill="#BAE3D3"/>
<path d="M73.9964 280.662C81.2318 262.339 165.57 266.637 160.143 273.649C153.134 282.697 125.549 288.352 111.756 290.841C109.948 291.067 108.591 292.876 108.817 294.686L110.626 318.211C110.852 321.604 114.922 323.187 117.409 320.925L128.94 310.746C129.845 309.841 131.202 309.389 132.332 309.389C142.733 309.389 191.572 307.579 227.749 280.209C268.901 248.994 237.02 236.326 201.973 233.386C170.77 230.898 151.551 240.398 151.551 240.398H93.8938C93.8938 240.398 54.3251 211.218 20.635 227.957C-13.055 244.47 -0.845175 284.055 31.7143 295.365C49.8029 301.698 63.3693 309.163 69.022 312.556C70.8309 313.687 71.7354 315.496 71.9615 317.532L72.1876 328.164C71.9615 329.747 73.5442 330.878 74.9008 330.199L94.12 320.699C97.2855 319.116 97.9638 315.27 95.9289 312.556C91.6328 307.579 85.754 300.341 84.8495 298.984C83.719 296.496 71.7353 286.543 73.9964 280.662Z" fill="#14A76C"/>
<path d="M70.1354 261.317C76.1478 270.828 142.282 246.506 142.282 246.506L136.855 237.458C111.16 248.942 64.123 251.805 70.1354 261.317Z" fill="#09513F"/>
<path opacity="0.34" d="M237.698 241.529C236.115 248.089 231.367 259.173 217.8 270.257C200.842 284.055 126.679 305.996 126.679 305.996L116.73 321.152C116.956 320.925 117.183 320.925 117.409 320.699L128.94 310.52C129.845 309.615 131.201 309.163 132.332 309.163C142.733 309.163 191.572 307.353 227.749 279.983C253.299 260.982 251.038 248.768 237.698 241.529Z" fill="#094930"/>
<path d="M72.6404 327.259C72.8665 327.033 72.8665 326.807 73.0926 326.354C73.5449 324.771 74.4492 317.306 74.6753 315.949C75.3537 310.747 71.9621 304.187 53.4213 293.329C26.9667 277.721 14.3047 257.363 20.8618 243.791C27.4189 229.993 46.1859 225.469 46.1859 225.469L45.2814 222.755C37.3676 222.529 29.2278 224.112 21.5401 227.957C-12.1499 244.47 0.0599587 284.055 32.6194 295.365C50.708 301.699 64.2745 309.163 69.9271 312.556C71.736 313.687 72.6404 315.497 72.8665 317.533L72.6404 327.259Z" fill="#20CC87"/>
<path d="M166.697 256.685C166.697 256.685 170.088 231.351 199.708 233.16C196.091 244.696 180.489 279.531 156.748 262.114L166.697 256.685Z" fill="#09513F"/>
<path opacity="0.36" d="M95.9288 318.211C95.4765 317.532 90.5022 319.342 84.6234 322.283C78.7446 325.223 74.2224 328.164 74.6746 328.842C75.1268 329.521 80.1012 327.711 85.98 324.771C91.8588 321.83 96.1549 318.89 95.9288 318.211Z" fill="#152B75"/>
<path d="M93.216 312.33C91.6332 310.294 89.8244 308.032 87.5633 306.675C87.3372 306.449 86.885 306.675 87.1111 307.127C88.0155 308.711 89.5983 310.068 90.7288 311.651C91.8593 313.009 93.6682 315.044 92.7637 316.854C92.5376 317.533 93.6682 317.759 93.8943 317.306C95.0248 315.497 94.3465 313.913 93.216 312.33Z" fill="#09513F"/>
<path d="M83.4931 301.02C82.8148 300.568 82.3625 300.115 81.6842 299.663C81.4581 299.437 80.7798 299.663 81.232 300.115C81.6842 300.568 82.3625 301.246 82.8147 301.699C83.2669 301.925 83.9453 301.472 83.4931 301.02Z" fill="#09513F"/>
<path d="M78.5178 295.139C77.1611 293.329 75.8045 290.841 73.5434 289.71C73.3173 289.484 72.639 289.71 72.8651 290.162C73.3173 291.067 73.9956 291.746 74.6739 292.651C75.5784 293.556 76.4828 294.686 77.1611 295.591C77.8394 296.27 79.1961 295.817 78.5178 295.139Z" fill="#09513F"/>
<path d="M70.6037 278.852C70.8298 277.043 72.1864 275.686 72.8647 274.102C73.0908 273.65 72.1864 273.424 71.9603 273.65C70.3776 274.781 69.0209 276.817 68.7948 278.852C68.5687 281.114 69.9253 282.924 70.6037 284.96C70.8298 285.638 71.9603 285.412 71.7342 284.734C71.7342 282.698 70.3776 280.888 70.6037 278.852Z" fill="#09513F"/>
<path d="M134.594 155.574L161.274 155.121C161.274 155.121 174.615 165.074 180.267 179.098C192.477 208.957 202.2 246.958 178.458 259.852C148.838 275.912 135.498 240.172 135.498 240.172C135.498 240.172 50.9339 237.458 50.7078 236.553C50.4817 235.648 47.9945 199.004 47.9945 199.004C47.9945 199.004 90.9549 219.136 109.496 189.504C127.81 160.098 134.594 155.574 134.594 155.574Z" fill="#14A76C"/>
<path opacity="0.24" d="M180.266 179.098C175.97 168.241 166.926 159.871 163.082 156.705L159.012 158.74C159.012 158.74 173.935 168.467 182.527 196.063C191.119 223.66 188.632 246.054 177.779 260.078C178.005 260.078 178.231 259.852 178.231 259.852C202.198 246.958 192.476 209.183 180.266 179.098Z" fill="#152B75"/>
<path d="M164.439 158.062C164.439 158.062 164.891 165.979 146.576 168.015C133.914 169.372 130.523 159.645 130.523 159.645L164.439 158.062Z" fill="#20CC87"/>
<path d="M151.099 232.708C151.099 232.708 161.953 244.47 166.701 240.172C171.449 236.101 170.771 218.909 169.414 209.635C168.284 200.361 167.605 190.861 167.605 190.861C172.58 198.778 178.006 234.97 169.414 242.434C161.048 250.125 149.969 231.803 149.969 231.803L151.099 232.708Z" fill="#117B51"/>
<path d="M137.308 239.041C137.308 239.041 153.588 270.935 178.234 259.852C178.234 259.852 164.667 269.578 151.101 260.53C137.534 251.482 135.047 240.172 135.047 240.172L137.308 239.041Z" fill="#20CC87"/>
<path d="M166.019 162.812C165.341 162.36 164.21 163.038 164.888 163.717C169.41 168.241 173.028 173.67 175.515 179.551C177.776 184.527 178.907 189.956 181.168 194.932C181.394 195.385 182.299 195.385 182.299 194.706C181.62 183.17 174.611 170.277 166.019 162.812Z" fill="#117B51"/>
<path d="M183.887 198.552C183.661 197.873 182.304 198.099 182.53 198.778C183.209 202.623 184.113 206.469 185.017 210.314C185.243 210.993 186.374 210.766 186.374 210.088C185.696 206.469 184.791 202.623 183.887 198.552Z" fill="#117B51"/>
<path d="M187.727 218.457C187.727 218.231 187.049 218.231 187.049 218.457C187.727 225.469 186.144 231.803 185.014 238.589C185.014 239.041 185.466 239.267 185.692 238.815C189.084 232.708 188.858 225.017 187.727 218.457Z" fill="#117B51"/>
<path d="M182.303 246.28C181.624 247.637 180.72 248.994 179.816 250.351C178.911 251.482 178.007 252.613 177.554 253.97C177.328 254.423 178.007 254.649 178.233 254.423C180.72 252.839 182.077 249.446 183.433 246.732C183.433 246.28 182.529 245.827 182.303 246.28Z" fill="#117B51"/>
<path d="M133.916 155.574C131.429 155.347 129.394 157.836 130.524 160.098C131.881 162.812 137.081 167.11 144.995 167.11C152.909 166.884 163.31 162.812 164.44 158.288C165.571 153.764 161.727 153.99 161.727 153.99C161.727 153.99 156.979 161.455 144.995 161.455C134.82 161.455 134.142 155.574 134.142 155.574H133.916Z" fill="#117B51"/>
<path d="M134.592 157.609C133.236 157.836 131.427 159.193 131.879 160.776C131.879 161.002 132.331 161.002 132.558 160.776C133.236 159.871 133.688 158.967 134.819 158.514C135.497 158.514 135.271 157.609 134.592 157.609Z" fill="#09513F"/>
<path d="M138.213 161.229C137.308 162.36 136.404 164.848 137.76 165.979C137.987 166.205 138.665 166.205 138.665 165.753C138.665 165.074 138.439 164.395 138.439 163.943C138.439 163.038 138.665 162.359 139.117 161.681C139.569 161.002 138.665 160.776 138.213 161.229Z" fill="#09513F"/>
<path d="M144.544 162.586C144.77 161.907 143.866 161.907 143.64 162.36C143.188 163.491 142.962 165.074 144.318 165.753C144.544 165.979 144.997 165.753 144.997 165.527C144.997 164.396 144.544 163.491 144.544 162.586Z" fill="#09513F"/>
<path d="M151.098 161.681C150.872 161.229 149.967 161.455 149.967 162.133C150.42 163.264 149.741 164.395 149.967 165.3C149.967 165.753 150.646 165.753 150.872 165.526C152.229 164.622 151.776 162.812 151.098 161.681Z" fill="#09513F"/>
<path d="M156.301 159.645C156.075 159.645 156.075 160.098 156.301 160.098C156.753 160.324 157.205 160.55 157.431 160.776C157.884 161.229 157.883 161.681 158.336 162.133C158.562 162.36 159.24 162.36 159.24 162.133C159.918 160.776 157.657 158.967 156.301 159.645Z" fill="#09513F"/>
<path d="M161.502 156.026C161.276 156.026 160.824 156.252 160.824 156.478C161.05 157.157 161.502 157.383 161.955 158.062C162.407 158.74 162.633 159.419 163.085 159.645C163.311 159.871 163.989 159.871 164.216 159.419C164.668 158.062 162.633 156.252 161.502 156.026Z" fill="#09513F"/>
<path d="M145.445 247.637C144.541 246.506 143.184 245.601 142.054 244.47C140.923 243.113 140.019 241.756 139.341 240.172C139.114 239.72 137.984 239.72 138.21 240.398C139.341 243.339 141.602 246.958 144.767 248.089C144.993 248.315 145.898 248.089 145.445 247.637Z" fill="#09513F"/>
<path d="M151.552 247.637C150.873 245.827 148.838 244.696 147.708 243.339C146.125 241.756 144.542 240.172 142.96 238.363C142.507 237.91 141.377 238.363 141.829 239.041C143.186 240.851 144.768 242.434 146.125 244.018C147.482 245.375 149.064 247.185 150.873 247.863C151.099 248.316 151.552 247.863 151.552 247.637Z" fill="#09513F"/>
<path d="M149.29 239.72C148.16 238.589 147.029 237.458 145.899 236.327C145.446 235.875 144.542 236.553 144.994 237.006C146.125 238.137 147.029 239.494 148.16 240.625C149.064 241.756 149.969 242.887 151.325 243.565C151.551 243.792 152.23 243.565 152.23 243.113C151.551 241.53 150.421 240.625 149.29 239.72Z" fill="#09513F"/>
<path d="M155.168 240.851C154.49 239.72 153.133 238.815 152.002 237.684C151.098 236.779 150.194 235.196 148.837 234.517C148.611 234.291 148.159 234.517 148.159 234.97C148.159 236.327 149.515 237.91 150.42 238.815C151.55 239.946 152.681 241.303 154.264 241.756C154.942 241.982 155.62 241.53 155.168 240.851Z" fill="#09513F"/>
<path d="M150.874 193.801C150.648 193.801 150.421 193.575 150.195 193.575C150.195 192.218 149.517 191.087 149.065 189.956C148.613 188.599 147.934 187.015 147.482 185.658C147.256 185.206 146.578 185.432 146.578 185.884C147.03 187.468 147.482 188.825 147.934 190.408C148.16 191.539 148.613 192.897 149.065 193.801C148.613 194.028 148.16 194.254 148.16 194.932C148.16 196.063 149.517 196.29 150.421 196.063C150.421 196.063 150.422 196.063 150.648 196.063C151.778 195.611 151.778 194.254 150.874 193.801Z" fill="#E0CAEF"/>
<path d="M166.697 186.789C166.245 186.789 165.793 187.015 165.793 187.468C164.662 186.111 163.305 184.98 161.949 183.622C160.366 182.039 158.783 180.229 157.427 178.42C157.201 178.194 156.974 178.194 156.974 178.194V177.967C156.974 177.967 157.2 177.967 157.2 177.741C157.653 177.515 157.2 177.063 156.748 177.063H156.522C156.296 177.063 156.07 176.836 155.844 176.836C155.166 176.836 154.939 177.063 154.939 177.515C153.809 177.967 152.905 178.646 151.774 179.098C150.191 180.003 148.608 180.908 147.252 182.039C147.026 182.039 147.026 182.265 147.026 182.265C146.573 182.039 146.121 182.039 145.895 182.491C145.895 182.491 145.895 182.491 145.895 182.718C145.669 182.944 145.669 183.17 145.669 183.396C144.312 183.17 142.73 182.718 141.147 182.718C140.921 182.491 140.695 182.265 140.016 182.265C139.564 182.265 139.338 182.491 139.112 182.718C136.851 182.718 134.59 182.944 132.781 183.396C132.781 183.396 132.555 183.396 132.555 183.622C132.329 183.17 132.103 182.944 131.424 182.944C130.294 182.944 130.068 184.075 130.746 184.527C129.842 185.206 128.937 185.884 128.033 186.789C127.128 187.468 125.998 188.373 125.319 189.277C125.093 189.504 125.319 189.73 125.545 189.73C125.545 189.73 125.545 189.73 125.545 189.956C125.998 190.408 126.902 190.182 126.902 189.504C126.902 189.277 126.902 189.277 126.676 189.051C127.354 188.599 128.033 187.92 128.485 187.468C129.389 186.563 130.52 185.658 131.424 184.753C131.876 184.753 132.103 184.527 132.103 184.301L132.329 184.527C134.364 184.753 136.399 184.527 138.434 184.527C138.66 184.527 138.886 184.527 139.112 184.527C139.338 184.527 139.338 184.527 139.564 184.527H139.79C141.599 184.527 143.634 184.753 145.443 184.753C145.895 184.753 146.121 184.301 145.895 184.075C146.573 184.075 147.026 183.849 146.8 183.17C147.026 183.17 147.026 183.17 147.252 183.17C148.835 182.265 150.417 181.36 152 180.456C152.904 180.003 153.809 179.551 154.939 179.098H155.166C155.392 179.098 155.618 179.098 155.844 178.872C155.844 178.872 155.844 178.872 155.844 179.098C158.105 182.265 160.592 185.658 163.758 187.92C159.688 188.825 155.392 191.313 151.774 192.897C151.096 193.123 151.774 193.801 152.226 193.575C154.487 192.67 156.974 191.766 159.235 190.861C161.27 190.182 163.531 189.504 165.566 188.373C165.793 188.373 165.793 188.599 166.019 188.599C168.054 188.599 168.054 186.789 166.697 186.789Z" fill="#E0CAEF"/>
<path d="M155.395 213.933C154.491 213.933 154.491 215.063 155.395 215.063C156.299 215.063 156.299 213.933 155.395 213.933Z" fill="#E0CAEF"/>
<path d="M159.916 201.718C159.238 201.718 159.238 202.623 159.916 202.623C160.594 202.623 160.594 201.718 159.916 201.718Z" fill="#E0CAEF"/>
<path d="M142.957 201.945C142.052 201.945 142.052 203.301 142.957 203.301C143.861 203.301 143.861 201.945 142.957 201.945Z" fill="#E0CAEF"/>
<path d="M138.889 190.182C138.889 190.182 138.663 190.182 138.889 190.182C138.663 189.73 137.985 189.956 137.985 190.408C137.985 190.86 138.663 191.086 138.889 190.634C138.889 190.408 138.889 190.408 138.889 190.182Z" fill="#E0CAEF"/>
<path d="M132.331 200.587C131.653 200.587 131.653 201.492 132.331 201.492C133.009 201.718 133.009 200.587 132.331 200.587Z" fill="#E0CAEF"/>
<path d="M121.929 175.253C120.572 174.348 120.572 176.835 121.703 176.157C121.703 176.157 121.703 176.157 121.929 176.157C122.381 175.931 122.381 175.479 121.929 175.253Z" fill="#E0CAEF"/>
<path d="M128.033 165.526C127.129 165.526 127.129 166.657 128.033 166.657C128.937 166.657 128.937 165.526 128.033 165.526Z" fill="#E0CAEF"/>
<path d="M140.698 177.289C139.794 177.289 139.794 178.419 140.698 178.419C141.603 178.193 141.603 177.289 140.698 177.289Z" fill="#E0CAEF"/>
<path d="M162.854 232.708C161.724 232.708 161.724 234.064 162.854 234.064C163.984 234.064 163.984 232.708 162.854 232.708Z" fill="#E0CAEF"/>
<path d="M163.535 218.457C162.405 218.457 162.405 219.814 163.535 219.814C164.665 220.04 164.665 218.457 163.535 218.457Z" fill="#E0CAEF"/>
<path d="M149.968 222.755C148.837 222.755 148.837 224.111 149.968 224.111C151.098 224.337 151.098 222.755 149.968 222.755Z" fill="#E0CAEF"/>
<path d="M46.6366 266.411C46.6366 266.411 46.4105 266.411 46.6366 266.411C44.6017 265.507 42.7928 265.507 41.2101 264.376C41.2101 263.923 40.7579 263.697 40.3057 263.471C40.0796 263.245 39.8534 262.792 39.6273 262.566C38.0445 259.852 36.6879 256.911 35.1051 254.197L34.8791 253.971C35.1052 253.518 35.1052 253.292 34.8791 252.84C36.0096 251.709 36.6879 249.673 37.3662 248.542C38.2707 246.732 39.4012 244.922 39.6273 243.113C39.8534 242.434 39.6273 241.53 38.7229 241.53C38.0446 239.72 36.4618 238.363 35.1051 237.006C35.3313 236.327 34.879 235.875 33.9746 235.875C32.3919 235.875 32.3919 237.91 33.9746 237.91C34.2007 237.91 34.4269 237.91 34.653 237.684C35.3313 238.363 36.0096 239.041 36.4618 239.946C36.914 240.625 37.3663 241.077 37.8185 241.756C36.914 242.208 36.9141 243.792 38.2707 244.018C38.0446 244.923 37.5924 246.053 37.1402 246.958C36.4618 248.315 35.5574 251.708 34.4269 252.387C34.2007 252.387 34.2007 252.387 33.9746 252.387C33.5224 252.387 33.2963 252.613 33.0702 252.84C31.9397 252.84 30.8091 252.161 29.9047 252.161C28.0958 251.708 25.8348 251.709 24.252 250.804C24.252 250.351 23.7998 249.899 23.1215 250.125C23.1215 250.125 23.1215 250.125 22.8954 250.125C21.9909 250.351 21.9909 251.482 22.8954 251.709C22.8954 251.709 22.8954 251.709 23.1215 251.709C23.7998 251.935 24.0259 251.708 24.252 251.256C25.8348 252.161 27.4176 252.387 29.2264 252.84C30.1308 253.066 31.4874 253.518 32.8441 253.744C32.8441 254.423 33.2963 254.875 34.2007 254.875C34.4268 254.875 34.653 254.875 34.8791 254.875C36.2357 258.042 37.5923 261.435 39.6273 264.15C38.7229 264.828 38.949 266.411 40.5318 266.411C40.984 266.411 41.4362 266.185 41.6623 265.959C43.019 266.638 44.6017 267.09 46.1845 267.542C45.9584 268.221 46.1845 268.9 47.315 268.9C48.2194 268.447 48.2194 266.411 46.6366 266.411Z" fill="#E0CAEF"/>
<path d="M42.7946 252.613C41.8903 252.613 41.8903 253.744 42.7946 253.744C43.6988 253.744 43.6988 252.613 42.7946 252.613Z" fill="#E0CAEF"/>
<path d="M47.3147 245.827C46.6366 245.149 45.7323 246.279 46.6365 246.731C47.0886 246.958 47.7668 246.505 47.3147 245.827Z" fill="#E0CAEF"/>
<path d="M41.4376 233.386C41.4376 233.386 41.4376 233.612 41.4376 233.386C41.2115 233.612 41.2115 234.064 41.4376 234.291C41.8897 234.517 42.7939 234.517 42.7939 233.838C42.7939 233.386 41.8897 233.16 41.4376 233.386Z" fill="#E0CAEF"/>
<path d="M33.2973 270.031C32.6191 270.031 32.6191 270.935 33.2973 270.935C33.9754 270.935 33.9754 270.031 33.2973 270.031Z" fill="#E0CAEF"/>
<path d="M19.2777 273.65C18.5995 273.65 18.5995 274.554 19.2777 274.554C19.9558 274.328 19.9558 273.65 19.2777 273.65Z" fill="#E0CAEF"/>
<path d="M26.0615 264.376C25.3833 264.376 25.3833 265.506 26.0615 265.506C26.7396 265.28 26.7396 264.376 26.0615 264.376Z" fill="#E0CAEF"/>
<path d="M8.19926 255.328C7.97321 255.328 7.97321 255.328 8.19926 255.328C7.29505 256.006 8.42535 256.684 8.87746 256.006C8.87746 256.006 8.8774 255.78 9.10346 255.78C9.55556 255.328 8.42531 254.876 8.19926 255.328Z" fill="#E0CAEF"/>
<path d="M7.52043 268.674C6.84227 268.674 6.84227 269.578 7.52043 269.578C8.19858 269.578 8.19858 268.674 7.52043 268.674Z" fill="#E0CAEF"/>
<path d="M13.1723 238.815C12.2681 238.815 12.2681 239.946 13.1723 239.946C14.0765 239.946 14.0765 238.815 13.1723 238.815Z" fill="#E0CAEF"/>
<path d="M31.2617 231.351C31.2617 231.351 31.4879 231.351 31.4879 231.124C31.714 230.898 31.714 230.672 31.4879 230.446C31.0357 229.993 29.9051 229.993 29.9051 230.898C29.9051 231.351 30.3573 231.577 30.5834 231.577C29.9051 232.029 30.1312 232.934 31.0356 232.934C32.3923 232.934 32.3923 231.577 31.2617 231.351Z" fill="#E0CAEF"/>
<path d="M27.1917 241.756C26.2875 241.756 26.2875 242.886 27.1917 242.886C27.8699 242.886 27.8699 241.756 27.1917 241.756Z" fill="#E0CAEF"/>
<path d="M57.2625 278.174C56.1322 278.174 56.1322 279.756 57.2625 279.756C58.1667 279.756 58.1667 278.174 57.2625 278.174Z" fill="#E0CAEF"/>
<path d="M58.1683 269.126C57.2641 269.126 57.2641 270.256 58.1683 270.256C58.8464 270.256 58.8464 269.126 58.1683 269.126Z" fill="#E0CAEF"/>
<path d="M46.1869 279.079C45.2827 279.079 45.2827 280.209 46.1869 280.209C46.865 280.209 46.865 279.079 46.1869 279.079Z" fill="#E0CAEF"/>
<path d="M45.7336 293.329C45.0554 293.329 45.0554 294.234 45.7336 294.234C46.4118 294.234 46.4118 293.329 45.7336 293.329Z" fill="#E0CAEF"/>
<path d="M33.7483 287.222C33.0702 287.222 33.0702 288.126 33.7483 288.126C34.4265 288.126 34.4265 287.222 33.7483 287.222Z" fill="#E0CAEF"/>
<path d="M66.3091 303.056C65.4049 303.056 65.4049 304.186 66.3091 304.186C67.2133 304.412 67.2133 303.056 66.3091 303.056Z" fill="#E0CAEF"/>
<path d="M67.2131 290.163C66.3089 290.163 66.3089 291.519 67.2131 291.519C68.1173 291.519 68.1173 290.163 67.2131 290.163Z" fill="#E0CAEF"/>
<path d="M79.6488 304.187C78.9707 305.317 81.2312 305.995 81.4572 304.865C81.6833 303.735 80.327 303.282 79.6488 304.187Z" fill="#E0CAEF"/>
<path d="M78.7442 315.497C78.0661 315.497 78.0661 316.401 78.7442 316.401C79.4224 316.627 79.4224 315.497 78.7442 315.497Z" fill="#E0CAEF"/>
<path d="M72.4117 310.068C72.1861 310.068 72.1861 310.52 72.4117 310.52C72.6373 310.52 72.6373 310.068 72.4117 310.068Z" fill="#E0CAEF"/>
<path d="M85.302 312.104C84.6238 312.104 84.6238 313.008 85.302 313.008C85.7541 312.782 85.7541 312.104 85.302 312.104Z" fill="#E0CAEF"/>
<path d="M84.1721 267.316C84.3981 267.768 85.3024 267.768 85.5284 267.542C85.5284 267.542 85.5284 267.542 85.5284 267.316C86.4326 265.959 83.4939 265.959 84.1721 267.316Z" fill="#E0CAEF"/>
<path d="M75.1259 267.995C74.2217 267.995 74.2217 269.125 75.1259 269.125C75.8041 269.125 75.8041 267.995 75.1259 267.995Z" fill="#E0CAEF"/>
<path d="M108.362 258.947C108.136 258.947 107.684 258.947 107.458 258.947C106.328 259.173 107.006 260.755 108.136 260.303C108.362 260.077 108.588 260.077 108.814 259.851C108.814 259.625 108.815 259.173 108.362 258.947Z" fill="#E0CAEF"/>
<path d="M133.234 251.482C132.104 251.482 132.104 252.839 133.234 252.839C134.364 252.839 134.364 251.482 133.234 251.482Z" fill="#E0CAEF"/>
<path d="M140.018 261.209C138.888 261.209 138.888 262.565 140.018 262.565C141.149 262.791 141.149 261.209 140.018 261.209Z" fill="#E0CAEF"/>
<path d="M157.883 288.127C157.205 288.127 157.205 289.257 157.883 289.257C158.561 289.257 158.561 288.127 157.883 288.127Z" fill="#E0CAEF"/>
<path d="M160.822 277.043C159.917 277.043 159.917 278.399 160.822 278.399C161.726 278.173 161.726 277.043 160.822 277.043Z" fill="#E0CAEF"/>
<path d="M171.901 281.341C170.771 281.341 170.771 282.923 171.901 282.923C173.031 282.697 173.031 281.341 171.901 281.341Z" fill="#E0CAEF"/>
<path d="M128.261 291.293C128.261 291.293 128.261 291.518 128.261 291.293C128.485 291.518 128.485 291.293 128.261 291.293Z" fill="#E0CAEF"/>
<path d="M140.47 288.579C139.792 288.579 139.792 289.483 140.47 289.483C141.148 289.483 141.374 288.579 140.47 288.579Z" fill="#E0CAEF"/>
<path d="M141.15 298.08C140.02 298.08 140.02 299.662 141.15 299.662C142.28 299.662 142.28 298.08 141.15 298.08Z" fill="#E0CAEF"/>
<path d="M121.477 297.175C120.573 297.175 120.573 298.531 121.477 298.531C122.381 298.531 122.381 297.175 121.477 297.175Z" fill="#E0CAEF"/>
<path d="M117.182 304.639C116.278 304.639 116.278 305.77 117.182 305.77C118.086 305.996 118.086 304.639 117.182 304.639Z" fill="#E0CAEF"/>
<path d="M115.599 295.365C115.373 294.913 114.695 294.913 114.469 295.139V295.365C113.79 296.495 116.503 296.495 115.599 295.365Z" fill="#E0CAEF"/>
<path d="M236.795 264.602C234.986 260.53 235.438 255.78 233.177 251.935C233.177 251.709 232.951 251.709 232.725 251.709C232.951 250.804 232.499 249.899 231.142 249.899C230.012 249.899 229.559 250.578 229.559 251.256C229.333 251.03 229.107 251.03 228.881 251.03C222.098 253.744 214.862 256.685 208.984 261.209C208.757 260.757 208.305 260.304 207.627 260.304C207.401 260.304 207.175 260.304 206.949 260.53C204.688 259.626 202.2 259.173 199.713 258.947C197.678 258.721 195.643 258.268 193.834 258.721C193.608 258.495 193.382 258.495 192.93 258.495H192.704C192.252 258.495 191.799 259.173 191.799 259.626V259.852C191.799 260.078 192.026 260.078 192.026 260.078C191.347 261.209 190.669 262.566 189.991 263.697C189.538 264.376 189.086 264.828 188.408 265.507C188.182 265.507 188.182 265.507 187.956 265.507C186.147 265.507 186.147 267.769 187.956 267.769C188.182 267.769 188.408 267.769 188.408 267.769C192.704 270.483 197 273.198 201.296 275.233C200.391 275.686 200.391 277.269 201.974 277.269C202.653 277.269 202.879 277.043 203.105 276.591C213.053 275.233 225.489 272.293 233.629 266.185C233.855 266.412 234.082 266.412 234.534 266.412C235.664 266.412 235.89 265.507 235.664 264.828C236.569 265.281 236.795 265.054 236.795 264.602ZM234.986 264.602C234.308 264.602 233.855 265.054 233.855 265.507C228.429 267.543 223.228 270.709 217.576 272.519C213.054 274.102 208.305 275.007 203.557 275.912C203.331 275.686 203.331 275.46 203.105 275.46C203.105 275.233 203.105 275.233 202.879 275.007C198.583 272.293 194.06 270.031 189.538 267.543C189.764 267.316 189.764 267.09 189.764 266.864C191.573 265.281 192.704 262.792 193.608 260.53C194.287 260.53 194.513 260.078 194.513 259.626C196.548 260.078 198.583 259.852 200.618 260.304C202.653 260.53 204.687 260.983 206.496 261.661C206.27 262.34 206.723 263.019 207.853 263.019C208.305 263.019 208.531 262.792 208.757 262.792H208.984C215.993 259.399 222.324 255.328 229.559 252.161C229.785 252.161 229.786 251.935 229.786 251.935C230.012 252.387 230.464 252.84 231.368 252.84C231.82 252.84 232.047 252.613 232.273 252.613C232.951 256.685 233.629 260.983 235.438 264.828C235.212 264.602 235.212 264.602 234.986 264.602Z" fill="#E0CAEF"/>
<path d="M217.347 246.732C216.895 246.054 215.765 246.506 215.991 247.184C216.217 248.314 218.025 247.636 217.347 246.732Z" fill="#E0CAEF"/>
<path d="M206.269 238.589C205.139 238.589 205.139 240.171 206.269 240.171C207.399 239.945 207.399 238.589 206.269 238.589Z" fill="#E0CAEF"/>
<path d="M223.001 241.53C221.87 241.53 221.87 242.886 223.001 242.886C223.905 243.112 223.905 241.53 223.001 241.53Z" fill="#E0CAEF"/>
<path d="M196.771 250.351C195.866 250.351 195.866 251.482 196.771 251.482C197.675 251.482 197.675 250.351 196.771 250.351Z" fill="#E0CAEF"/>
<path d="M195.865 286.996C195.641 286.996 195.641 287.22 195.865 286.996C195.865 287.22 195.865 286.996 195.865 286.996Z" fill="#E0CAEF"/>
<path d="M188.631 277.495C187.727 277.721 187.953 279.078 188.857 279.078C189.987 279.078 189.761 277.269 188.631 277.495Z" fill="#E0CAEF"/>
<path d="M182.752 296.496C181.622 296.496 181.622 298.079 182.752 298.079C183.882 298.079 183.882 296.496 182.752 296.496Z" fill="#E0CAEF"/>
<path d="M206.495 289.031C206.043 288.579 205.59 288.579 205.138 289.031C204.46 289.483 205.138 290.388 205.817 290.388C206.495 290.388 207.173 289.483 206.495 289.031Z" fill="#E0CAEF"/>
<path d="M186.598 286.543C185.467 286.543 185.467 288.126 186.598 288.126C187.954 288.126 187.954 286.543 186.598 286.543Z" fill="#E0CAEF"/>
<path d="M161.048 298.984L160.822 299.21C160.596 299.662 161.048 300.114 161.5 300.114C161.726 300.114 161.726 300.114 161.952 300.114C163.761 300.114 161.952 297.628 161.048 298.984Z" fill="#E0CAEF"/>
<path d="M241.541 257.364C240.637 257.364 240.637 258.72 241.541 258.72C242.672 258.72 242.672 257.364 241.541 257.364Z" fill="#E0CAEF"/>
<path d="M220.742 266.411C219.612 266.411 219.612 267.994 220.742 267.994C222.099 267.994 222.099 266.411 220.742 266.411Z" fill="#E0CAEF"/>
<path d="M234.307 246.28C233.855 246.054 233.629 246.054 233.177 246.28C233.177 246.28 233.177 246.28 232.95 246.28C232.272 246.732 232.95 247.636 233.629 247.636C234.307 247.636 234.985 246.732 234.307 246.28Z" fill="#E0CAEF"/>
<path d="M245.159 246.958C244.029 246.958 244.029 248.541 245.159 248.541C246.289 248.541 246.289 246.958 245.159 246.958Z" fill="#E0CAEF"/>
<path d="M158.108 247.185C156.978 247.185 156.978 248.767 158.108 248.767C159.239 248.767 159.239 247.185 158.108 247.185Z" fill="#E0CAEF"/>
<path d="M165.118 255.554C163.988 255.554 163.988 257.136 165.118 257.136C166.249 257.136 166.249 255.554 165.118 255.554Z" fill="#E0CAEF"/>
<path d="M150.874 255.78C149.743 255.78 149.743 257.363 150.874 257.363C152.004 257.136 152.004 255.78 150.874 255.78Z" fill="#E0CAEF"/>
<path d="M149.289 246.732C148.158 246.732 148.158 248.315 149.289 248.315C150.419 248.315 150.419 246.732 149.289 246.732Z" fill="#E0CAEF"/>
<path d="M149.514 236.327C148.61 236.327 148.61 237.457 149.514 237.457C150.419 237.683 150.419 236.327 149.514 236.327Z" fill="#E0CAEF"/>
<path d="M173.708 243.339C172.804 243.339 172.804 244.696 173.708 244.696C174.838 244.696 174.838 243.339 173.708 243.339Z" fill="#E0CAEF"/>
<path d="M185.467 252.613C184.563 252.613 184.563 253.744 185.467 253.744C186.371 253.744 186.371 252.613 185.467 252.613Z" fill="#E0CAEF"/>
<path d="M189.987 237.006C188.857 237.006 188.857 238.588 189.987 238.588C191.343 238.588 191.343 237.006 189.987 237.006Z" fill="#E0CAEF"/>
<path d="M177.78 230.672C176.876 230.672 176.876 232.028 177.78 232.028C178.685 231.802 178.685 230.672 177.78 230.672Z" fill="#E0CAEF"/>
<path d="M174.612 193.575C173.708 193.575 173.708 194.932 174.612 194.932C175.742 194.932 175.742 193.575 174.612 193.575Z" fill="#E0CAEF"/>
<path d="M179.589 209.409C178.233 209.409 178.233 210.992 179.589 210.992C180.945 211.218 180.945 209.409 179.589 209.409Z" fill="#E0CAEF"/>
<path d="M169.414 172.539C168.51 172.539 168.51 173.895 169.414 173.895C170.545 173.669 170.545 172.539 169.414 172.539Z" fill="#E0CAEF"/>
<path d="M157.429 173.669C156.751 173.669 156.751 174.8 157.429 174.8C158.107 174.574 158.107 173.669 157.429 173.669Z" fill="#E0CAEF"/>
<path d="M155.168 165.979C154.263 165.979 154.263 167.109 155.168 167.109C156.072 167.335 156.072 165.979 155.168 165.979Z" fill="#E0CAEF"/>
<path d="M137.76 171.634C137.082 171.634 136.856 171.86 136.856 172.312V172.538C136.629 173.442 137.986 173.442 138.438 173.216C139.116 172.312 138.664 171.634 137.76 171.634Z" fill="#E0CAEF"/>
<path d="M132.811 245.039C134.478 244.372 137.612 242.338 136.812 239.536C136.012 236.734 126.81 200.347 122.309 182.504C122.142 180.502 120.508 177 115.307 179.002C108.805 181.503 62.2939 204.016 38.2881 184.505C41.4889 196.111 50.9578 227.362 55.2922 241.537C56.975 247.04 73.4967 264.25 90.3008 259.047C107.105 253.844 125.643 247.541 132.811 245.039Z" fill="#DBD8CB"/>
<path d="M135.723 240.398L128.714 210.992C120.8 210.766 114.921 216.195 115.373 218.457C115.825 221.171 123.739 218.004 123.739 218.004C123.739 218.004 116.956 221.171 117.634 224.338C118.086 227.505 125.548 222.755 125.548 222.755C125.548 222.755 119.217 227.052 119.895 229.541C120.8 232.029 126 225.695 128.261 227.052C130.522 228.41 134.818 244.244 135.045 244.244C135.949 243.339 135.723 240.398 135.723 240.398Z" fill="#C6BA80"/>
<path d="M135.271 240.172L149.968 232.029C149.968 232.029 143.863 211.219 133.914 208.731C123.965 206.242 115.825 213.028 116.504 215.743C116.956 218.457 124.87 215.29 124.87 215.29C124.87 215.29 118.087 218.457 118.765 221.624C119.217 224.791 126.679 220.041 126.679 220.041C126.679 220.041 120.348 224.338 121.026 226.827C121.93 229.315 127.131 222.981 129.392 224.338C131.427 225.469 135.271 240.172 135.271 240.172Z" fill="#FCEDCD"/>
<path opacity="0.55" d="M149.968 232.029C149.968 232.029 143.863 211.219 133.914 208.731C132.106 208.278 130.071 208.052 128.488 208.278C131.201 210.088 135.723 213.255 139.115 217.779C144.089 224.565 145.898 229.315 145.898 232.029C145.898 233.16 144.768 234.744 143.637 235.875L149.968 232.029Z" fill="#FCEDCD"/>
<path d="M137.53 239.041C136.173 236.101 131.425 224.338 129.842 223.207C128.033 221.85 124.416 224.338 122.607 225.922C121.928 226.374 121.476 226.6 121.024 226.6C121.928 228.862 127.129 222.755 129.164 224.112C131.425 225.469 135.269 240.172 135.269 240.172L137.53 239.041Z" fill="#D9C08A"/>
<path d="M118.539 221.398C118.765 222.981 121.026 222.529 123.061 221.624L126.678 219.814C126.678 219.814 126.678 219.814 126.452 219.814C125.096 220.267 120.574 221.85 118.539 221.398Z" fill="#D9C08A"/>
<path d="M116.504 214.386C116.278 214.838 116.278 215.291 116.278 215.517C116.731 218.231 124.644 215.064 124.644 215.064C124.644 215.064 117.635 216.874 116.504 214.386Z" fill="#D9C08A"/>
<path d="M124.645 215.064C124.645 215.064 123.288 215.742 121.932 216.647C123.514 215.969 124.645 215.064 124.645 215.064Z" fill="#D3A8A5"/>
<path d="M85.0765 87.0349C85.0765 87.0349 70.1534 94.4996 60.883 84.0944C51.8387 73.6892 53.8737 65.9984 53.8737 65.9984C53.8737 65.9984 35.7851 71.6534 29.9063 56.2718C24.0275 41.1164 36.2373 32.5208 36.2373 32.5208C36.2373 32.5208 26.2885 18.7226 36.2373 13.2938C46.186 7.63882 53.8737 13.2938 53.8737 13.2938C53.8737 13.2938 59.7525 0.400391 75.58 0.400391C91.4075 0.400391 92.538 15.3296 92.538 15.3296C92.538 15.3296 99.7734 5.82922 110.853 12.1628C121.932 18.4964 120.801 50.8429 120.801 50.8429L85.0765 87.0349Z" fill="#403B3C"/>
<path d="M76.7094 69.6175C67.6652 59.2123 65.6301 54.2359 65.6301 54.2359C65.6301 54.2359 47.5416 59.8909 41.6628 44.5093C38.4973 36.5923 40.3062 30.4849 42.7933 26.4133C40.7584 24.3775 38.9495 21.8893 38.0451 19.4011C37.1406 17.3653 36.9145 14.6509 37.8189 12.3889C37.3667 12.6151 36.9145 12.8414 36.4623 13.0676C26.5136 18.7226 36.4623 32.2945 36.4623 32.2945C36.4623 32.2945 24.2525 40.8901 30.1313 56.0455C36.0101 71.2009 54.0987 65.7721 54.0987 65.7721C54.0987 65.7721 51.8376 73.4629 61.108 83.8681C70.1523 94.2733 85.3015 86.8087 85.3015 86.8087L96.833 75.2725C94.798 76.4035 85.0754 79.5703 76.7094 69.6175Z" fill="#605A5C"/>
<path d="M80.3286 5.37683C71.0582 1.75763 61.5617 6.5078 59.0745 16.2344C55.0046 16.0082 49.578 17.3654 51.1607 22.1156C51.3868 23.0204 53.1957 23.2466 53.6479 22.1156C55.6829 21.2108 57.9439 20.0798 59.9789 19.175C60.8833 19.4012 61.7878 18.7226 62.0139 17.8178C63.3706 9.22223 71.2843 4.47199 79.4242 6.96019C80.5547 7.18639 81.4591 5.82923 80.3286 5.37683Z" fill="#443D3F"/>
<path d="M82.1352 77.0822C73.317 75.9512 54.7762 66.4508 67.4382 46.319C67.4382 46.319 56.3589 32.5208 70.1514 25.961C83.944 19.175 91.6316 33.6519 91.6316 33.6519C91.6316 33.6519 92.7622 28.9016 99.3194 29.8064C99.3194 29.8064 99.3194 10.1271 120.8 9.90087C142.28 9.67467 142.506 27.092 142.506 27.092C142.506 27.092 156.977 14.1987 176.648 21.2109C196.319 28.2231 191.119 43.3784 191.119 43.3784C191.119 43.3784 192.476 32.9732 201.746 32.747C211.242 32.5208 213.051 39.0806 213.051 39.0806C213.051 39.0806 218.704 23.699 234.532 26.1872C250.359 28.6754 249.455 44.9618 249.455 44.9618C249.455 44.9618 259.856 33.8781 270.03 46.0928C280.205 58.0814 272.518 80.4752 249.907 72.5582C249.907 72.5582 255.56 101.059 223.678 91.559C223.678 91.559 228.201 108.298 212.373 119.834C196.546 131.37 190.667 142.906 166.699 133.18C143.184 123.679 82.1352 77.0822 82.1352 77.0822Z" fill="#474444"/>
<path d="M250.135 45.1882C250.135 45.1882 251.039 28.9018 235.212 26.4136C232.272 25.9612 229.785 26.1874 227.524 26.6398C231.82 29.3542 235.212 33.8782 235.89 40.8904C237.473 58.3078 223.454 64.4151 223.454 64.4151C223.454 64.4151 227.976 82.5112 215.54 86.5828C198.356 92.0116 178.911 125.263 169.188 134.085C191.799 142.68 197.904 131.37 213.505 120.06C229.333 108.524 224.811 91.7853 224.811 91.7853C256.692 101.286 251.039 72.7846 251.039 72.7846C273.65 80.4754 281.338 58.3077 271.163 46.3191C260.762 34.1044 250.135 45.1882 250.135 45.1882Z" fill="#282325"/>
<path d="M173.482 76.4037C164.212 74.8203 159.464 62.6055 159.464 62.6055C159.464 62.6055 155.62 66.4509 135.723 70.5225C115.825 74.5941 113.338 56.7243 113.338 56.7243L99.3193 62.6055C99.3193 62.6055 78.0651 67.5819 73.543 62.6055C69.0208 57.6291 79.1957 51.5217 79.1957 51.5217C79.1957 51.5217 71.7342 39.7593 78.9696 36.3663C83.944 34.1043 87.7878 37.9497 89.8227 40.4379C89.8227 37.9497 90.7272 35.4615 92.0838 33.1995C90.9533 31.3899 83.4918 19.6275 70.8297 25.7349C57.0372 32.5209 68.1164 46.0929 68.1164 46.0929C55.4544 66.2247 73.9952 75.9512 82.8134 76.856C82.8134 76.856 103.615 92.69 125.548 107.845C155.394 107.619 183.431 101.738 183.883 94.952C184.788 83.4158 182.753 77.9871 173.482 76.4037Z" fill="#75626A"/>
<path d="M141.151 53.1051C140.02 55.1409 136.628 54.6885 134.819 54.4623C132.332 54.0099 131.202 53.5575 129.619 51.5217C127.584 48.8073 128.488 48.3549 128.941 45.4143C129.167 44.2833 129.167 43.3785 129.167 42.0213C129.167 40.8903 127.81 40.6641 126.906 40.8903C119.444 44.0571 111.53 37.4973 116.279 30.0327C116.731 29.3541 115.6 28.6755 114.922 29.1279C111.53 32.5209 111.53 37.7235 114.922 41.3427C117.861 44.2833 122.157 44.7357 126.001 43.8309C125.549 46.7715 124.192 49.7121 125.549 52.4265C126.68 54.4623 128.715 55.5933 130.75 56.2719C134.593 57.6291 141.377 58.5339 143.638 54.2361C144.994 52.2003 141.829 51.2955 141.151 53.1051Z" fill="#5E4B53"/>
<path d="M187.954 62.3792C187.276 57.4028 184.337 53.105 178.91 52.2002C178.232 52.2002 177.553 52.8788 178.458 53.105C182.528 54.9146 186.372 58.76 185.467 63.5102C185.241 64.8674 186.598 65.3198 187.502 64.8674C190.894 63.5102 194.964 63.9626 197.451 67.1294C199.034 69.3914 199.26 71.8796 199.26 74.3678C199.26 75.725 201.521 75.9512 201.747 74.594C204.686 66.2246 195.416 60.7958 187.954 62.3792Z" fill="#5E4B53"/>
<path d="M214.408 44.9619C212.147 41.7951 206.947 39.5331 203.103 39.3069C199.711 39.0807 195.642 40.6641 196.094 44.7357C196.094 45.6405 197.677 45.8667 197.903 44.9619C198.807 40.4379 203.781 41.5689 206.721 42.9261C208.756 43.8309 210.565 45.4143 212.6 46.5453C213.504 46.7715 215.087 45.8667 214.408 44.9619Z" fill="#5E4B53"/>
<path d="M230.464 34.5567C229.108 33.8781 227.299 34.5567 226.168 35.2353C222.098 37.2711 218.707 40.2117 215.994 43.6047C215.315 44.5095 216.898 45.1881 217.576 44.5095C219.159 42.6999 220.968 41.1165 222.777 39.7593C223.681 39.3069 228.882 35.4615 229.786 36.5925C230.238 37.0449 230.917 37.0449 231.369 36.3663C231.821 35.9139 231.369 35.0091 230.464 34.5567Z" fill="#5E4B53"/>
<path d="M120.802 14.4248C115.828 12.389 109.723 13.2937 105.427 16.9129C102.036 19.8535 98.87 26.8657 102.488 30.7111C103.166 31.3897 105.201 31.616 105.201 30.0326C104.975 27.9968 104.297 26.1872 104.749 24.1514C105.201 22.1156 106.332 20.0798 107.914 18.7226C111.532 15.5558 116.054 15.5557 120.576 15.7819C121.029 15.7819 121.481 14.651 120.802 14.4248Z" fill="#5E4B53"/>
<path d="M82.8149 77.0823C82.8149 77.0823 70.1529 128.656 90.5026 141.549C110.852 154.443 133.463 151.502 134.594 155.8C134.594 155.8 134.594 162.133 143.638 162.586C152.682 162.812 158.109 161.455 159.918 157.836C161.726 153.99 162.631 150.823 170.545 149.24C178.685 147.657 193.834 143.811 193.834 143.811C193.834 143.811 209.661 153.764 222.323 136.573C234.985 119.382 218.932 106.488 205.365 111.238C192.025 115.989 189.085 127.525 189.085 127.525C189.085 127.525 183.433 129.108 185.92 119.834C188.407 110.334 189.764 81.1539 174.389 79.3443C159.013 77.5347 157.43 73.4631 159.013 69.1653C159.013 69.1653 153.813 80.7015 134.82 79.5705C115.827 78.4395 112.209 69.1653 112.209 69.1653C112.209 69.1653 103.391 78.4395 82.8149 77.0823Z" fill="#FCEDCD"/>
<path d="M82.8149 122.775C81.0061 113.953 80.78 78.2133 91.1809 77.0823C88.6938 77.3085 85.9804 77.3085 82.8149 77.0823C82.8149 77.0823 70.1529 128.656 90.5026 141.549C92.9898 143.133 95.477 144.49 97.9642 145.621C90.0504 141.775 85.076 133.18 82.8149 122.775Z" fill="#D3CCA5"/>
<path opacity="0.55" d="M159.465 79.3442C159.465 79.3442 173.484 87.2612 184.111 86.8088C182.076 82.7372 179.137 79.5704 174.388 79.118C159.013 77.3084 157.43 73.2368 159.013 68.939C159.013 68.939 153.813 80.4752 134.819 79.3442C115.826 78.2132 112.209 68.939 112.209 68.939C112.209 68.939 105.426 75.9512 90.2764 76.856C92.5374 78.4394 96.6073 80.0228 102.034 79.118C111.53 77.7608 114.018 76.1774 114.018 76.1774C114.018 76.1774 118.314 86.3564 135.272 86.1302C152.682 86.3564 159.465 79.3442 159.465 79.3442Z" fill="#B7AF86"/>
<path opacity="0.55" d="M185.469 124.358H172.807V121.644H185.469V124.358Z" fill="#B78B86"/>
<path opacity="0.55" d="M222.547 136.347C229.783 126.62 227.521 118.251 222.095 113.727C223.678 115.989 225.26 121.644 224.356 125.489C222.321 134.311 216.216 144.037 203.554 146.526C209.207 146.752 216.216 144.942 222.547 136.347Z" fill="#B78B86"/>
<path opacity="0.55" d="M182.077 144.942C173.711 147.204 163.31 148.109 161.728 151.05C160.823 152.633 160.823 157.609 155.171 161.455C157.658 160.776 159.24 159.419 160.145 157.609C161.954 153.764 162.858 150.597 170.772 149.014C178.912 147.43 194.061 143.585 194.061 143.585C194.061 143.585 191.8 142.228 182.077 144.942Z" fill="#B78B86"/>
<path opacity="0.55" d="M139.341 151.954C139.567 151.728 139.793 151.502 140.019 151.276C129.166 151.728 113.565 149.692 106.329 148.561C118.991 152.633 129.844 152.633 133.462 154.442C134.366 153.99 135.497 153.764 136.401 153.538C137.08 152.859 138.436 152.633 139.341 151.954Z" fill="#B78B86"/>
<path d="M201.072 131.37C201.298 132.049 202.428 132.049 202.881 131.597C203.785 130.692 204.463 129.787 205.82 130.239C206.725 130.013 207.177 130.465 207.177 131.37C207.629 132.049 207.629 132.954 207.403 133.632C206.725 136.12 204.464 135.442 202.655 135.668C202.202 135.668 201.75 135.894 201.976 136.347C202.655 138.156 204.916 137.93 206.272 137.478C208.081 136.799 209.438 135.216 209.664 133.18C209.89 131.37 208.986 128.882 206.951 128.204C205.82 127.751 204.463 128.203 203.333 128.882C204.011 126.394 206.498 124.81 209.438 124.358C213.508 123.906 215.543 127.073 214.638 130.918C214.412 132.275 216.447 132.501 216.899 131.37C222.552 115.989 195.645 120.965 201.072 131.37Z" fill="#935654"/>
<path opacity="0.24" d="M172.804 134.311C172.804 141.549 166.926 147.657 159.464 147.657C152.002 147.657 146.124 141.776 146.124 134.311C146.124 127.073 152.002 120.965 159.464 120.965C166.926 120.965 172.804 127.073 172.804 134.311Z" fill="#EFA5CF"/>
<path opacity="0.24" d="M97.2849 133.406C97.2849 126.168 91.4061 120.06 83.9446 120.06C82.3618 120.06 81.0052 120.287 79.6486 120.739C81.0052 129.561 84.1707 137.251 90.5017 141.323C91.4061 141.775 92.3106 142.454 93.215 142.907C95.7022 140.645 97.2849 137.251 97.2849 133.406Z" fill="#EFA5CF"/>
<path d="M124.192 129.334C123.287 130.918 122.157 132.275 120.8 133.406C118.765 134.763 117.635 133.632 116.052 132.275C115.374 131.596 113.791 132.501 114.469 133.18C115.826 134.989 117.635 136.799 120.122 135.894C121.026 135.668 121.705 134.763 122.383 134.085C123.513 132.727 124.644 131.37 125.322 129.787C126.001 129.108 124.644 128.656 124.192 129.334Z" fill="#935654"/>
<path d="M118.312 138.382C118.312 138.382 119.894 137.93 121.251 137.251C122.608 136.573 120.799 139.74 120.347 139.74C119.668 139.966 118.312 138.382 118.312 138.382Z" fill="#A8716D"/>
<path d="M152.907 97.8925C149.741 96.9877 144.767 96.7615 142.506 99.9283C142.053 100.607 142.958 101.286 143.636 101.059C146.35 100.607 149.063 100.155 152.002 101.059C154.489 101.964 155.168 104.226 157.203 105.131C157.881 105.583 158.785 105.131 159.238 104.452C160.594 101.286 155.394 98.5711 152.907 97.8925Z" fill="#241324"/>
<path d="M96.8326 100.607C93.2149 97.4401 87.7883 99.0235 85.3011 102.643C84.6228 103.548 86.2055 104.226 86.8839 103.774C88.9188 101.512 91.6321 101.059 94.3454 102.19C95.2498 102.643 96.8325 103.321 97.2847 101.964C97.2847 101.285 97.0587 101.059 96.8326 100.607Z" fill="#241324"/>
<path d="M92.7625 120.286C95.26 120.286 97.2847 118.261 97.2847 115.762C97.2847 113.264 95.26 111.238 92.7625 111.238C90.265 111.238 88.2404 113.264 88.2404 115.762C88.2404 118.261 90.265 120.286 92.7625 120.286Z" fill="#241324"/>
<path d="M91.1795 113.953C91.1795 114.631 90.7273 115.084 90.049 115.084C89.3707 115.084 88.9185 114.631 88.9185 113.953C88.9185 113.274 89.3707 112.822 90.049 112.822C90.5012 112.822 91.1795 113.274 91.1795 113.953Z" fill="#FFFAFE"/>
<path d="M151.55 122.775C154.047 122.775 156.072 120.749 156.072 118.251C156.072 115.752 154.047 113.727 151.55 113.727C149.052 113.727 147.028 115.752 147.028 118.251C147.028 120.749 149.052 122.775 151.55 122.775Z" fill="#241324"/>
<path d="M149.289 116.893C149.289 117.572 148.837 118.024 148.158 118.024C147.48 118.024 147.028 117.572 147.028 116.893C147.028 116.215 147.48 115.762 148.158 115.762C148.837 115.762 149.289 116.215 149.289 116.893Z" fill="#FFFAFE"/>
<path d="M192.476 120.965L176.423 120.287L175.292 116.441L195.642 117.346L194.285 118.929L192.476 120.965Z" fill="#FF946E"/>
<path d="M154.488 90.2019C140.922 90.2019 130.069 101.286 130.069 114.631C130.069 127.977 141.148 139.061 154.488 139.061C168.055 139.061 178.908 127.977 178.908 114.631C178.908 101.286 168.055 90.2019 154.488 90.2019ZM154.488 135.668C142.957 135.668 133.461 126.168 133.461 114.631C133.461 103.095 142.957 93.5949 154.488 93.5949C166.02 93.5949 175.517 103.095 175.517 114.631C175.517 126.168 166.246 135.668 154.488 135.668Z" fill="#FF946E"/>
<path d="M92.0856 90.428C78.5191 90.428 67.666 101.512 67.666 114.858C67.666 128.43 78.7453 139.287 92.0856 139.287C105.426 139.287 116.505 128.203 116.505 114.858C116.505 101.512 105.652 90.428 92.0856 90.428ZM92.0856 135.894C80.5541 135.894 71.0576 126.394 71.0576 114.858C71.0576 103.321 80.5541 93.821 92.0856 93.821C103.617 93.821 113.114 103.321 113.114 114.858C113.114 126.62 103.617 135.894 92.0856 135.894Z" fill="#FF946E"/>
<path d="M126.68 109.881C122.384 108.977 116.505 109.203 113.792 113.274C112.209 115.536 116.053 117.346 117.636 115.763C119.671 113.727 122.61 113.501 125.324 113.953C127.585 114.405 128.941 115.989 130.524 117.346C130.976 117.798 131.881 117.572 132.333 117.12C134.82 114.179 129.167 110.334 126.68 109.881Z" fill="#FF946E"/>
<path d="M152.457 89.2971C138.891 89.2971 128.038 100.381 128.038 113.727C128.038 127.299 139.117 138.156 152.457 138.156C166.024 138.156 176.877 127.073 176.877 113.727C177.103 100.155 166.024 89.2971 152.457 89.2971ZM152.457 134.763C140.926 134.763 131.429 125.263 131.429 113.727C131.429 102.191 140.926 92.6901 152.457 92.6901C163.989 92.6901 173.485 102.191 173.485 113.727C173.485 125.263 163.989 134.763 152.457 134.763Z" fill="#FF652F"/>
<path d="M90.0496 89.2971C76.4831 89.2971 65.6299 100.381 65.6299 113.727C65.6299 127.073 76.7092 138.156 90.0496 138.156C103.39 138.156 114.469 127.073 114.469 113.727C114.469 100.381 103.616 89.2971 90.0496 89.2971ZM90.0496 134.99C78.5181 134.99 69.0216 125.489 69.0216 113.953C69.0216 102.417 78.5181 92.9163 90.0496 92.9163C101.581 92.9163 111.078 102.417 111.078 113.953C111.078 125.489 101.581 134.99 90.0496 134.99Z" fill="#FF652F"/>
<path opacity="0.53" d="M90.0494 134.989C101.663 134.989 111.077 125.571 111.077 113.953C111.077 102.335 101.663 92.9163 90.0494 92.9163C78.436 92.9163 69.0214 102.335 69.0214 113.953C69.0214 125.571 78.436 134.989 90.0494 134.989Z" fill="#96D2F0"/>
<path d="M124.643 108.75C120.347 107.845 114.468 108.072 111.755 112.143C110.172 114.405 114.016 116.215 115.599 114.631C117.634 112.596 120.573 112.369 123.287 112.822C125.548 113.274 126.904 114.858 128.487 116.215C128.939 116.667 129.844 116.441 130.296 115.989C132.557 113.274 127.13 109.429 124.643 108.75Z" fill="#FF652F"/>
<path d="M194.287 118.929L176.198 118.251L176.876 114.858L197.452 115.762L194.287 118.929Z" fill="#FF652F"/>
<path d="M177.101 119.155C175.971 119.155 174.84 118.251 174.84 116.893V116.215C174.84 115.084 175.744 113.953 177.101 113.953C178.232 113.953 179.362 114.858 179.362 116.215V116.893C179.362 118.251 178.458 119.155 177.101 119.155Z" fill="#FF652F"/>
<path d="M65.4048 116.893C64.2742 116.893 63.1437 115.989 63.1437 114.631V113.953C63.1437 112.822 64.0481 111.691 65.4048 111.691C66.5353 111.691 67.6658 112.596 67.6658 113.953V114.631C67.6658 115.989 66.7614 116.893 65.4048 116.893Z" fill="#FF652F"/>
<path d="M79.1974 116.441H68.3442V112.822H78.9713L79.1974 116.441Z" fill="#FF946E"/>
<path opacity="0.53" d="M171.984 121.791C176.428 111.057 171.333 98.7511 160.603 94.3048C149.874 89.8585 137.573 94.9557 133.128 105.69C128.684 116.424 133.779 128.73 144.509 133.176C155.238 137.622 167.539 132.525 171.984 121.791Z" fill="#96D2F0"/>
<path d="M80.1025 102.417C76.2587 104.452 73.7715 107.619 72.8671 111.917C71.9626 115.989 71.9626 122.548 75.3543 125.489C76.0326 125.941 77.3892 125.489 76.937 124.584C73.7715 117.798 73.7715 107.619 80.7808 103.095C81.233 102.643 80.5547 102.19 80.1025 102.417Z" fill="#EEF2F7"/>
<path d="M141.828 101.964C137.984 104 135.497 107.393 134.819 111.691C134.14 115.762 134.367 122.322 137.758 125.037C138.437 125.489 139.793 125.037 139.341 124.132C135.949 117.346 135.497 107.167 142.506 102.643C142.733 102.417 142.28 101.738 141.828 101.964Z" fill="#EEF2F7"/>
<path d="M116.732 113.727V120.06C116.732 120.06 111.305 118.251 109.496 120.06C107.687 121.87 116.732 128.656 116.732 128.656" fill="#B78B86"/>
<path d="M109.271 120.287C109.271 120.287 109.271 122.322 112.436 124.811C115.602 127.525 117.184 128.43 117.184 128.43L121.254 127.751C121.254 127.751 114.245 119.608 109.271 120.287Z" fill="#A8716D"/>
<path d="M118.993 114.632V120.287L116.732 119.834L117.637 115.763L118.993 114.632Z" fill="#D3A8A5"/>
</g>
<defs>
<clipPath id="clip0_0_882">
<rect width="275" height="330" fill="white" transform="translate(0.580078 0.400391)"/>
</clipPath>
</defs>
</svg>
