<svg width="50" height="50" viewBox="0 0 50 50" fill="none" xmlns="http://www.w3.org/2000/svg">
<path d="M44.8643 26.3182C46.2183 26.3182 47.3466 26.3182 48.4749 26.3182C48.4749 25.8661 48.4749 25.4139 48.4749 24.9617C48.4749 24.0574 48.4749 23.1531 48.2493 22.2488C47.3466 22.2488 46.2183 22.2488 45.0899 22.2488C45.0899 23.6053 45.0899 25.1878 44.8643 26.3182Z" fill="#6E72B0"/>
<path d="M45.0891 19.9879C45.9917 19.9879 46.8944 19.9879 47.7971 19.9879C47.5714 18.8575 47.1201 17.501 46.6688 16.3706C45.9918 16.3706 45.3148 16.3706 44.4121 16.3706C44.8634 17.501 45.0891 18.8575 45.0891 19.9879Z" fill="#6E72B0"/>
<path d="M41.2529 34.4571C43.0583 34.4571 44.638 34.4571 46.2176 34.4571C46.8946 32.8746 47.346 31.292 47.7973 29.7095C46.4433 29.7095 45.0893 29.7095 43.7353 29.7095C43.0583 31.5181 42.3813 33.1006 41.2529 34.4571Z" fill="#6E72B0"/>
<path d="M44.1867 15.0143C44.8637 15.0143 45.5406 15.0143 46.2176 15.0143C45.0893 12.5275 43.5096 10.2666 41.4786 8.45801C41.253 8.45801 41.253 8.45801 41.0273 8.45801C42.3813 10.4927 43.5097 12.5275 44.1867 15.0143Z" fill="#6E72B0"/>
<path d="M35.6094 40.5614C38.0917 40.5614 40.3484 40.7874 42.1538 41.0135C43.2821 39.8831 44.1847 38.5266 45.0874 37.1702C43.2821 37.1702 41.4767 37.1702 39.4457 37.1702C38.3174 38.3006 36.9634 39.431 35.6094 40.5614Z" fill="#6E72B0"/>
<path d="M6.04785 38.0745C6.72485 38.9788 7.40184 39.8831 8.07884 40.7874C8.53017 40.7874 8.75584 40.7874 9.20717 40.7874C8.07884 39.8831 7.17618 38.9788 6.04785 38.0745Z" fill="#6E72B0"/>
<path d="M27.7108 43.9524C25.9055 44.4046 24.1002 44.6306 22.2949 44.6306C19.8125 44.6306 17.3302 44.1785 15.0736 43.5002C13.7196 43.5002 12.5912 43.5002 11.4629 43.5002C15.2992 46.4393 20.2638 48.2479 25.4542 48.2479C30.1932 48.2479 34.4809 46.8915 38.0915 44.4046C35.1579 44.4046 31.5472 44.1785 27.7108 43.9524Z" fill="#6E72B0"/>
<path d="M22.2965 44.6299C24.1018 44.6299 26.1328 44.404 27.7125 43.9521C23.4248 43.7262 18.9115 43.5002 15.0752 43.5002C17.3319 44.4039 19.8142 44.6299 22.2965 44.6299Z" fill="#7D8FC7"/>
<path d="M38.9949 6.19708C37.4152 5.06668 35.8356 4.16237 34.0303 3.48413C34.4816 4.38845 34.7073 5.29276 35.1586 6.19708C36.5126 6.19708 37.6409 6.19708 38.9949 6.19708Z" fill="#7D8FC7"/>
<path d="M45.3143 22.2488C41.478 22.2488 37.416 22.2488 32.9027 22.2488C31.7743 23.8313 30.646 25.4139 29.292 26.5443C34.708 26.3182 40.124 26.3182 44.863 26.3182C45.0886 25.1878 45.0887 23.6053 45.3143 22.2488Z" fill="#7D8FC7"/>
<path d="M44.6366 16.3706C41.9286 16.3706 38.7693 16.3706 35.3843 16.1445C35.1586 17.501 34.7073 18.8575 34.0303 20.214C37.8666 19.9879 41.7029 19.9879 45.0879 19.9879C45.0879 18.8575 44.8622 17.501 44.6366 16.3706Z" fill="#7D8FC7"/>
<path d="M44.1866 15.0143C43.5096 12.7535 42.3813 10.4927 41.0273 8.45801C39.6733 8.68409 37.8679 8.68412 35.8369 8.91019C36.0626 10.0406 36.0626 10.9449 36.0626 12.0753C36.0626 12.9796 36.0626 14.11 35.8369 15.0143C38.7706 14.7883 41.4786 14.7883 44.1866 15.0143Z" fill="#7D8FC7"/>
<path d="M35.6102 40.5611C36.9642 39.6568 38.3182 38.5264 39.4466 37.1699C28.1632 36.9439 14.1719 36.7178 5.82227 37.396C6.04793 37.6221 6.04789 37.8482 6.27356 38.0742C7.17622 38.9786 8.30461 39.8829 9.43294 40.7872C17.1056 40.5611 27.7119 40.3351 35.6102 40.5611Z" fill="#7D8FC7"/>
<path d="M2.21191 25.1877C2.21191 25.866 2.21191 26.5442 2.21191 27.2224C2.88891 27.2224 3.56591 27.2224 4.46858 27.2224C3.56591 26.5442 2.88891 25.866 2.21191 25.1877Z" fill="#7D8FC7"/>
<path d="M41.253 34.4571C42.1557 33.1007 43.0583 31.5181 43.7353 29.7095C37.868 29.4834 31.3237 29.4834 25.005 29.2573C22.297 30.6138 19.589 31.292 16.4297 31.292C13.2703 31.292 10.3367 30.6138 7.85437 29.2573C6.04903 29.2573 4.24373 29.4834 2.66406 29.4834C3.1154 31.292 3.56669 32.8746 4.24369 34.4571C14.173 35.1354 29.744 34.4571 41.253 34.4571Z" fill="#7D8FC7"/>
<path d="M35.6096 14.7882C35.8353 13.8839 35.8353 12.7535 35.8353 11.8492C35.8353 10.7188 35.8353 9.81448 35.6096 8.68408C27.7113 9.13624 15.9767 9.13623 7.85268 9.58839C6.72434 10.9449 5.59603 12.5274 4.69336 14.11C12.1404 15.0143 24.7776 15.0143 35.6096 14.7882Z" fill="#A2ABD6"/>
<path d="M34.0317 20.2141C34.7087 18.8576 35.1601 17.7272 35.3857 16.1446C23.8767 15.9186 10.788 15.9186 3.56672 16.8229C3.11538 17.9533 2.88973 19.0837 2.66406 20.4401C9.20839 21.1184 22.0714 20.6662 34.0317 20.2141Z" fill="#A2ABD6"/>
<path d="M4.46858 27.2225C10.3359 27.4486 19.5882 26.9964 29.2919 26.7704C30.6459 25.64 31.9999 24.0574 32.9026 22.4749C20.9423 22.4749 8.53058 22.927 2.21191 24.2835C2.21191 24.5095 2.21191 24.9617 2.21191 25.1878C2.88891 25.866 3.56591 26.5443 4.46858 27.2225Z" fill="#A2ABD6"/>
<path d="M7.85254 29.2573C10.5605 30.6138 13.4942 31.292 16.4278 31.292C19.5872 31.292 22.5209 30.6138 25.0032 29.2573C18.9102 29.2573 12.8172 29.2573 7.85254 29.2573Z" fill="#A2ABD6"/>
<path d="M34.0314 3.48418C31.3234 2.35378 28.3898 1.67554 25.2304 1.67554C18.9118 1.67554 13.2701 4.16243 8.98242 8.23187C14.8498 7.55363 26.5844 6.42321 34.9341 6.19713C34.7084 5.29281 34.4828 4.3885 34.0314 3.48418Z" fill="#A2ABD6"/>
<path d="M44.8626 26.3181C44.6369 27.4485 44.1856 28.5789 43.96 29.7093C45.314 29.7093 46.8936 29.7093 48.0219 29.7093C48.2476 28.5789 48.4733 27.4485 48.4733 26.3181C47.1193 26.3181 45.9909 26.3181 44.8626 26.3181Z" fill="#152B75"/>
<path d="M39.4463 37.17C41.4773 37.17 43.2826 37.17 45.088 37.17C45.5393 36.2657 45.9906 35.5874 46.442 34.6831C44.8623 34.6831 43.2826 34.6831 41.4773 34.6831C40.8003 35.3613 40.1233 36.2657 39.4463 37.17Z" fill="#152B75"/>
<path d="M15.0738 43.5003C13.0428 42.822 11.0118 41.9178 9.20646 40.5613C8.75512 40.5613 8.52946 40.5613 8.07812 40.5613C8.98079 41.6917 10.1091 42.596 11.2374 43.5003C12.5914 43.5003 13.7198 43.5003 15.0738 43.5003Z" fill="#152B75"/>
<path d="M27.7119 43.9525C31.3226 44.1786 34.9332 44.1785 37.8669 44.4046C39.4466 43.5003 40.8006 42.3699 41.929 41.0134C40.1236 40.7874 37.867 40.5613 35.3846 40.5613C33.3536 42.1438 30.6456 43.2742 27.7119 43.9525Z" fill="#152B75"/>
<path d="M41.4767 8.45632C41.0255 8.00473 40.3487 7.55316 39.8975 7.10156C40.3487 7.55316 40.5743 8.00473 41.0255 8.45632C41.0255 8.45632 41.2511 8.45632 41.4767 8.45632Z" fill="#0076B5"/>
<path d="M44.6358 16.3697C45.3126 16.3697 46.215 16.3697 46.8919 16.3697C46.6663 15.9178 46.4407 15.24 46.2151 14.7881C45.5382 14.7881 44.8614 14.7881 44.1846 14.7881C44.4102 15.4659 44.4101 15.9178 44.6358 16.3697Z" fill="#152B75"/>
<path d="M45.3142 21.7967C45.3142 22.0228 45.3142 22.2488 45.3142 22.2488C46.4425 22.2488 47.3451 22.2488 48.4735 22.2488C48.4735 21.5706 48.2478 20.6663 48.0221 19.988C47.1195 19.988 46.2168 19.988 45.3142 19.988C45.0885 20.6663 45.3142 21.1184 45.3142 21.7967Z" fill="#152B75"/>
<path d="M39.4481 37.17C40.1251 36.2657 40.8021 35.5874 41.4791 34.6831C29.9701 34.6831 14.1735 35.1353 4.24414 34.6831C4.69547 35.5874 5.14683 36.4917 5.82383 37.3961C13.9478 36.7178 28.1648 36.9439 39.4481 37.17Z" fill="#7D8FC7"/>
<path d="M39.4481 37.17C40.1251 36.2657 40.8021 35.5874 41.4791 34.6831C29.9701 34.6831 14.1735 35.1353 4.24414 34.6831C4.69547 35.5874 5.14683 36.4917 5.82383 37.3961C13.9478 36.7178 28.1648 36.9439 39.4481 37.17Z" fill="#485094"/>
<path d="M9.20703 40.5613C11.0124 41.6917 13.0434 42.8221 15.0744 43.5003C19.1364 43.5003 23.424 43.7264 27.7117 43.9525C30.4196 43.2743 33.1277 42.1438 35.3844 40.3352C27.7117 40.3352 17.1054 40.5613 9.20703 40.5613Z" fill="#7D8FC7"/>
<path d="M9.20703 40.5613C11.0124 41.6917 13.0434 42.8221 15.0744 43.5003C19.1364 43.5003 23.424 43.7264 27.7117 43.9525C30.4196 43.2743 33.1277 42.1438 35.3844 40.3352C27.7117 40.3352 17.1054 40.5613 9.20703 40.5613Z" fill="#485094"/>
<path d="M45.3149 21.7967C45.3149 21.1184 45.3149 20.6663 45.3149 19.988C41.9299 19.988 38.0936 20.2141 34.2572 20.2141C33.8059 20.8924 33.5802 21.5706 33.1289 22.2488C37.4166 22.2488 41.7042 22.2488 45.5406 22.2488C45.3149 22.2488 45.3149 22.0228 45.3149 21.7967Z" fill="#7D8FC7"/>
<path d="M45.3149 21.7967C45.3149 21.1184 45.3149 20.6663 45.3149 19.988C41.9299 19.988 38.0936 20.2141 34.2572 20.2141C33.8059 20.8924 33.5802 21.5706 33.1289 22.2488C37.4166 22.2488 41.7042 22.2488 45.5406 22.2488C45.3149 22.2488 45.3149 22.0228 45.3149 21.7967Z" fill="#485094"/>
<path d="M29.0659 26.7704C27.9375 27.9008 26.3579 28.8051 25.0039 29.4834C31.3226 29.7094 37.8669 29.7094 43.7342 29.9355C44.1855 28.8051 44.4112 27.6747 44.6369 26.5443C39.8979 26.3182 34.4819 26.5443 29.0659 26.7704Z" fill="#7D8FC7"/>
<path d="M29.0659 26.7704C27.9375 27.9008 26.3579 28.8051 25.0039 29.4834C31.3226 29.7094 37.8669 29.7094 43.7342 29.9355C44.1855 28.8051 44.4112 27.6747 44.6369 26.5443C39.8979 26.3182 34.4819 26.5443 29.0659 26.7704Z" fill="#485094"/>
<path d="M44.1857 15.0142C41.4777 15.0142 38.7697 15.0142 35.6104 15.0142C35.6104 15.4663 35.3848 15.9185 35.3848 16.3706C38.5441 16.3706 41.7034 16.3706 44.637 16.5967C44.4114 15.9185 44.4114 15.4663 44.1857 15.0142Z" fill="#7D8FC7"/>
<path d="M44.1857 15.0142C41.4777 15.0142 38.7697 15.0142 35.6104 15.0142C35.6104 15.4663 35.3848 15.9185 35.3848 16.3706C38.5441 16.3706 41.7034 16.3706 44.637 16.5967C44.4114 15.9185 44.4114 15.4663 44.1857 15.0142Z" fill="#485094"/>
<path d="M35.1582 6.19702C35.3839 7.10134 35.6095 7.77959 35.8352 8.68391C37.8662 8.68391 39.6715 8.45784 41.0255 8.23176C40.5742 7.7796 40.3485 7.32743 39.8972 6.87527C39.6715 6.64919 39.2202 6.4231 38.9945 6.19702C37.6405 6.19702 36.5122 6.19702 35.1582 6.19702Z" fill="#7D8FC7"/>
<path d="M35.1582 6.19702C35.3839 7.10134 35.6095 7.77959 35.8352 8.68391C37.8662 8.68391 39.6715 8.45784 41.0255 8.23176C40.5742 7.7796 40.3485 7.32743 39.8972 6.87527C39.6715 6.64919 39.2202 6.4231 38.9945 6.19702C37.6405 6.19702 36.5122 6.19702 35.1582 6.19702Z" fill="#485094"/>
<path d="M4.46858 27.2227C3.56591 27.2227 2.88891 27.2227 2.21191 27.2227C2.21191 28.127 2.43761 28.8052 2.66327 29.7095C4.24294 29.4835 6.04825 29.4835 7.85358 29.4835C6.49958 28.8052 5.37125 28.127 4.46858 27.2227Z" fill="#7D8FC7"/>
<path d="M4.46858 27.2227C3.56591 27.2227 2.88891 27.2227 2.21191 27.2227C2.21191 28.127 2.43761 28.8052 2.66327 29.7095C4.24294 29.4835 6.04825 29.4835 7.85358 29.4835C6.49958 28.8052 5.37125 28.127 4.46858 27.2227Z" fill="#485094"/>
<path d="M35.1582 6.19702C26.8085 6.4231 15.0739 7.7796 9.20655 8.23176C8.75522 8.68392 8.30387 9.13606 7.85254 9.58822C15.9765 8.90998 27.7112 8.90999 35.6095 8.68391C35.6095 8.00567 35.3839 7.10134 35.1582 6.19702Z" fill="#A2ABD6"/>
<path d="M35.1582 6.19702C26.8085 6.4231 15.0739 7.7796 9.20655 8.23176C8.75522 8.68392 8.30387 9.13606 7.85254 9.58822C15.9765 8.90998 27.7112 8.90999 35.6095 8.68391C35.6095 8.00567 35.3839 7.10134 35.1582 6.19702Z" fill="#6E72B0"/>
<path d="M35.3835 16.3706C35.3835 15.9185 35.6091 15.4663 35.6091 15.0142C24.5514 15.0142 12.1398 15.2403 4.69279 14.562C4.24145 15.4663 3.79012 16.3706 3.56445 17.275C10.7858 16.1446 24.1001 16.1445 35.3835 16.3706Z" fill="#A2ABD6"/>
<path d="M35.3835 16.3706C35.3835 15.9185 35.6091 15.4663 35.6091 15.0142C24.5514 15.0142 12.1398 15.2403 4.69279 14.562C4.24145 15.4663 3.79012 16.3706 3.56445 17.275C10.7858 16.1446 24.1001 16.1445 35.3835 16.3706Z" fill="#6E72B0"/>
<path d="M34.0309 20.2141C22.0706 20.6663 9.20761 21.1184 2.66327 20.4402C2.43761 21.5706 2.21191 22.9271 2.21191 24.0575C8.53058 22.701 21.1679 22.4749 32.9026 22.2488C33.3539 21.7967 33.8053 21.1184 34.0309 20.2141Z" fill="#A2ABD6"/>
<path d="M34.0309 20.2141C22.0706 20.6663 9.20761 21.1184 2.66327 20.4402C2.43761 21.5706 2.21191 22.9271 2.21191 24.0575C8.53058 22.701 21.1679 22.4749 32.9026 22.2488C33.3539 21.7967 33.8053 21.1184 34.0309 20.2141Z" fill="#6E72B0"/>
<path d="M4.46875 27.2227C5.59708 28.127 6.72542 28.8052 7.85375 29.4835C12.8184 29.2574 18.9114 29.4835 25.2301 29.4835C26.8098 28.8052 28.1637 27.9009 29.2921 26.7705C19.5884 26.9966 10.3361 27.4487 4.46875 27.2227Z" fill="#A2ABD6"/>
<path d="M4.46875 27.2227C5.59708 28.127 6.72542 28.8052 7.85375 29.4835C12.8184 29.2574 18.9114 29.4835 25.2301 29.4835C26.8098 28.8052 28.1637 27.9009 29.2921 26.7705C19.5884 26.9966 10.3361 27.4487 4.46875 27.2227Z" fill="#6E72B0"/>
</svg>
